<svg width="220" height="220" viewBox="0 0 220 220" fill="none" xmlns="http://www.w3.org/2000/svg">
<path d="M102.021 43.7195C138.583 39.3181 171.8 65.3583 176.256 101.914C180.718 138.477 154.735 171.737 118.191 176.255C81.5629 180.786 48.2132 154.724 43.7441 118.087C39.2751 81.4446 65.3827 48.1307 102.021 43.7195Z" fill="#FDF7EE"/>
<path d="M111.962 64.4531C115.826 66.8087 116.992 73.5602 120.584 75.9053C121.603 76.5714 130.25 72.4194 133.737 71.5571C134.323 88.7039 128.947 86.1809 146.889 92.3324C145.093 95.0898 139.31 100.631 136.625 103.341C137.211 104.002 140.378 107.434 140.655 108.224C142.408 113.181 144.377 119.076 147.506 123.428C147.506 123.428 153.172 124.644 154.82 125.959C157.523 128.12 157.918 129.595 158.541 132.978C158.955 135.25 158.628 137.398 157.208 139.12C153.376 143.756 145.741 142.398 141.853 143.83C138.699 144.991 136.687 148.114 131.54 148.799C128.565 149.195 123.917 147.065 123.356 147.238C118.69 148.688 117.937 150.059 112.425 150.781C105.667 150.701 104.204 150.158 97.9831 147.361C89.2931 150.077 86.2318 148.281 79.0083 143.423C68.7086 146.287 58.0769 140.515 64.2679 128.484C67.8754 121.478 74.4966 126.644 77.3258 119.348C78.2028 117.082 80.966 115.175 82.8928 113.811C84.121 107.483 84.6642 107.841 88.9227 103.107C85.0036 99.4893 81.4813 96.3497 77.9615 92.3262C81.3961 90.5508 87.5835 88.6353 91.4409 87.3668C91.4964 82.2907 90.9533 77.0862 90.5398 72.0157C94.0948 72.9892 99.5322 75.6201 102.803 75.9337C105.852 76.2257 108.623 68.3804 111.543 64.9396L111.962 64.4531Z" fill="#281E18"/>
<path d="M64.0468 135.924C63.7963 125.485 67.5765 126.924 75.1229 125.51C78.1582 124.936 77.6219 120.275 78.6476 119.053C81.8255 115.281 93.1522 110.695 97.707 113.318C96.232 116.714 95.4296 117.399 95.9172 120.732L96.6084 120.022C96.6948 119.633 96.7812 119.244 96.8799 118.862C97.528 116.386 98.7686 114.01 101.657 114.892C102.459 116.936 102.256 116.183 101.929 118.553L102.379 119.238C110.921 106.386 121.031 123.047 127.03 120.72C127.659 119.078 127.486 118.578 127.35 116.757C129.091 114.8 130.708 113.892 132.893 112.473C148.07 117.38 140.361 120.207 146.644 125.257C150.248 128.158 156.945 122.43 156.759 135.399C151.705 146.14 143.743 139.523 141.768 141.727C132.665 151.887 127.82 143.609 120.74 146.344C110.242 150.406 109.409 151.282 98.2255 145.887L97.7255 145.64C83.166 151.529 86.0977 139.301 72.8998 142.325C68.4258 143.35 65.5546 139.64 64.0468 135.924Z" fill="#FDF7EE"/>
<path d="M141.126 138.294C148.076 138.361 150.328 137.584 156.76 135.398C151.705 146.139 143.743 139.522 141.768 141.726C132.665 151.887 127.82 143.609 120.74 146.343C110.242 150.405 109.409 151.282 98.2255 145.886L97.7255 145.639C83.1661 151.529 86.0977 139.3 72.8998 142.325C68.4258 143.349 65.5547 139.639 64.0469 135.923C70.8421 139.25 70.9155 137.547 77.0602 139.176C86.3137 141.639 95.2506 143.213 104.675 144.504C111.76 145.479 115.68 145.535 122.166 142.794C131.035 140.917 131.659 145.3 141.126 138.294Z" fill="#F3DECF"/>
<path d="M96.6094 120.021C96.6958 119.632 96.7822 119.243 96.8809 118.86C97.5289 116.385 98.7696 114.008 101.658 114.891C102.46 116.934 102.257 116.181 101.93 118.552C99.5842 119.916 99.4237 120.496 96.6094 120.021Z" fill="#EBBD64"/>
<path d="M96.6053 120.02C99.4197 120.495 99.5802 119.915 101.925 118.551L102.376 119.236C100.679 120.798 100.543 121.113 98.389 121.551C97.3398 121.292 96.8275 121.273 95.9141 120.73L96.6053 120.02Z" fill="#584D38"/>
<path d="M109.219 76.0036C114.756 75.761 117.946 75.8412 123.001 78.4777C128.926 81.6247 133.321 87.0409 135.172 93.4868C137.246 100.575 136.228 105.625 132.833 111.847C126.525 110.915 123.47 110.415 118.693 115.168L117.372 114.656C112.386 112.755 109.59 112.878 104.763 114.674C99.8628 112.248 97.03 111.427 91.895 110.008C87.2229 101.353 87.7907 95.2572 93.117 86.5693C96.6967 80.7309 102.56 77.3308 109.219 76.0036Z" fill="#F6C758"/>
<path d="M101.385 98.4414C101.749 99.0464 102.342 99.4785 103.033 99.6328L101.268 100.602C101.379 102.923 100.811 103.806 99.8793 105.88C98.04 107.213 98.9226 106.966 96.5403 106.738C94.6887 105.423 94.522 105.213 93.5469 103.158C93.6395 100.67 93.3062 101.571 94.664 99.6699C96.5402 98.8921 96.8365 98.7316 98.8238 99.034L101.385 98.4414Z" fill="#EA9F58"/>
<path d="M101.386 98.4414C101.75 99.0464 102.342 99.4785 103.033 99.6328L101.268 100.602C100.472 100.225 99.571 99.5402 98.8242 99.034L101.386 98.4414Z" fill="#EBBD64"/>
<path d="M126.72 98.2356C128.929 98.285 130.701 100.081 130.713 102.291C130.732 104.501 128.985 106.322 126.782 106.409C125.288 106.464 123.887 105.705 123.122 104.427C122.356 103.149 122.344 101.557 123.091 100.267C123.844 98.9764 125.232 98.1986 126.72 98.2356Z" fill="#EA9F58"/>
<path d="M106.414 101.02C112.067 102.606 111.364 101.094 116.394 101.871L117.017 102.946L116.129 105.328C110.29 109.026 108.766 106.464 106.414 101.02Z" fill="#45311F"/>
<path d="M108.582 103.261C110.847 103.082 113.248 102.588 115.192 103.514L115.18 104.891L112.427 105.903C110.106 105.329 110.415 105.076 108.582 103.261Z" fill="#EA9F58"/>
<path d="M101.385 98.4392C100.767 97.3966 100.965 96.0657 101.86 95.2496C102.755 94.4335 104.094 94.3576 105.075 95.0663C106.057 95.7755 106.402 97.0756 105.909 98.1799C105.415 99.2849 104.211 99.8899 103.033 99.6306C102.341 99.4763 101.749 99.0442 101.385 98.4392Z" fill="#020202"/>
<path d="M120.042 94.9451C121.282 94.5476 122.615 95.1939 123.078 96.4143C123.535 97.6323 122.961 99.0027 121.763 99.5212C120.936 99.8854 119.974 99.762 119.264 99.2002C118.554 98.6385 118.215 97.731 118.375 96.8403C118.536 95.9495 119.177 95.2211 120.042 94.9451Z" fill="#16120E"/>
<path d="M130.97 73.2891C131.915 73.5952 131.52 73.4804 132.328 74.3903C132.47 77.0071 133.019 80.8411 131.754 82.9387L130.791 83.0968L128.68 80.9177C127.619 79.7652 124.632 77.9985 123.188 77.0688C125.669 75.7774 128.434 74.5119 130.97 73.2891Z" fill="#EBBD64"/>
<path d="M88.7386 89.6172L89.0164 89.9431C89.0719 92.2704 88.5411 97.4347 86.6525 98.8909L84.7269 97.368C83.1407 95.9044 81.4188 94.0463 79.8906 92.4827C82.9803 91.2512 85.5292 90.5333 88.7386 89.6172Z" fill="#EBBD64"/>
<path d="M111.549 66.3359C113.777 67.4613 116.572 71.7608 116.147 74.3609L114.27 74.6177C111.388 74.7825 109.678 75.5732 108.469 72.7596C109.055 70.2972 110.277 68.5354 111.549 66.3359Z" fill="#EBBD64"/>
<path d="M92.1094 74.1875C95.1151 74.8616 98.0591 76.0795 100.948 77.1796L97.0284 80.2908L93.1092 84.6255L92.1094 74.1875Z" fill="#EBBD64"/>
<path d="M135.633 90.4375C138.281 91.1141 141.823 91.5122 143.588 93.0814C143.329 95.2339 142.792 95.2012 141.132 97.0488L137.867 100.484C137.194 97.1556 136.386 93.7543 135.633 90.4375Z" fill="#EBBD64"/>
<path d="M123.049 112.477C126.382 113.933 127.468 117.563 124.814 120.335C123.105 118.946 121.636 118.014 120.648 116.082C120.982 113.859 121.185 114.267 123.049 112.477Z" fill="#EBBD64"/>
<path d="M137.227 105.887C138.832 107.362 140.708 109.615 140.93 111.831L139.887 113.072C137.585 112.393 136.227 112.449 135.055 110.837C135.684 108.837 136.295 107.732 137.227 105.887Z" fill="#EBBD64"/>
<path d="M87.2716 106.445C89.3762 108.149 90.6044 108.729 90.2033 111.421L88.1542 112.729C85.5929 112.841 86.136 113.223 84.5869 111.982C84.5437 109.853 85.9941 108.31 87.2716 106.445Z" fill="#EBBD64"/>
</svg>
