<svg width="220" height="220" viewBox="0 0 220 220" fill="none" xmlns="http://www.w3.org/2000/svg">
<path d="M146.308 63.8091C154.053 56.5892 161.41 46.8975 170.267 41.0875C174.958 38.0121 180.988 39.3541 181.697 45.7567C184.746 52.1427 178.488 56.5663 174.452 60.9189C170.718 64.9443 166.619 68.9722 162.694 72.81C161.83 73.944 160.577 75.4626 159.886 76.6515C168.045 85.7351 171.396 100.664 171.989 112.652C172.896 129.436 165.527 146.332 154.436 158.592C114.368 202.877 38.4048 175.82 37.4976 114.862C37.3803 97.4157 44.2064 80.638 56.4699 68.2278C68.8754 55.4441 85.9283 48.2272 103.74 48.2229C119.429 48.0914 134.896 52.6372 146.308 63.8091Z" fill="#FDF7EE"/>
<path d="M146.309 63.8091C154.054 56.5892 161.411 46.8975 170.268 41.0875C174.959 38.0121 180.988 39.3541 181.698 45.7567C184.747 52.1427 178.489 56.5663 174.452 60.9189C170.718 64.9443 166.62 68.9722 162.695 72.81C161.831 73.944 160.578 75.4626 159.887 76.6515C156.826 80.0164 149.129 89.4833 144.408 90.255C142.353 90.5908 137.427 88.2234 135.545 86.2419C131.397 81.8844 120.77 73.5508 119.93 67.3722C119.745 64.7184 121.183 61.6967 122.985 59.9146C130.842 52.1477 137.915 62.3949 142.803 68.1889C144.118 66.8129 145.167 65.3308 146.309 63.8091Z" fill="#2D2D2E"/>
<path d="M142.691 72.9954C151.048 66.4606 162.954 49.1854 172.934 44.963C174.217 44.697 175.649 44.6754 176.711 45.3983C181.438 48.6249 177.501 52.9824 174.964 56.0325C171.57 59.053 164.527 66.2174 161.466 69.7459C158.757 72.749 147.796 85.5525 144.833 86.5865C140.445 88.1162 120.522 70.2465 124.855 62.7574C131.341 57.0566 138.309 68.1903 142.691 72.9954Z" fill="#79B071"/>
<path d="M94.4312 85.4095C95.968 82.257 97.9306 77.3766 100.473 75.3105C105.405 73.837 107.411 81.3249 109.157 85.1923C111.046 85.6639 112.688 86.2873 114.521 86.9392C117.767 85.0712 123.019 81.8996 126.778 82.336C131.475 86.0021 121.371 100.149 135.073 101.558C136.641 101.719 142.455 103.848 144.035 104.447C137.739 114.873 126.352 121.101 147.102 128.595C146.861 134.398 147.676 139.503 147.46 145.127C147.269 150.25 141.856 155.991 137.066 157.658L138.795 159.757C137.313 169.455 82.1306 167.325 73.7307 165.911C71.9655 165.615 68.534 163.8 67.3922 162.306L67.5342 161.461C70.4596 159.825 78.625 158.849 82.0442 158.757C85.3462 156.485 88.0927 154.534 89.2777 150.497C87.7409 147.065 84.2846 148.571 81.3159 147.911C80.2235 147.664 79.4891 140.75 78.8719 139.59C78.0881 138.108 76.724 136.781 75.5144 135.534C71.7186 135.182 65.3864 135.096 62.6028 132.577C61.7758 127.058 70.4288 122.959 69.8486 118.225C69.5153 115.459 61.5166 110.336 61.3438 106.514C64.3248 101.675 71.7557 103.582 75.3354 99.7137C78.7855 95.9882 72.4716 86.8874 76.4216 82.9163C79.8964 82.5249 85.8399 85.8595 89.1851 87.4689L94.4312 85.4095Z" fill="#16120E"/>
<path d="M82.0466 158.756C83.7809 163.799 88.9467 164.07 93.6744 163.249C98.4514 162.416 96.6121 158.935 98.2107 155.688C105.247 158.058 107.567 162.114 116.986 164.422L117.436 164.527C123.719 162.126 130.669 159.867 137.069 157.657L138.797 159.756C137.316 169.453 82.1329 167.324 73.733 165.91C71.9678 165.614 68.5363 163.799 67.3945 162.305L67.5365 161.459C70.4619 159.823 78.6273 158.848 82.0466 158.756Z" fill="#F3DECF"/>
<path d="M82.6281 138.996L81.5789 139.205C74.1233 133.199 70.6547 122.754 71.8952 113.445C75.6415 85.3335 110.648 76.0913 127.356 99.287C133.497 107.809 133.916 113.705 132.33 123.686L127.189 121.668C124.202 121.699 123.597 121.902 120.764 122.686C114.734 124.859 98.2244 128.131 96.2124 130.878L96.2001 131.699C96.1754 133.736 96.4099 134.81 95.194 136.323C92.034 138.002 89.9295 136.421 86.8188 136.786C85.6832 137.329 83.5415 138.249 82.6281 138.996Z" fill="#F6C758"/>
<path d="M120.761 122.688C119.107 120.281 118.243 119.065 119.187 116.182C124.032 110.762 127.198 115.984 127.186 121.67C124.199 121.701 123.594 121.904 120.761 122.688Z" fill="#EA9F58"/>
<path d="M80.348 115.285C82.6378 114.026 85.52 114.878 86.7544 117.18C87.995 119.483 87.1247 122.353 84.8103 123.582C82.5267 124.792 79.6876 123.928 78.4594 121.65C77.2373 119.366 78.0768 116.526 80.348 115.285Z" fill="#EA9F58"/>
<path d="M112.396 109.137C114.068 108.088 116.272 108.582 117.346 110.236C118.413 111.89 117.963 114.1 116.327 115.199C115.241 115.928 113.846 116.014 112.686 115.428C111.519 114.841 110.76 113.668 110.699 112.366C110.643 111.063 111.291 109.829 112.396 109.137Z" fill="#16120E"/>
<path d="M90.3448 109.149C92.1964 108.779 93.9986 109.976 94.3689 111.822C94.7392 113.674 93.5418 115.47 91.6964 115.841C89.8449 116.211 88.0489 115.014 87.6786 113.168C87.3021 111.322 88.4994 109.52 90.3448 109.149Z" fill="#281E18"/>
<path d="M96.0195 118.348C103.185 121.44 101.296 119.626 107.826 118.94L108.604 120.465C103.525 123.768 99.3462 123.897 96.0195 118.348Z" fill="#38231E"/>
<path d="M101.403 129.758C103.989 128.992 105.915 128.721 108.569 128.301C113.568 130.659 118.969 132.264 123.431 134.437L124.943 135.122C125.338 138.35 125.529 141.246 125.721 144.499C128.202 143.511 132.102 141.665 134.583 141.807C137.855 143.604 137.25 146.69 137.355 150.184C138.503 152.048 138.731 152.085 140.638 153.302C139.385 155.153 122.116 160.123 118.413 161.765C117.703 161.802 116.994 161.647 116.278 161.543C110.741 159.438 101.255 154.863 96.4844 151.592C109.131 142.258 98.4409 139.931 97.1942 133.159C97.6756 131.085 97.2065 131.733 98.8174 130.721L101.403 129.758Z" fill="#D7AC7E"/>
<path d="M123.432 134.438L124.944 135.123C125.339 138.351 125.53 141.246 125.722 144.499C128.203 143.512 132.103 141.666 134.584 141.808C137.856 143.604 137.251 146.691 137.356 150.185C138.504 152.049 138.732 152.086 140.639 153.302C139.386 155.154 122.117 160.123 118.414 161.765C118.519 155.296 118.204 141.32 118.939 135.746C120.494 135.339 121.895 134.913 123.432 134.438Z" fill="#C39264"/>
<path d="M101.402 129.758C103.988 128.992 105.914 128.721 108.568 128.301C113.567 130.659 118.967 132.264 123.43 134.437C121.893 134.912 120.492 135.338 118.937 135.745C116.239 135.807 102.6 131.85 101.402 129.758Z" fill="#D7AC7E"/>
<path d="M98.8125 130.721L101.399 129.758C102.596 131.85 116.236 135.807 118.933 135.746C118.198 141.32 118.513 155.296 118.408 161.765C117.698 161.802 116.989 161.648 116.273 161.543C118.272 159.944 117.347 140.721 117.31 137.048C111.088 135.091 104.923 132.98 98.8125 130.721Z" fill="#AC815C"/>
<path d="M114.917 126.212L124.984 122.188C128.458 123.404 140.703 127.206 142.685 129.478L144.555 130.015C145.752 132.552 146.801 136.034 144.24 137.935C139.642 138.367 139.864 139.441 138.414 143.762C136.26 142.682 137.043 141.719 135.254 139.781L133.939 140.287L126.817 142.639L126.57 135.577L126.057 134.898L125.311 134.379L124.94 135.12L123.428 134.435C118.966 132.262 113.566 130.657 108.566 128.299L109.208 127.712L114.917 126.212Z" fill="#C39264"/>
<path d="M140.729 130.4L142.686 129.48L144.556 130.018C145.753 132.555 146.802 136.036 144.241 137.937C139.643 138.37 139.865 139.444 138.415 143.765C136.261 142.685 137.045 141.722 135.255 139.783L133.94 140.289L126.818 142.641L126.571 135.579L126.059 134.9C128.595 134.16 131.471 133.129 134.008 132.277C135.724 130.727 138.47 130.122 140.729 130.4Z" fill="#C39264"/>
<path d="M134.008 132.274C135.724 130.725 138.47 130.12 140.729 130.397C138.896 133.274 131.91 131.021 135.255 139.78L133.94 140.287L126.818 142.639L126.571 135.577L126.059 134.898C128.595 134.157 131.471 133.126 134.008 132.274Z" fill="#ECD1B9"/>
<path d="M134.008 132.274C135.724 130.725 138.47 130.12 140.729 130.397C138.896 133.274 131.91 131.021 135.255 139.78L133.94 140.287L133.847 133.058L126.571 135.577L126.059 134.898C128.595 134.157 131.471 133.126 134.008 132.274Z" fill="#AC815C"/>
<path d="M109.208 127.715L114.917 126.215C118.546 127.326 131.581 130.95 134.007 132.277C131.47 133.129 128.594 134.16 126.057 134.9L125.311 134.382L124.94 135.123L123.428 134.437C118.966 132.264 113.566 130.659 108.566 128.301L109.208 127.715Z" fill="#ECD1B9"/>
<path d="M108.566 128.301L109.208 127.715C113.14 129.184 122.182 132.363 125.311 134.382L124.94 135.122L123.428 134.437C118.966 132.264 113.566 130.659 108.566 128.301Z" fill="#795A3C"/>
<path d="M86.8157 136.789C93.9689 141.011 97.7029 134.32 100.807 143.018C101.394 144.647 100.82 145.419 100.128 146.771C94.6663 150.555 84.1433 144.894 82.625 138.999C83.5384 138.252 85.6801 137.332 86.8157 136.789Z" fill="#EBBD64"/>
<path d="M90.1999 148.258C95.8163 150.233 98.3282 155.388 94.9214 160.573C93.1994 162.024 92.002 161.801 89.6937 161.9C87.4842 161.666 85.9289 161.69 84.6328 159.863C85.3179 157.863 87.367 156.659 89.1383 155.27L90.1999 148.258Z" fill="#EBBD64"/>
<path d="M142.116 138.527C149.621 140.626 146.189 147.491 141.844 151.17C140.838 151.213 140.437 151.071 139.462 150.892L138.733 149.491C138.616 145.849 140.029 141.503 142.116 138.527Z" fill="#EBBD64"/>
<path d="M76.7149 83.6953C80.3255 84.8984 84.0841 86.4355 87.6515 87.8183L82.5535 91.3233L78.1468 96.3222C76.9803 91.8412 76.7088 88.2812 76.7149 83.6953Z" fill="#F6C758"/>
<path d="M71.5399 103.195C72.3175 103.226 71.9287 103.097 72.6261 103.782C72.1447 106.424 71.3979 112.825 69.0279 114.035L67.2442 112.449C65.263 110.597 62.8499 109.103 63.5781 106.251C65.4729 104.566 68.9662 103.905 71.5399 103.195Z" fill="#EBBD64"/>
<path d="M123.46 83.8954L125.583 83.8867L126.354 84.7892C126.916 88.4887 127.595 90.4999 125.509 93.6555L124.571 93.7963L122.472 91.7789C120.781 90.474 118.035 88.7196 116.195 87.4609C118.01 86.3418 121.435 84.8479 123.46 83.8954Z" fill="#EBBD64"/>
<path d="M69.5883 122.609C70.8473 123.795 74.0937 131.894 73.1926 133.924L70.7486 133.857L63.6016 132.06C65.7185 128.091 66.9529 126.245 69.5883 122.609Z" fill="#EBBD64"/>
<path d="M131.055 102.285C135.437 102.995 138.029 103.717 142.25 104.927L138.677 109.643L134.85 114.119C133.733 108.896 133.215 107.211 131.055 102.285Z" fill="#EBBD64"/>
<path d="M101.593 75.0273C103.58 76.628 107.752 82.3238 105.5 84.8529L102.309 84.6134L96.3281 85.0585C98.1056 81.0522 99.4079 78.7429 101.593 75.0273Z" fill="#EBBD64"/>
<path d="M81.6077 141.898C83.305 143.516 84.8171 144.72 85.9466 146.769C84.3604 147.281 84.237 147.38 82.6261 147.176C81.2436 145.417 81.7003 144.559 81.6077 141.898Z" fill="#D7AC7E"/>
</svg>
