<svg width="220" height="220" viewBox="0 0 220 220" fill="none" xmlns="http://www.w3.org/2000/svg">
<path d="M147.726 66.8756C155.447 58.9495 162.644 50.4714 170.741 42.9731C177.938 36.3081 187.455 40.8446 185.659 50.8721C183.992 55.9235 167.124 71.4085 162.644 76.6426C161.625 77.7815 160.125 79.2896 159.41 80.5563C169.939 98.1771 171.932 117.429 164.736 136.67C158.255 153.492 145.399 167.072 128.958 174.462C112.466 181.709 93.7655 182.073 77.0088 175.462C60.2275 168.893 46.7358 155.942 39.4839 139.448C19.2216 93.1017 59.4252 42.1125 108.652 48.1652C119.157 49.4566 126.464 52.9678 136.068 56.7815C140.666 58.7575 144.301 63.2125 147.726 66.8756Z" fill="#FDF7EE"/>
<path d="M147.726 66.8756C155.447 58.9495 162.644 50.4714 170.741 42.9731C177.937 36.3081 187.454 40.8446 185.658 50.8721C183.992 55.9235 167.124 71.4085 162.644 76.6426C161.625 77.7815 160.125 79.2896 159.409 80.5563C145.14 96.2493 142.924 89.2973 129.581 75.8308C120.953 67.1213 123.693 58.9229 136.067 56.7815C140.666 58.7575 144.301 63.2125 147.726 66.8756Z" fill="#E47166"/>
<path d="M147.726 66.8756C155.447 58.9495 162.644 50.4714 170.741 42.9731C177.937 36.3081 187.454 40.8446 185.658 50.8721C182.06 52.8215 182.338 55.829 179.277 55.5845C186.905 45.5867 177.401 43.1515 175.783 44.2484C167.168 50.0727 154.305 64.4002 147.14 72.5807C142.789 68.2399 130.531 52.1036 128.081 67.4133C127.729 69.6233 143.011 84.62 145.461 86.5509C145.899 86.8941 146.344 87.2232 146.8 87.5367C151.874 84.3922 156.743 78.6229 160.946 74.1567C162.563 75.2209 162.063 74.5925 162.644 76.6426C161.625 77.7815 160.125 79.2896 159.409 80.5563C145.14 96.2493 142.924 89.2973 129.581 75.8308C120.953 67.1213 123.693 58.9229 136.067 56.7815C140.666 58.7575 144.301 63.2125 147.726 66.8756Z" fill="#38231E"/>
<path d="M179.276 55.5836C182.337 55.828 182.059 52.8205 185.658 50.8711C183.991 55.9225 167.123 71.4075 162.643 76.6416C162.062 74.5915 162.562 75.2199 160.945 74.1557C166.012 68.7475 173.684 60.2639 179.276 55.5836Z" fill="#281E18"/>
<path d="M95.0376 78.0353C97.0434 73.9618 99.5616 68.7277 102.746 65.5195C106.054 70.0752 107.295 72.9877 109.406 78.1878C119.7 81.9707 121.003 75.1056 126.965 76.2396C130.612 79.5749 124.348 88.6245 128.039 92.737C131.482 96.5723 139.302 94.6488 140.895 99.1409C139.938 102.7 134.427 107.231 131.692 110.435C134.019 114.114 138.16 119.954 139.592 123.744C134.766 125.368 132.353 125.701 127.236 125.713C123.576 132.213 124.021 133.436 123.965 140.843C119.947 140.035 118.009 139.214 114.195 137.701C114.164 149.035 114.88 143.911 120.7 150.56C123.687 149.621 131.501 150.615 132.365 154.547C127.656 161.085 73.689 160.677 69.8254 153.356L70.4673 152.492C74.4729 150.214 79.577 150.01 84.0948 149.782C86.1562 148.35 87.44 147.411 89.7359 146.319L90.0568 137.399C86.9339 138.158 84.5454 138.979 81.3669 138.516L80.0337 137.683C79.1326 133.448 82.0272 130.689 76.8428 127.071C73.3804 124.652 68.4923 125.189 65.6101 123.022C64.9929 120.108 70.9241 112.744 72.9793 110.225C69.0663 105.811 65.6348 102.342 63.166 96.9167C64.7213 96.4291 69.196 94.8951 70.5106 94.7389C83.4283 93.1994 73.2014 79.8354 78.3179 75.584C81.6014 74.9606 86.3846 78.1409 89.2668 79.9589L95.0376 78.0353Z" fill="#16120E"/>
<path d="M84.0936 149.782C84.5565 151.103 84.9515 153.319 86.5253 153.738C104.14 158.455 96.8323 146.244 100.61 139.201L101.745 138.59C106.22 140.991 105.035 148.442 105.837 153.368C110.583 154.047 118.428 156.066 120.699 150.559C123.686 149.621 131.5 150.615 132.364 154.547C127.655 161.084 73.6878 160.677 69.8242 153.356L70.4661 152.491C74.4717 150.214 79.5758 150.01 84.0936 149.782Z" fill="#F3DECF"/>
<path d="M82.65 128.326C77.947 128.345 76.3917 121.968 75.2746 118.06C64.1529 79.282 117.848 61.0673 129.618 101.077C131.544 107.616 129.593 127.542 121.878 129.209C119.385 126.74 119.021 126.443 115.824 125.023C115.386 122.869 115.077 121.455 114.404 119.313C112.633 117.455 108.214 116.054 105.609 115.036C105.005 113.548 106.214 113.69 107.325 111.005C105.344 109.542 99.1598 109.869 96.4194 109.881L96.1973 110.696L98.6598 113.554L98.4438 114.554C96.4009 116.548 94.4568 116.122 93.6976 116.696C88.2787 120.758 90.3339 123.511 83.2671 127.696L82.65 128.326Z" fill="#F6C758"/>
<path d="M120.182 105.752C122.613 105.4 124.897 106.999 125.397 109.4C125.891 111.807 124.434 114.184 122.064 114.82C120.398 115.27 118.626 114.758 117.454 113.499C116.281 112.233 115.911 110.425 116.478 108.801C117.052 107.178 118.478 106.005 120.182 105.752Z" fill="#EA9F58"/>
<path d="M82.1181 106.946C84.2227 106.144 86.5804 107.187 87.4074 109.286C88.2344 111.378 87.216 113.749 85.13 114.601C83.7598 115.156 82.1983 114.934 81.0318 114.021C79.8715 113.101 79.2914 111.632 79.5197 110.169C79.7419 108.706 80.7356 107.471 82.1181 106.946Z" fill="#EA9F58"/>
<path d="M112.175 100.205C113.891 99.7588 115.668 100.69 116.279 102.356C116.89 104.022 116.131 105.881 114.533 106.652C113.348 107.22 111.947 107.066 110.916 106.257C109.885 105.448 109.398 104.127 109.663 102.843C109.935 101.559 110.904 100.535 112.175 100.205Z" fill="#16120E"/>
<path d="M90.5856 100.153C92.3631 99.7102 94.1776 100.746 94.7022 102.504C95.2268 104.263 94.2764 106.122 92.5482 106.726C91.3509 107.146 90.024 106.875 89.092 106.017C88.1601 105.165 87.7712 103.862 88.086 102.64C88.3946 101.413 89.3574 100.458 90.5856 100.153Z" fill="#38291E"/>
<path d="M83.2676 127.695C90.4331 128.343 91.6243 119.034 98.4381 117.293C100.049 118.324 100.604 120.139 101.08 122.102C103.166 130.787 95.4632 141.065 86.4708 134.67C85.2056 133.769 83.3848 129.843 82.6504 128.324L83.2676 127.695Z" fill="#EBBD64"/>
<path d="M105.905 116.59C108.386 118.744 108.917 119.127 112.182 119.54C114.583 121.72 113.367 125.028 115.169 126.59C117.224 128.362 119.292 127.639 120.211 130.8C119.681 133.01 118.921 133.671 117.477 135.35C105.8 140.64 99.8627 126.454 105.905 116.59Z" fill="#F6C758"/>
<path d="M110.941 137.93L111.965 138.288C112.879 140.405 112.663 144.208 112.675 146.665C114.934 147.763 117.008 148.356 118.322 150.381C117.897 152.245 118.217 151.584 116.156 152.936C107.676 152.301 103.751 149.307 107.114 139.485C107.429 138.566 109.929 138.189 110.941 137.93Z" fill="#EBBD64"/>
<path d="M91.9019 137.484L97.864 139.33C97.7158 143.336 98.512 147.948 96.9073 151.275C94.7471 152.954 95.1237 152.466 92.1118 152.898C89.3098 152.935 88.2359 153.244 86.3164 151.466L86.5324 150.151C88.063 148.232 89.2912 148.071 91.5933 147.349L91.9019 137.484Z" fill="#EBBD64"/>
<path d="M77.6387 76.3594C81.9158 77.0298 84.5635 78.5989 88.3407 80.5428L84.5635 83.4744C82.7551 85.0072 80.811 86.8689 79.0397 88.4881C78.188 83.625 77.9102 81.3163 77.6387 76.3594Z" fill="#EBBD64"/>
<path d="M129.631 95.5547C133.957 96.4671 136.297 97.3813 140.253 99.2357L135.766 104.152L132.019 108.455C131.674 102.899 131.081 100.814 129.631 95.5547Z" fill="#EBBD64"/>
<path d="M125.63 77.5312L126.222 78.1091C126.698 80.8203 125.945 85.8222 125.642 88.7371C124.513 87.8038 122.988 86.205 121.896 85.1377C120.168 83.6327 118.329 82.1845 116.545 80.7412C120.23 79.0436 121.68 78.5807 125.63 77.5312Z" fill="#EBBD64"/>
<path d="M102.109 67.8477C104.035 69.3378 107.324 74.8417 106.652 77.393L104.652 77.3979C102.023 77.5276 99.9366 78.1585 98.1406 76.0979C98.1653 73.7713 100.782 70.0638 102.109 67.8477Z" fill="#EBBD64"/>
<path d="M73.0841 95.418L73.942 95.4217L74.3371 96.0007C73.8186 98.2489 72.6645 104.344 71.5659 105.961L70.6895 105.374C68.1775 102.64 66.9431 100.814 64.8262 97.7279L73.0841 95.418Z" fill="#EBBD64"/>
<path d="M131.384 114.164C133.383 115.337 137.494 120.51 136.759 123.22L135.383 123.627C133.007 124.029 130.68 124.134 128.279 124.294C129.575 120.825 130.409 117.707 131.384 114.164Z" fill="#EBBD64"/>
<path d="M71.5656 113.625C72.6642 114.65 74.3923 121.156 75.0033 123.144L74.5713 123.761L70.7077 123.78C68.2513 123.101 68.5352 123.57 67.0293 121.989C67.1651 119.483 70.0041 116.045 71.5656 113.625Z" fill="#EBBD64"/>
<path d="M102.523 130.398C104.319 133.497 106.683 135.01 107.374 137.207C105.646 138.343 103.924 137.831 101.461 137.769C99.4491 137.689 98.7455 137.8 96.9434 137.022L97.2272 135.991C99.8565 133.769 100.418 133.133 102.523 130.398Z" fill="#EBBD64"/>
<path d="M122.136 131.055C122.501 133.536 123.068 135.567 122.315 137.907C120.735 139.32 121.13 138.851 118.291 138.826L117.668 137.876C117.717 136.555 120.816 133.191 122.136 131.055Z" fill="#EBBD64"/>
<path d="M81.002 130.215C82.9338 131.165 84.8038 135.388 85.8777 137.4C84.1434 137.413 84.1557 137.413 82.4831 136.95C80.9587 135.085 81.1686 132.758 81.002 130.215Z" fill="#F6C758"/>
<path d="M97.8574 111.628C100.629 111.313 103.406 110.566 105.412 112.708C104.998 112.813 104.585 112.912 104.165 112.998C101.221 113.615 100.345 113.233 97.8574 111.628Z" fill="#D7AC7E"/>
<path d="M97.7832 115.688L104.288 115.941L104.541 117.249C103.56 118.095 103.603 118.027 102.363 118.435C100.511 117.521 99.4805 116.823 97.7832 115.688Z" fill="#D7AC7E"/>
<path d="M57.5299 76.5742C59.6716 78.0341 61.0787 80.2441 62.6773 82.3423L58.9186 86.3424C56.672 85.5578 54.9316 82.6374 53.5059 80.6676L57.5299 76.5742Z" fill="#BED0D9"/>
<path d="M57.5734 129.055C59.5052 130.104 60.5606 131.746 61.9678 133.487L57.7771 138.185C55.4071 137.506 54.3702 135.901 52.7285 134.024L57.5734 129.055Z" fill="#B4C9B0"/>
<path d="M137.326 135.41C138.943 136.75 140.258 138.429 140.456 140.54C139.98 142.787 139.129 143.417 137.573 145.034C134.919 142.904 133.475 142.176 133.426 138.595C134.95 136.182 134.555 136.867 137.326 135.41Z" fill="#BED0D9"/>
<path d="M54.438 108.199C55.6106 109.317 57.8078 111.977 58.9619 113.298L54.2466 117.36C52.895 116.323 51.1422 114.477 49.877 113.23L54.438 108.199Z" fill="#E3A98D"/>
<path d="M148.509 120.613L153.076 124.897L148.83 129.842C147.423 128.657 145.67 126.965 144.281 125.7C145.608 124.021 147.127 122.268 148.509 120.613Z" fill="#E3A98D"/>
</svg>
