<svg width="220" height="220" viewBox="0 0 220 220" fill="none" xmlns="http://www.w3.org/2000/svg">
<path d="M85.5829 70.3985C98.5389 56.3308 117.088 52.9029 131.816 66.5848C133.101 67.7916 134.368 69.017 135.617 70.2596C155.906 72.1368 164.996 80.234 164.147 101.352C180.388 104.101 187.705 113.693 187.208 129.962C185.646 143.555 175.592 150.623 162.708 152.605C156.258 153.598 153.077 152.568 147.057 150.74C139.341 159.438 128.568 161.71 117.635 158.216C99.4418 164.364 87.3215 164.056 72.4738 150.876C47.9438 158.105 24.0096 140.351 35.933 114.763C39.3965 107.746 47.0875 102.935 54.7939 102.201C53.9131 84.3674 62.6537 71.2942 81.5489 70.4158C82.8932 70.3652 84.2387 70.3596 85.5829 70.3985Z" fill="#FDF7EE"/>
<path d="M72.4738 150.878C47.9438 158.107 24.0096 140.353 35.933 114.766C35.5576 116.785 34.4931 120.279 35.17 121.766L36.1179 119.01L36.4882 119.915C35.9197 123.05 35.1479 126.476 35.2807 129.625C47.1574 142.02 54.6297 149.057 72.6016 140.89C85.1687 153.792 99.6659 156.86 116.363 149.773C129.848 152.187 135.528 151.138 146.367 142.273C173.916 151.434 175.842 133.174 183.837 132.649L184.097 133.569L184.597 134.038L185.3 133.841C185.845 131.791 185.805 131.433 187.208 129.964C185.646 143.557 175.592 150.625 162.708 152.607C156.258 153.601 153.077 152.57 147.057 150.743C139.341 159.44 128.568 161.712 117.635 158.218C99.4418 164.366 87.3215 164.058 72.4738 150.878Z" fill="#E0D2CB"/>
<path d="M72.4738 150.878C47.9438 158.107 24.0096 140.353 35.933 114.766C35.5576 116.785 34.4931 120.279 35.17 121.766L36.1179 119.01L36.4882 119.915C35.9197 123.05 35.1479 126.476 35.2807 129.625C36.6438 136.983 38.9629 141.897 45.4244 146.292C51.5691 150.403 59.0864 151.915 66.3421 150.508C68.7911 150.033 70.4254 149.477 72.7262 148.576C84.2479 160.434 102.57 164.41 117.18 155.835C128.592 160.422 138.24 157.144 146.445 148.385C162.647 154.588 177.228 150.082 184.097 133.569L184.597 134.038L185.3 133.841C185.845 131.791 185.805 131.433 187.208 129.964C185.646 143.557 175.592 150.625 162.708 152.607C156.258 153.601 153.077 152.57 147.057 150.743C139.341 159.44 128.568 161.712 117.635 158.218C99.4418 164.366 87.3215 164.058 72.4738 150.878Z" fill="#16120E"/>
<path d="M85.5824 70.3985C98.5384 56.3308 117.088 52.9029 131.816 66.5848C133.1 67.7916 134.367 69.017 135.617 70.2596C155.905 72.1368 164.995 80.234 164.147 101.352C180.388 104.101 187.704 113.693 187.207 129.962C185.804 131.431 185.845 131.789 185.3 133.839L184.597 134.036L184.097 133.567L183.836 132.647C187.179 116.294 175.549 105.796 159.792 105.5C164.598 86.2082 153.674 73.9671 134.097 74.9135C120.292 57.7611 100.922 57.8092 86.7248 74.4974C66.4194 73.5566 54.3935 84.7378 58.2651 105.423C44.5546 107.84 44.0618 109.739 36.4877 119.912L36.1174 119.008L35.1695 121.764C34.4926 120.277 35.5571 116.783 35.9325 114.763C39.396 107.746 47.0871 102.935 54.7934 102.201C53.9127 84.3674 62.6533 71.2942 81.5485 70.4158C82.8927 70.3652 84.2382 70.3596 85.5824 70.3985Z" fill="#2D2D2E"/>
<path d="M137.864 108.802C148.494 108.538 150.829 117.916 139.256 122.174C128.74 120.808 126.825 111.589 137.864 108.802Z" fill="#F3DECF"/>
<path d="M76.612 109.348C86.5185 109.383 92.8058 116.345 82.5043 122.048C72.072 122.69 66.2173 114.816 76.612 109.348Z" fill="#F3DECF"/>
<path d="M127.389 101.794C130.135 101.225 132.818 103.001 133.365 105.751C133.912 108.501 132.115 111.17 129.361 111.695C126.638 112.214 124.007 110.441 123.465 107.722C122.924 105.004 124.676 102.357 127.389 101.794Z" fill="#2D2D2E"/>
<path d="M88.6735 101.973C91.3435 101.497 93.9104 103.225 94.4732 105.879C95.0355 108.533 93.3913 111.155 90.7572 111.803C88.9766 112.241 87.0978 111.674 85.8567 110.323C84.6155 108.972 84.2088 107.053 84.7951 105.315C85.3814 103.577 86.8676 102.296 88.6735 101.973Z" fill="#2D2D2E"/>
<path d="M99.9011 113.523C101.864 114.98 103.422 116.638 105.305 117.913C109.768 120.934 115.239 115.553 118.873 114.761C119.942 116.05 119.676 115.425 119.481 117.538C114.277 122.784 103.143 123.71 99.2179 117.295C98.7951 114.702 98.5963 115.704 99.9011 113.523Z" fill="#2D2D2E"/>
</svg>
