<svg width="220" height="220" viewBox="0 0 220 220" fill="none" xmlns="http://www.w3.org/2000/svg">
<path d="M104.841 78.1876C118.356 77.4289 115.633 78.8814 125.696 86.2335C128.285 88.1249 134.076 87.1286 137.459 90.4966C142.412 95.4282 142.934 97.7011 143.348 104.52C147.675 106.656 152.752 109.622 154.106 114.437C156.021 119.455 154.537 131.419 148.389 133.227C142.311 135.018 133.358 138.394 127.494 141.012C125.682 141.82 119.351 139.876 114.833 141.462L114.194 141.697C111.571 142.481 92.3999 141.61 90.3224 140.166C83.542 135.456 82.6508 135.444 73.8911 134.9C72.5734 134.814 67.0211 129.394 65.9522 128.351C63.8179 119.789 65.4331 111.443 74.3249 107.577C75.9525 96.2696 77.7503 92.9034 89.5349 90.7028C90.0268 89.7595 90.5496 88.8329 91.1038 87.9243C94.5576 82.334 98.6162 79.7178 104.841 78.1876Z" fill="#2D2D2E"/>
<path d="M90.3814 94.6971C93.6568 87.5377 98.2641 82.5597 106.571 81.3473C109.984 80.5461 117.813 82.5739 119.749 85.7024C124.891 94.0125 130.065 89.5649 136.592 94.294C140.714 97.2811 140.426 101.285 140.561 105.912C140.686 110.189 146.108 109.803 148.613 111.839C151.55 114.185 152.112 118.191 152.535 121.648C151.661 127.981 150.296 130.531 144.379 133.661C140.846 134.333 140.282 134.463 136.766 133.864C133.418 137.241 130.643 139.982 125.444 139.963C122.937 139.945 120.452 139.494 118.101 138.624C106.918 145.673 106.168 137.087 94.7041 140.167C90.9529 141.173 87.2689 136.976 84.6551 134.389C77.7191 132.722 77.3958 137.198 70.0926 130.383C59.9658 115.388 76.6625 113.234 77.5963 108.513C79.4189 99.2985 76.1614 95.7823 90.3814 94.6971Z" fill="#FDF7EE"/>
<path d="M70.0938 130.383C75.6663 131.154 85.1186 130.735 88.178 133.056C98.1844 140.655 115.2 135.05 124.976 136.624C122.065 137.13 120.727 137.235 118.102 138.624C106.919 145.673 106.17 137.087 94.7053 140.167C90.9541 141.173 87.2701 136.976 84.6563 134.389C77.7203 132.722 77.3969 137.198 70.0938 130.383Z" fill="#E0D2CB"/>
<path d="M124.975 136.624C128.665 135.84 131.036 134.735 134.101 132.648L136.767 133.865C133.419 137.241 130.643 139.982 125.444 139.963C122.938 139.945 120.452 139.494 118.102 138.624C120.726 137.235 122.064 137.13 124.975 136.624Z" fill="#ECD1B9"/>
<path d="M152.536 121.648C151.662 127.982 150.297 130.531 144.38 133.661C143.467 132.877 141.145 132.248 139.906 131.828C146.932 130.025 148.66 127.593 152.536 121.648Z" fill="#E0D2CB"/>
<path d="M134.102 132.65C135.849 131.249 137.84 131.551 139.906 131.829C141.145 132.249 143.467 132.878 144.38 133.662C140.847 134.335 140.283 134.465 136.767 133.866L134.102 132.65Z" fill="#F3DECF"/>
<path d="M113.794 114.391L114.555 116.403C113.033 121.632 106.99 119.959 103.233 118.193L103.109 116.335L103.719 115.705C105.948 116.656 107.315 116.866 109.642 117.341C111.681 117.014 112.336 115.934 113.794 114.391Z" fill="#281E18"/>
<path d="M119.715 106.997C121.339 106.508 123.057 107.4 123.592 109.009C124.127 110.619 123.285 112.363 121.692 112.943C120.62 113.332 119.42 113.11 118.559 112.363C117.7 111.609 117.315 110.455 117.555 109.338C117.795 108.223 118.622 107.326 119.715 106.997Z" fill="#281E18"/>
<path d="M95.7764 107.589C96.8059 107.025 98.065 107.089 99.0315 107.755C99.998 108.421 100.507 109.575 100.346 110.738C100.186 111.901 99.3833 112.876 98.2724 113.253C96.7473 113.771 95.0778 113.043 94.4285 111.567C93.7786 110.091 94.3637 108.365 95.7764 107.589Z" fill="#281E18"/>
</svg>
