<svg width="220" height="220" viewBox="0 0 220 220" fill="none" xmlns="http://www.w3.org/2000/svg">
<path d="M97.6128 76.0882C100.388 74.6623 102.436 72.4357 105.054 70.777C118.417 62.3113 138.741 66.8892 146.446 80.9952C149.797 87.1318 150.024 91.7918 150.076 98.4914C165.321 100.301 175.192 115.791 169.536 130.161C163.928 144.285 153.716 146.748 139.64 144.545C126.988 154.323 131.538 149.711 117.939 151.076C100.337 152.841 97.4369 157.551 81.0735 145.495C74.5084 146.89 70.377 147.248 63.8737 144.754C52.0373 140.211 45.45 127.81 50.6578 115.825C52.8538 110.689 57.0433 106.668 62.2634 104.683C62.2239 102.78 62.2153 100.876 62.2363 98.9723C62.3282 92.89 63.7472 87.512 68.223 83.194C71.2633 79.634 75.8261 76.5685 80.4415 75.5629C85.6487 74.0752 92.5791 73.8554 97.6128 76.0882Z" fill="#FDF7EE"/>
<path d="M62.2634 104.684C62.2239 102.781 62.2153 100.877 62.2363 98.9736C62.3282 92.8913 63.7472 87.5133 68.223 83.1953L69.2136 84.5108C70.356 83.8922 70.3177 83.6719 71.4367 83.7145L71.0997 84.2453C65.5586 92.8808 63.2077 95.0055 65.5586 106.463L65.6722 106.992C54.2468 111.975 50.8214 116.902 51.8336 129.397C55.5682 131.249 60.3397 136.7 65.8481 138.459C71.994 140.422 75.9718 139.842 81.6851 137.342C91.3336 146.676 102.224 150.194 114.685 144.071C115.53 144.212 116.377 144.354 117.224 144.484C127.158 145.99 129.955 143.743 137.635 138.12C148.33 139.57 152.907 139.842 161.308 132.28C163.104 130.663 165.374 128.558 167.581 127.564L167.256 129.459C168.107 129.669 168.777 129.755 169.536 130.163C163.928 144.287 153.716 146.75 139.64 144.546C126.988 154.324 131.538 149.713 117.939 151.077C100.337 152.842 97.4369 157.552 81.0735 145.497C74.5084 146.892 70.377 147.25 63.8737 144.756C52.0373 140.212 45.45 127.811 50.6578 115.826C52.8538 110.691 57.0433 106.669 62.2634 104.684Z" fill="#E0D2CB"/>
<path d="M62.2634 104.684C62.2239 102.781 62.2153 100.877 62.2363 98.9736C62.3282 92.8913 63.7472 87.5133 68.223 83.1953L69.2136 84.5108C70.356 83.8922 70.3177 83.6719 71.4367 83.7145L71.0997 84.2453C65.5586 92.8808 63.2077 95.0055 65.5586 106.463L65.6722 106.992C54.2468 111.975 50.8214 116.902 51.8336 129.397C56.3335 143.62 68.073 146.595 81.5629 143.62C94.9997 154.571 102.048 152.842 117.979 149.015C119.482 148.657 122.863 149.546 124.506 149.669C129.49 150.725 135.324 145.719 138.714 142.299C151.864 146.126 161.892 142.231 167.256 129.459C168.107 129.669 168.777 129.755 169.536 130.163C163.928 144.287 153.716 146.75 139.64 144.546C126.988 154.324 131.538 149.713 117.939 151.077C100.337 152.842 97.4369 157.552 81.0735 145.497C74.5084 146.892 70.377 147.25 63.8737 144.756C52.0373 140.212 45.45 127.811 50.6578 115.826C52.8538 110.691 57.0433 106.669 62.2634 104.684Z" fill="#2D2D2E"/>
<path d="M97.6125 76.0882C100.387 74.6623 102.436 72.4357 105.053 70.777C118.417 62.3113 138.741 66.8892 146.446 80.9952C149.797 87.1318 150.024 91.7918 150.076 98.4914C165.32 100.301 175.192 115.791 169.536 130.161C168.777 129.754 168.106 129.668 167.255 129.458L167.581 127.563C169.208 111.762 162.509 104.043 146.869 101.988C147.128 99.8093 147.252 97.6167 147.243 95.4228C147.186 88.9337 144.5 82.7446 139.799 78.271C134.301 73.1338 126.99 70.3862 119.47 70.6307C110.527 70.8653 104.913 74.1555 98.9203 80.3828C98.4605 80.2421 97.9995 80.1075 97.5372 79.9791C86.7377 76.987 80.7787 78.4247 71.4363 83.7132C70.3174 83.6706 70.3556 83.8909 69.2132 84.5095L68.2227 83.194C71.2629 79.634 75.8258 76.5685 80.4411 75.5629C85.6483 74.0752 92.5787 73.8554 97.6125 76.0882Z" fill="#2D2D2E"/>
<path d="M80.4414 75.5646C85.6486 74.0769 92.579 73.8571 97.6128 76.0899C93.7177 76.3541 84.1902 76.1455 80.4414 75.5646Z" fill="#6B6868"/>
<path d="M97.6576 113.496C106.567 113.512 108.398 115.806 118.712 113.581C121.727 115.455 118.905 120.458 117.622 122.847C109.027 131.002 97.0145 125.884 97.6576 113.496Z" fill="#281E18"/>
<path d="M99.9375 116.574C103.96 116.972 114.443 116.594 116.522 117.433C116.902 119.235 116.511 119.087 115.476 121.217C108.794 126.983 103.496 122.97 99.9375 116.574Z" fill="#DC846D"/>
<path d="M127.264 98.6562C128.091 98.7427 128.868 99.0828 129.675 99.3612L129.869 100.459L127.332 103.342C127.617 105.83 129.584 105.029 130.227 107.807C128.895 109.482 128.519 109.247 126.362 110.105C123.127 109.621 121.277 108.889 120.785 105.684C121.813 102.333 124.519 100.616 127.264 98.6562Z" fill="#2D2D2E"/>
<path d="M91.037 100.297C97.9687 101.048 98.6216 105.637 94.8111 110.643C87.4919 110.543 87.8628 105.17 91.037 100.297Z" fill="#2D2D2E"/>
</svg>
