<svg width="220" height="220" viewBox="0 0 220 220" fill="none" xmlns="http://www.w3.org/2000/svg">
<path d="M97.7452 56.5711C100.086 51.6333 104.498 40.4608 110.314 40.4219C114.742 42.6269 117.907 51.3432 120.058 56.097C121.643 58.0983 128.203 59.5669 131.07 60.428L134.989 58.157C137.636 56.4581 139.473 55.7168 142.372 54.4643C156.632 48.3542 153.121 59.7718 151.769 69.2314C150.617 77.2643 151.763 75.6445 155.696 81.8404C158.004 81.7404 172.096 84.0559 174.275 86.064C175.603 87.2868 175.378 87.3726 175.824 89.014C175.058 93.4642 171.129 97.1365 168.11 100.592C168.206 108.848 168.256 110.747 165.602 118.804C178.573 137.734 164.144 134.899 149.416 135.093C146.842 137.648 144.155 140.415 141.516 142.874C141.764 147.237 142.635 151.636 138.339 154.213C135.078 153.333 134.393 152.909 131.443 151.24L132.163 160.104C137.748 162.284 140.78 166.501 143.1 167.37C138.715 167.372 141.533 171.026 139.054 173.282C134.431 177.489 122.305 176.533 117.513 172.865C115.162 171.065 115.184 165.314 115.042 162.596L115.505 160.049C115.479 158.214 115.61 157.439 114.928 155.78C111.397 155.075 111.457 159.282 104.5 156.604C106.247 156.088 106.657 155.954 108.266 155.124C100.403 149.135 95.5178 159.438 89.2891 147.381L86.4772 149.316L84.775 148.685C80.9855 149.505 78.5013 150.734 75.3691 148.234C74.1915 146.218 74.4778 144.534 74.5531 142.219C71.4246 139.214 68.8837 136.886 66.1977 133.431C64.0591 131.004 58.2964 132.115 53.7502 131.536L53.0627 131.445C50.4322 131.005 47.8413 130.87 45.8144 129.219C42.8402 124.047 48.6473 119.363 52.0628 115.435C55.171 111.685 60.0826 107.152 56.4177 102.055C51.766 98.1328 39.9962 86.9899 45.699 81.0138C52.2961 78.9853 63.2277 78.8724 67.0747 77.0569C68.9195 69.5073 66.7531 63.5596 67.2919 55.8742C67.4721 53.2994 67.9184 52.5932 69.857 50.9055C75.3814 52.3235 83.5894 55.5766 88.1029 59.2619C90.1087 59.8539 95.6375 57.5384 97.7452 56.5711Z" fill="#F6C758"/>
<path d="M113.071 116.521C107.882 116.508 102.077 117.423 99.0217 112.237C101.241 111.337 106.988 115.577 111.144 113.917C112.412 111.8 111.22 104.53 112.344 100.594C117.345 83.0975 132.339 75.785 149.509 79.7234L150.232 80.724C152.566 80.9444 153.509 80.9036 155.695 81.8419C158.003 81.7419 172.095 84.0575 174.274 86.0655C175.602 87.2884 175.377 87.3742 175.823 89.0156C175.057 93.4658 171.128 97.1381 168.109 100.593C168.205 108.85 168.255 110.748 165.601 118.805C178.572 137.736 164.143 134.901 149.415 135.095C146.841 137.65 144.154 140.417 141.515 142.876C141.763 147.238 142.634 151.637 138.338 154.215C135.077 153.335 134.392 152.911 131.442 151.242L132.162 160.105C137.747 162.286 140.779 166.503 143.099 167.372C138.714 167.373 141.532 171.027 139.053 173.284C134.43 177.491 122.304 176.535 117.512 172.866C115.161 171.066 115.183 165.316 115.041 162.598L115.504 160.051C115.478 158.216 115.609 157.441 114.927 155.782C111.396 155.076 111.456 159.284 104.499 156.605C106.246 156.09 106.656 155.956 108.265 155.126C116.94 151.056 112.168 149.727 115.809 145.309C115.926 135.628 105.465 135.519 99.4247 139.509C97.1319 141.024 91.002 140.226 89.8516 137.063C92.5629 136.018 96.5542 139.166 100.602 135.637C102.324 134.136 108.162 134.242 110.681 134.219C113.22 131.005 115.736 128.258 118.48 125.239C115.916 121.934 115.045 120.264 113.071 116.521Z" fill="#281E18"/>
<path d="M140.454 140.199C140.799 141.64 140.434 148.113 140.191 149.738L139.642 145.738L139.189 147.262L138.479 151.585L138.34 154.213C135.079 153.332 134.393 152.908 131.443 151.239L132.163 160.103C137.748 162.283 140.781 166.501 143.101 167.369C138.715 167.371 141.533 171.025 139.054 173.281C134.431 177.489 122.305 176.532 117.514 172.864C115.163 171.064 115.185 165.313 115.043 162.596L115.505 160.049C115.968 156.073 116.791 155.133 116.806 150.577C125.754 149.969 133.327 145.077 140.454 140.199Z" fill="#38291E"/>
<path d="M131.98 149.042C133.938 147.865 136.691 145.716 138.642 145.911L139.188 147.261L138.479 151.584C136.333 151.01 134.047 149.928 131.98 149.042Z" fill="#EBBD64"/>
<path d="M126.97 151.164L127.914 151.356C129.251 153.481 129.014 157.941 129.56 160.643C130.623 165.9 137.555 164.56 138.717 169.992C136.872 172.66 132.4 172.829 129.393 173.148C115.064 172.145 117.539 165.672 117.84 153.513C120.792 152.84 124.013 151.93 126.97 151.164Z" fill="#F6C758"/>
<path d="M128.254 133.258C135.762 135.531 138.401 135.431 146.045 135.025L140.453 140.199C133.326 145.077 125.753 149.968 116.805 150.577C118.007 148.348 117.806 146.984 118.525 145.603C120.824 141.192 124.825 136.741 128.254 133.258Z" fill="#EBBD64"/>
<path d="M134.584 81.5443C148.579 78.6776 162.231 87.7587 164.999 101.776C167.767 115.794 158.592 129.385 144.558 132.056C130.663 134.7 117.237 125.633 114.497 111.753C111.756 97.8738 120.726 84.3833 134.584 81.5443Z" fill="#BDBBBB"/>
<path d="M135.261 86.6004C146.373 84.138 157.389 91.1023 159.933 102.198C162.477 113.293 155.595 124.363 144.52 126.988C133.331 129.641 122.123 122.67 119.552 111.459C116.982 100.248 124.033 89.0893 135.261 86.6004Z" fill="#281E18"/>
<path d="M123.858 115.781C112.609 89.9564 147.87 78.6196 156.14 99.0005C158.141 103.888 158.11 109.373 156.053 114.238C151.035 125.92 138.744 128.816 128.629 121.372C127.088 119.963 125.217 117.465 123.858 115.781Z" fill="#BED0D9"/>
<path d="M123.859 115.78C129.663 109.667 136.252 103.688 142.53 98.0189C144.749 96.0157 148.264 93.6293 150.703 96.3559C152.073 104.159 135.189 119.465 128.63 121.371C127.09 119.962 125.218 117.464 123.859 115.78Z" fill="#FDF7EE"/>
<path d="M128.704 96.1133C135.312 97.4991 135.408 102.519 130.904 106.726C125.051 104.507 123.701 100.389 128.704 96.1133Z" fill="#2D2D2E"/>
<path d="M163.334 121.805C164.719 122.552 167.681 126.309 168.432 127.922C168.285 133.405 163.114 132.796 158.768 133.114C156.679 133.226 154.785 133.564 152.934 132.742C153.079 132.257 161.787 123.807 163.334 121.805Z" fill="#EBBD64"/>
<path d="M158.641 85.4922C163.453 86.0194 169.526 87.5373 174.176 88.8157L171.197 93.0091L167.121 97.0956C164.262 91.6899 162.954 89.8374 158.641 85.4922Z" fill="#EBBD64"/>
<path d="M119.719 126.789C121.888 128.359 123.949 130.101 126.02 131.8L121.401 136.472C119.508 135.233 116.864 133.885 114.82 132.771C115.786 131.277 118.441 128.293 119.719 126.789Z" fill="#BDBBBB"/>
<path d="M114.367 135.969C117.2 136.635 117.615 137.137 119.731 138.982C115.806 139.529 116.194 139.007 114.367 135.969Z" fill="#C39264"/>
<path d="M67.0747 77.0573L68.1264 76.9375L68.9688 78.4054C57.1855 96.9085 56.9386 115.763 69.6607 133.932L66.1977 133.432C64.0591 131.005 58.2964 132.115 53.7502 131.536L53.0627 131.445C50.4322 131.005 47.8413 130.871 45.8144 129.219C42.8402 124.048 48.6473 119.363 52.0628 115.436C55.171 111.685 60.0826 107.153 56.4177 102.056C51.766 98.1332 39.9962 86.9903 45.699 81.0142C52.2961 78.9857 63.2277 78.8728 67.0747 77.0573Z" fill="#281E18"/>
<path d="M45.8231 84.2515C51.1315 82.4632 58.0224 81.8052 63.6659 81.1194C61.2015 85.8929 58.592 97.4426 57.0682 99.789L56.4177 102.057C51.766 98.1346 39.9962 86.9917 45.699 81.0156L45.6564 81.778C45.5737 83.0496 45.3022 84.1441 45.0257 85.3812L45.4095 85.3713L45.8231 84.2515Z" fill="#EBBD64"/>
<path d="M56.4177 102.057C51.766 98.1346 39.9962 86.9917 45.699 81.0156L45.6564 81.778C45.5737 83.0496 45.3022 84.1441 45.0257 85.3812L45.4095 85.3713L45.8231 84.2515C48.219 90.7641 52.427 94.5876 57.0682 99.789L56.4177 102.057Z" fill="#16120E"/>
<path d="M57.6195 113.172C59.6241 119.824 60.7634 123.924 63.9024 130.171C59.5112 130.032 56.7122 129.927 52.3135 129.257L53.0615 131.445C50.4311 131.005 47.8401 130.87 45.8133 129.219C42.8391 124.047 48.6462 119.363 52.0617 115.435L52.3993 116.76C50.9063 118.648 49.5356 119.875 49.4306 122.178C52.2259 119.236 54.9563 116.234 57.6195 113.172Z" fill="#EBBD64"/>
<path d="M52.0617 115.434L52.3993 116.759C50.9063 118.647 49.5356 119.873 49.4306 122.176C48.416 123.886 47.1088 125.513 47.2489 127.363C48.4672 128.756 50.3743 128.851 52.3135 129.256L53.0615 131.443C50.4311 131.003 47.8401 130.869 45.8133 129.217C42.8391 124.046 48.6462 119.361 52.0617 115.434Z" fill="#16120E"/>
<path d="M69.8604 50.9062C75.3848 52.3242 83.5928 55.5774 88.1063 59.2627L85.4999 60.7534C85.066 61.4399 71.2256 71.1704 70.2863 71.4309C70.8405 72.3439 71.0158 72.7291 71.183 73.7847L72.4532 74.1699L68.9723 78.4058L68.1298 76.9379L67.0781 77.0576C68.9229 69.508 66.7566 63.5603 67.2954 55.8749C67.4756 53.3001 67.9218 52.594 69.8604 50.9062Z" fill="#EBBD64"/>
<path d="M67.0781 77.0576C68.9229 69.508 66.7566 63.5603 67.2954 55.8749C67.4756 53.3001 67.9218 52.594 69.8604 50.9062L69.2099 54.1576C69.4487 60.0331 70.019 65.7116 70.2863 71.4309C70.8405 72.3439 71.0158 72.7291 71.183 73.7847L72.4532 74.1699L68.9723 78.4058L68.1298 76.9379L67.0781 77.0576Z" fill="#281E18"/>
<path d="M69.8575 50.9062C75.382 52.3242 83.59 55.5774 88.1034 59.2627L85.4971 60.7534C79.577 57.6404 75.8739 55.5613 69.207 54.1576L69.8575 50.9062Z" fill="#281E18"/>
<path d="M142.373 54.4655C156.633 48.3554 153.122 59.7731 151.771 69.2326C150.716 70.2653 150.53 70.7925 150.007 72.1716L149.119 70.2363C148.94 70.803 148.446 71.8055 148.185 72.3889C143.87 68.6881 138.199 64.4683 133.215 61.8077L137.967 59.4002L134.99 58.1582C137.638 56.4594 139.474 55.718 142.373 54.4655Z" fill="#F6C758"/>
<path d="M142.375 54.4655C156.636 48.3554 153.124 59.7731 151.773 69.2326C150.719 70.2653 150.532 70.7925 150.01 72.1716L149.121 70.2363C149.068 65.559 151.15 60.5694 149.5 56.2421C147.771 55.2347 148.296 55.5705 145.663 56.1903L142.831 55.6359L142.375 54.4655Z" fill="#281E18"/>
<path d="M134.992 58.1575C137.64 56.4587 139.477 55.7173 142.375 54.4648L142.831 55.6352L145.663 56.1896L137.969 59.3995L134.992 58.1575Z" fill="#38291E"/>
<path d="M97.7461 56.5711C100.086 51.6333 104.499 40.4608 110.315 40.4219C114.743 42.6269 117.908 51.3432 120.059 56.097C119.492 56.2489 118.398 56.5816 117.868 56.6458L117.315 56.2976C113.009 57.0273 105.779 56.5699 101.053 56.7588L100.597 56.2884L97.7461 56.5711Z" fill="#EBBD64"/>
<path d="M97.7461 56.5711C100.086 51.6333 104.499 40.4608 110.315 40.4219C114.743 42.6269 117.908 51.3432 120.059 56.097C119.492 56.2489 118.398 56.5816 117.868 56.6458L117.315 56.2976C114.815 51.266 112.618 46.4004 109.283 41.8769C105.336 46.5856 103.188 50.7691 100.597 56.2884L97.7461 56.5711Z" fill="#281E18"/>
<path d="M120.058 56.0977C121.643 58.0989 128.203 59.5675 131.07 60.4287L134.989 58.1576L137.965 59.3996L133.214 61.8071C138.198 64.4677 143.869 68.6875 148.183 72.3883C148.445 71.8049 148.938 70.8024 149.117 70.2357L150.006 72.171C150.529 70.7919 150.715 70.2647 151.769 69.232C150.617 77.2649 151.763 75.6451 155.696 81.841C153.51 80.9027 152.567 80.9435 150.232 80.7231L149.51 79.7224C149.484 79.3786 149.488 79.02 149.289 78.736C141.442 67.5597 129.876 63.1664 118.114 59.8854L117.867 56.6464C118.397 56.5822 119.491 56.2495 120.058 56.0977Z" fill="#38291E"/>
<path d="M66.1953 133.43L69.6583 133.93C73.5935 138.122 83.6086 145.966 89.2868 147.379L86.4749 149.315L84.7726 148.683C80.9831 149.504 78.4989 150.733 75.3667 148.233C74.1891 146.216 74.4755 144.532 74.5508 142.218C71.4223 139.213 68.8813 136.885 66.1953 133.43Z" fill="#191617"/>
<path d="M97.7436 56.5718L100.594 56.2891L101.051 56.7594C100.881 57.7724 100.717 58.7867 100.56 59.8021C86.8324 62.7152 83.0632 65.2578 72.4482 74.1698L71.178 73.7846C71.0108 72.7291 70.8355 72.3438 70.2812 71.4308C71.2206 71.1703 85.061 61.4398 85.4949 60.7534L88.1013 59.2626C90.1072 59.8546 95.6359 57.5391 97.7436 56.5718Z" fill="#45311F"/>
<path d="M117.315 56.2969L117.868 56.645L118.115 59.884C110.891 58.9581 107.556 58.9649 100.562 59.8007C100.719 58.7852 100.883 57.771 101.053 56.758C105.779 56.5691 113.008 57.0265 117.315 56.2969Z" fill="#45311F"/>
<path d="M75.0875 102.483C77.9272 101.598 81.023 102.345 83.1467 104.427C85.2705 106.509 86.0796 109.59 85.252 112.447C84.4249 115.304 82.095 117.475 79.1875 118.099C74.9641 119.007 70.774 116.43 69.6766 112.251C68.5799 108.072 70.9634 103.769 75.0875 102.483Z" fill="#EA9F58"/>
<path d="M89.3779 94.044C97.4642 93.831 97.6482 100.615 93.5389 105.963C85.5531 106.422 84.939 99.2176 89.3779 94.044Z" fill="#3D291E"/>
<path d="M89.2911 147.383C95.5198 159.439 100.405 149.137 108.268 155.126C106.659 155.956 106.249 156.09 104.502 156.605C101.732 156.941 102.332 156.429 100.986 158.074C100.998 159.62 101.002 161.146 101.071 162.691C107.339 160.102 108.464 160.806 115.045 162.598C115.186 165.316 115.164 171.066 117.515 172.866C122.307 176.535 134.433 177.491 139.056 173.284C141.535 171.027 138.717 167.374 143.102 167.372C147.703 167.481 160.607 169.096 163.212 172.88C162.676 174.234 162.512 174.281 161.173 174.893C148.599 180.638 70.2595 181.313 57.019 175.739C55.6964 175.182 54.841 174.618 53.9059 173.54C53.4887 168.499 70.6311 167.664 74.6039 167.326L75.1699 167.201C77.5905 163.633 80.7233 162.005 84.3987 159.976C84.3666 155.813 84.3437 152.872 84.777 148.687L86.4792 149.318L89.2911 147.383Z" fill="#ECD1B9"/>
<path d="M89.2888 147.383C95.5174 159.439 100.403 149.137 108.265 155.126C106.656 155.956 106.247 156.09 104.5 156.605C101.729 156.941 102.33 156.429 100.983 158.074C100.996 159.62 100.999 161.146 101.069 162.691C98.8058 165.099 101.805 174.009 95.0169 175.282C89.6332 176.292 82.7275 176.624 77.7085 174.068C74.6571 172.514 76.3754 168.766 74.6016 167.326L75.1675 167.201C77.5881 163.633 80.721 162.005 84.3963 159.976C84.3643 155.813 84.3414 152.872 84.7747 148.687L86.4769 149.318L89.2888 147.383Z" fill="#38291E"/>
<path d="M86.9263 152.625C90.8368 154.566 93.3654 155.87 97.5592 157.244C97.6141 163.837 98.622 173.837 88.2501 173.736C84.7902 173.702 80.6877 171.956 78.1875 169.511C80.1421 163.378 85.3358 165.789 86.5529 161.246L86.2591 159.818C86.5732 157.255 86.8016 155.217 86.9263 152.625Z" fill="#EBBD64"/>
<path d="M84.7765 148.684L86.4787 149.315C86.825 153.679 85.5844 155.07 86.2571 159.816L86.5509 161.244L85.5554 159.434L84.3982 159.973C84.3661 155.81 84.3432 152.87 84.7765 148.684Z" fill="#281E18"/>
</svg>
