<svg width="220" height="220" viewBox="0 0 220 220" fill="none" xmlns="http://www.w3.org/2000/svg">
<path d="M87.9308 39.6923C99.5203 35.5317 117.816 35.8854 129.672 39.0348C150.975 45.4566 168.195 58.0823 178.795 77.9206C185.298 89.9882 188.634 103.508 188.492 117.216C194.786 120.181 200.264 127.391 196.586 134.479C193.577 140.279 187.964 141.743 182.151 143.448C172.153 146.358 168.82 147.574 159.368 143.361C153.8 145.163 152.707 144.979 146.864 143.864C147.383 148.96 149.15 157.016 146.641 161.051C141.929 164.075 132.53 157.388 127.855 154.727C128.025 158.393 128.115 162.598 128.463 166.209C131.544 167.318 134.182 167.946 135.657 171.029C141.796 171.707 152.073 172.558 157.009 176.071L157.414 177.12C151.051 185.253 75.026 185.278 64.195 178.227L63.5235 176.904C66.3002 172.05 79.0476 171.938 84.4276 171.493C87.7092 168.131 88.2826 167.865 92.3659 165.637C92.664 162.489 93.4312 159.325 91.7055 156.828C86.5576 154.962 83.2266 161.582 76.3696 162.895C70.1311 161.431 73.1479 149.211 73.7935 144.348C71.4803 144.764 68.6585 145.291 66.3502 145.015C59.576 144.206 55.1921 145.75 48.7957 147.402C44.9367 146.501 43.2807 145.248 39.7265 143.942C35.7017 142.355 25.75 142.115 23.8071 137.322C19.7781 127.382 23.819 121.262 31.7699 116.72C31.0782 79.8003 53.7084 51.4025 87.9308 39.6923Z" fill="#38291E"/>
<path d="M87.9298 39.6923C99.5194 35.5317 117.815 35.8854 129.671 39.0348L130.38 40.6114C129.573 40.9071 128.931 41.1281 128.107 41.3701C149.973 48.0073 165.499 59.5904 176.781 79.6336C180.335 85.9455 189.865 111.573 184.662 117.007C181.855 117.184 180.649 114.506 179.179 112.343C180.117 100.779 171.403 80.291 163.824 71.6605C151.437 57.5539 130.452 45.048 111.273 46.5233L108.029 46.5554C104.14 46.3345 100.29 46.7221 96.3834 47.4493C65.7771 53.1445 43.3742 79.983 40.1217 110.467C40.0741 110.914 40.2249 111.179 40.363 111.63C38.7743 114.059 37.9174 116.07 35.2479 116.769L34.3246 115.686C32.5077 106.744 38.1049 88.2443 42.4256 80.1472C53.0229 60.2867 68.9859 48.4401 90.0171 41.7788L87.9298 39.6923Z" fill="#DC846D"/>
<path d="M87.9297 39.6923C99.5192 35.5317 117.815 35.8854 129.671 39.0348L130.38 40.6114C129.573 40.9071 128.931 41.1281 128.107 41.3701C115.292 38.5743 102.783 38.2521 90.017 41.7788L87.9297 39.6923Z" fill="#38231E"/>
<path d="M84.4276 171.492C85.6712 180.216 94.239 180.994 101.414 178.519C106.346 176.819 105.833 172.196 107.364 167.87C109.282 166.875 109.777 166.965 111.967 166.983C113.984 168.299 112.561 172.605 115.072 175.264C121.164 181.721 135.075 182.553 135.657 171.028C141.796 171.706 152.073 172.557 157.009 176.07L157.414 177.119C151.051 185.251 75.026 185.277 64.1949 178.225L63.5234 176.903C66.3002 172.049 79.0476 171.937 84.4276 171.492Z" fill="#ECD1B9"/>
<path d="M160.242 114.615C169.671 110.395 175.356 109.538 180.981 119.702C183.356 119.873 186.093 119.978 188.4 120.427C193.698 124.399 194.495 125.683 194.646 132.399C187.096 137.394 185.431 135.224 178.809 137.441C171.923 140.534 168.05 140.333 160.52 140.953C157.312 141.888 151.212 143.709 148.414 141.03C153.526 136.313 181.38 143.087 163.815 122.609C161.793 120.252 159.738 117.881 157.678 115.556L160.242 114.615Z" fill="#FDF7EE"/>
<path d="M24.4062 127.764C25.6914 125.062 27.8249 121.009 31.0879 120.983C39.5984 120.916 40.964 113.087 46.9403 110.713C51.4814 108.908 54.0403 114.826 60.4997 113.467L61.8625 113.376C60.3201 120.646 47.5242 126.614 49.7585 134.071C52.5559 137.31 56.1763 137.186 60.4053 137.846C58.339 140.343 59.2555 139.858 56.3757 141.001C54.176 140.739 48.5922 140.846 46.1486 140.825C43.8636 139.465 41.3879 137.78 39.134 136.315C31.5103 137.107 26.9398 135.441 24.4062 127.764Z" fill="#FDF7EE"/>
<path d="M40.3636 111.628C40.2254 111.178 40.0747 110.912 40.1222 110.466C43.3748 79.9816 65.7777 53.1432 96.384 47.4479C100.291 46.7208 104.14 46.3331 108.03 46.5541C106.579 48.7504 104.911 51.4172 103.38 53.5012C94.7417 54.908 87.5434 56.6216 79.844 61.1175C77.5326 60.231 75.0151 59.0192 72.5902 59.1588C69.0321 60.9878 69.9554 64.178 70.035 67.8677C61.3222 76.1216 58.6047 78.8285 53.6271 90.0103C51.4719 90.68 50.1016 90.8967 48.5751 92.6036C47.7867 95.6975 48.424 96.442 50.2776 99.184C49.4044 103.099 48.8621 105.005 47.4503 108.754C44.3001 109.692 43.1733 109.968 40.3636 111.628Z" fill="#EBBD64"/>
<path d="M111.273 46.5249C130.452 45.0495 151.437 57.5555 163.824 71.662C171.404 80.2925 180.117 100.78 179.179 112.344C176.298 110.39 175.795 110.158 172.473 109.108C171.337 108.167 170.304 100.98 169.521 98.1801C171.013 95.8214 172.166 94.559 171.358 91.7386C169.644 90.0256 168.311 90.0237 165.902 89.5225C163.494 80.8944 156.347 73.0948 149.091 68.0953C149.217 64.4032 150.013 62.1754 146.994 59.7808C144.4 59.4691 142.574 60.4111 140.07 61.3093C132.745 56.5239 123.952 54.498 115.579 52.43L111.273 46.5249Z" fill="#EBBD64"/>
<path d="M149.092 68.0938C156.348 73.0933 163.495 80.8929 165.903 89.5209L157.066 87.7258C155.418 84.4634 150.702 78.9533 148.102 76.3878C148.555 74.4915 148.877 70.2222 149.092 68.0938Z" fill="#79B071"/>
<path d="M53.625 90.0137C58.6026 78.8319 61.3201 76.125 70.0329 67.8711L70.9896 76.8097C67.4994 81.1048 65.6324 83.6741 62.6686 88.3439L53.625 90.0137Z" fill="#79B071"/>
<path d="M24.4023 127.762C26.9358 135.438 31.5063 137.104 39.13 136.313C41.3839 137.777 43.8596 139.463 46.1446 140.823C48.5882 140.844 54.172 140.737 56.3717 140.998L58.4584 141.126C47.8245 149.709 46.6893 143.055 36.8657 140.76C27.6736 138.613 24.1603 141.417 24.4023 127.762Z" fill="#E0D2CB"/>
<path d="M115.578 52.4297C123.951 54.4976 132.745 56.5236 140.069 61.309C137.356 62.467 132.862 64.1578 130.676 65.8968C128.039 62.9362 123.208 61.53 119.436 60.0781L115.578 52.4297Z" fill="#79B071"/>
<path d="M79.8438 61.1202C87.5432 56.6244 94.7414 54.9107 103.38 53.5039L100.052 59.9362C96.2603 61.4924 91.6117 63.3258 88.472 65.945C86.7174 64.1135 82.2779 62.2443 79.8438 61.1202Z" fill="#79B071"/>
<path d="M50.2766 99.1836C52.2522 101.456 60.3558 110.507 60.8366 112.587L61.8593 113.373L60.4966 113.464C54.2012 110.523 55.1054 109.184 47.4492 108.754C48.861 105.005 49.4034 103.099 50.2766 99.1836Z" fill="#7AA18C"/>
<path d="M160.148 109.915C163.124 106.032 166.447 102.021 169.519 98.1797C170.301 100.979 171.334 108.167 172.47 109.108C169.26 109.305 165.99 109.361 162.923 110.302L160.148 109.915Z" fill="#79B071"/>
<path d="M160.52 140.953C168.05 140.333 171.923 140.534 178.809 137.441L180.638 140.145C174.706 145.674 166.995 145.501 160.52 140.953Z" fill="#E0D2CB"/>
<path d="M194.646 132.398C190.634 142.296 188.655 139.039 180.638 140.144L178.809 137.441C185.431 135.224 187.096 137.393 194.646 132.398Z" fill="#ECD1B9"/>
<path d="M60.4046 137.844C63.3418 138.034 66.2741 138.291 69.1989 138.614L72.3225 142.786C66.9092 142.868 63.5066 143.321 58.4617 141.127L56.375 140.998C59.2548 139.856 58.3383 140.34 60.4046 137.844Z" fill="#F3DECF"/>
<path d="M148.103 76.3867C150.703 78.9522 155.419 84.4623 157.067 87.7247C150.544 87.5741 146.9 82.6449 148.103 76.3867Z" fill="#769EAB"/>
<path d="M70.9928 76.8086L71.8445 81.2445C70.2861 83.5082 68.5703 86.465 66.288 87.8243C65.0647 88.0237 63.9093 88.2256 62.6719 88.3429C65.6356 83.673 67.5026 81.1038 70.9928 76.8086Z" fill="#7895B1"/>
<path d="M119.438 60.0781C123.21 61.53 128.04 62.9362 130.678 65.8968L128.624 66.716C122.822 66.2197 121.325 65.498 119.438 60.0781Z" fill="#769EAB"/>
<path d="M88.4727 65.9424C91.6123 63.3232 96.2609 61.4898 100.052 59.9336C98.4075 64.7726 93.0071 69.0894 88.4727 65.9424Z" fill="#769EAB"/>
<path d="M160.152 109.914L162.926 110.302C161.275 111.926 160.489 112.175 159.945 114.196L160.244 114.614L157.68 115.555C157.807 112.989 158.036 111.508 160.152 109.914Z" fill="#769EAB"/>
<path d="M106.73 65.892C132.067 64.2377 153.921 83.503 155.462 108.853C157.002 134.202 137.644 155.973 112.292 157.401C87.1003 158.82 65.5 139.606 63.9687 114.416C62.4375 89.2261 81.5518 67.5359 106.73 65.892Z" fill="#F6C758"/>
<path d="M76.7834 108.183C87.4885 107.316 92.5568 115.78 82.5948 122.281C81.4481 122.447 80.2803 122.564 79.1206 122.534C76.7383 122.471 74.4936 121.406 72.937 119.602C68.963 115.07 72.9019 110.718 76.7834 108.183Z" fill="#EA9F58"/>
<path d="M136.631 108.177C146.777 106.862 152.265 115.799 142.25 122.277C131.917 123.144 126.061 114.082 136.631 108.177Z" fill="#EA9F58"/>
<path d="M92.0891 99.8789C93.4044 100.142 94.7153 100.365 95.7941 101.194C97.0846 102.189 97.8678 103.705 97.9333 105.334C98.037 108.259 96.7211 109.971 94.993 112.019C87.4096 110.203 87.1967 105.196 92.0891 99.8789Z" fill="#45311F"/>
<path d="M125.5 99.8672C132.651 101.892 132.097 107.232 127.505 111.775C119.831 110.72 120.455 104.201 125.5 99.8672Z" fill="#45311F"/>
<path d="M100.371 114.07C103.263 115.505 103.854 116.935 106.5 118.135C112.107 120.678 115.511 115.418 118.418 115.336L119.077 116.782C113.561 122.622 100.731 123.225 100.371 114.07Z" fill="#45311F"/>
<path d="M122.031 158.384C123.473 158.011 123.366 158.016 124.802 158.412C126.199 160.56 126.171 165.869 126.352 168.65C129.322 169.579 134.013 170.571 132.687 174.587C131.081 176.18 129.869 176.228 127.69 176.673C124.517 176.605 120.237 176.761 117.583 175.035C115.574 171.349 115.164 164.13 115.957 160.055C117.353 158.791 120.006 158.696 122.031 158.384Z" fill="#EBBD64"/>
<path d="M94.6791 157.473C97.3386 158.261 101.666 159.01 104.493 159.589C104.483 166.438 107.011 175.22 98.4119 176.524C94.4403 176.704 89.9206 177.534 87.7734 173.485L88.2697 171.874C89.7842 169.914 91.5722 169.425 93.8496 168.507C94.5094 164.303 94.5674 161.685 94.6791 157.473Z" fill="#EBBD64"/>
<path d="M153.074 90.0703C157.634 90.5 167.315 89.9604 168.437 94.96C167.869 97.4835 165.464 99.6175 163.649 101.58L157.475 108.12C157.449 100.041 156.188 97.4397 153.074 90.0703Z" fill="#EBBD64"/>
<path d="M109.141 48.6211C113.043 51.6737 116.341 59.1868 118.507 63.7289L110.817 63.4419L100.855 64.0499C103.624 57.9948 105.728 54.3034 109.141 48.6211Z" fill="#F6C758"/>
<path d="M157.456 118.973C161.229 123.793 165.385 128.711 167.936 134.239C165.623 134.748 163.096 135.176 160.752 135.62C157.65 135.99 154.55 136.378 151.453 136.783C154.81 129.871 155.962 126.532 157.456 118.973Z" fill="#EBBD64"/>
<path d="M61.5742 119.664C64.0115 125.869 63.7146 128.038 67.364 135.615C63.6233 135.465 60.8613 135.187 57.1428 134.706C55.1431 134.502 54.716 134.394 52.8188 133.724C50.0013 129.418 58.5599 122.501 61.5742 119.664Z" fill="#EBBD64"/>
<path d="M72.6126 61.3281C79.2554 63.2004 82.0457 64.9035 87.8194 68.4086C85.5587 69.6302 83.2066 71.0685 80.9767 72.3803C78.719 74.2477 76.1534 76.7088 73.9475 78.7114C72.9045 72.6692 71.8108 67.49 72.6126 61.3281Z" fill="#EBBD64"/>
<path d="M61.0231 91.0163C63.0456 90.7589 63.3332 90.6355 65.2712 91.0849C64.675 93.138 61.3317 106.569 60.775 107.117L59.0869 105.606C55.5079 101.773 52.7176 98.3672 49.9805 93.8775C53.7254 92.688 57.2119 91.9034 61.0231 91.0163Z" fill="#EBBD64"/>
<path d="M145.3 61.8789L146.089 62.2629C147.505 65.6154 146.021 75.0774 145.531 78.9806C143.47 76.7719 141.433 75.02 139.175 73.0243L131.141 68.013C135.67 65.5537 140.408 63.5006 145.3 61.8789Z" fill="#EBBD64"/>
<path d="M143.685 146.316L144.15 146.742C145.517 150.825 147.728 157.03 143.503 159.577C140.981 159.685 139.245 158.62 136.894 157.569L131.602 154.92C137.02 152.065 139.264 150.267 143.685 146.316Z" fill="#EBBD64"/>
<path d="M75.8805 146.801C78.561 148.564 86.8671 152.796 86.4431 155.929L83.5818 157.446C81.1741 158.612 80.3391 159.005 77.7241 159.751C75.4152 159.278 76.1657 159.772 74.856 157.976C74.2116 154.984 75.3528 149.998 75.8805 146.801Z" fill="#EBBD64"/>
</svg>
