<svg width="220" height="220" viewBox="0 0 220 220" fill="none" xmlns="http://www.w3.org/2000/svg">
<path d="M106.078 50.5473C115.125 25.0405 121.902 33.1661 129.532 52.4573C132.635 53.5524 135.732 54.6635 138.823 55.7907C159.063 44.8404 165.188 42.8217 159.494 69.9368C159.919 74.1431 163.393 78.0074 167.637 78.7556C172.637 79.8747 186.978 81.8273 184.778 88.933C183.56 92.8714 174.112 102.154 170.826 104.43C170.438 112.037 171.388 110.109 175.634 115.579C178.417 118.957 187.117 127.675 180.721 131.424C175.624 134.412 167.339 133.681 161.792 135.484C162.423 136.495 163.768 138.495 164.158 139.499C166.95 144.266 170.205 149.471 168.226 155.081C164.351 166.06 155.575 162.104 148.951 157.809C147.934 157.617 141.096 154.499 139.689 153.879L138.453 155.466L139.184 166.24C142.854 167.696 145.391 168.382 147.343 171.966C152.196 171.842 169.089 173.227 170.959 178.368C166.04 187.775 73.2965 187.604 64.3911 179.478C64.0825 173.767 83.3838 172.345 87.8276 172.192C90.4414 168.517 92.3009 167.822 96.288 166.118C96.4602 161.757 96.2948 157.839 96.1337 153.497C91.0962 156.387 80.5947 164.251 75.4437 159.839C73.2298 154.965 75.4412 146.666 76.4405 141.165L71.5597 134.583C48.6442 133.582 43.8412 129.021 62.4396 111.93C59.7418 107.316 58.4445 103.795 56.7682 98.8555C46.5815 94.7276 45.9742 91.188 46.3291 81.0192C49.0929 77.8339 52.9713 70.7504 57.4558 70.0016C60.3226 69.5226 64.1325 73.132 64.501 76.2061C67.5925 75.8228 69.789 75.2654 72.4615 77.0444C73.7569 72.3801 76.4732 73.4042 75.4363 67.1151C75.3622 66.9089 75.2876 66.7034 75.2129 66.4972C70.4994 42.1984 78.9586 44.7731 95.6467 56.0796C100.003 54.6722 103.941 54.2042 106.078 50.5473ZM112.549 171.749C116.615 169.247 117.818 169.592 122.525 169.895C123.375 166.562 122.674 161.735 122.494 158.153C119.271 158.076 115.719 158.071 112.536 157.788L112.549 171.749Z" fill="#F6C758"/>
<path d="M141.928 56.9609C147.84 60.6647 151.662 63.3593 156.863 68.1866L157.454 67.9156L158.023 63.305C158.176 66.0736 158.055 67.568 159.492 69.9354C159.917 74.1417 163.391 78.006 167.636 78.7542C172.635 79.8733 186.976 81.8259 184.777 88.9316C183.558 92.87 174.11 102.152 170.825 104.428C170.436 112.036 171.386 110.108 175.632 115.577C178.415 118.956 187.115 127.674 180.719 131.422C175.623 134.41 167.337 133.68 161.79 135.483C162.421 136.494 163.766 138.494 164.157 139.497C166.948 144.265 170.204 149.47 168.224 155.079C164.349 166.059 155.573 162.103 148.949 157.808C147.932 157.616 141.094 154.497 139.688 153.878L142.733 153.142L149.94 148.341C150.61 146.652 151.296 144.968 151.997 143.291C153.379 141.755 154.714 140.166 156.072 138.631C173.005 119.478 171.873 87.7421 153.883 69.5965C149.895 65.5742 146.386 63.0994 141.584 60.0993C141.245 58.7209 141.534 58.4672 141.928 56.9609Z" fill="#3D291E"/>
<path d="M153.32 145.559C155.038 143.518 157.701 139.774 160.078 139.117L161.628 140.189L164.157 139.497C166.948 144.265 170.204 149.47 168.224 155.079C164.349 166.059 155.573 162.103 148.949 157.808C153.473 157.041 154.471 162.01 159.844 160.571C157.15 159.459 153.328 156.75 150.782 155.076C152.054 151.443 152.531 149.353 153.32 145.559Z" fill="#EBBD64"/>
<path d="M161.628 140.191L164.157 139.5C166.948 144.267 170.204 149.473 168.224 155.082C164.349 166.061 155.573 162.106 148.949 157.81C153.473 157.044 154.471 162.012 159.844 160.573C169.754 153.426 166.613 149.271 161.628 140.191Z" fill="#281E18"/>
<path d="M167.635 78.7578C172.634 79.877 186.975 81.8295 184.776 88.9353C183.557 92.8737 174.109 102.156 170.824 104.432L171.029 101.678C169.484 93.3743 168.002 89.5674 166.039 81.8838L166.892 81.4912C168.231 81.3678 169.108 81.4523 170.131 80.6128L167.635 78.7578Z" fill="#EBBD64"/>
<path d="M167.633 78.7578C172.632 79.877 186.973 81.8295 184.774 88.9353C183.556 92.8737 174.107 102.156 170.822 104.432L171.028 101.678C175.316 96.8528 180.275 91.8496 183.231 86.2062C178.985 84.1987 171.489 82.4943 166.891 81.4912C168.23 81.3678 169.106 81.4523 170.13 80.6128L167.633 78.7578Z" fill="#281E18"/>
<path d="M163.706 132.288C166.909 126.746 168.773 119.816 170.372 113.645C172.117 115.817 178.095 123.71 179.97 124.646L180.768 124.376C178.859 121.763 175.946 118.601 175.632 115.579C178.414 118.957 187.114 127.675 180.718 131.423C175.622 134.411 167.336 133.681 161.789 135.484C161.675 135.003 161.89 134.811 162.137 134.165C163.372 134.065 163.985 134.072 165.186 133.668L163.49 133.058L163.706 132.288Z" fill="#EBBD64"/>
<path d="M179.97 124.646L180.768 124.376C178.859 121.762 175.946 118.6 175.632 115.578C178.414 118.957 187.114 127.674 180.718 131.423C175.622 134.411 167.336 133.681 161.789 135.484C161.675 135.002 161.89 134.811 162.137 134.165C163.372 134.065 163.985 134.072 165.186 133.668L163.49 133.058L163.706 132.288C166.424 132.961 178.592 131.218 180.446 128.186C180.97 127.33 180.26 125.722 179.97 124.646Z" fill="#281E18"/>
<path d="M142.734 153.144L149.941 148.344C149.244 150.427 148.896 152.546 147.186 153.648C145.129 153.814 144.787 153.642 142.734 153.144Z" fill="#EBBD64"/>
<path d="M46.3291 81.0216C49.0929 77.8363 52.9713 70.7528 57.4558 70.004C60.3226 69.525 64.1325 73.1344 64.501 76.2085C64.3596 77.5098 64.2356 79.2068 63.8924 80.421L63.2746 81.2543C61.7162 78.737 62.0384 74.9795 58.3519 72.8405C52.667 73.0819 39.3135 93.4504 58.5025 95.6363C60.4794 102.528 63.7789 108.474 65.7292 115.025C70.4828 130.992 80.8385 146.614 97.7285 151.948L98.574 155.553C102.375 156.155 106.315 157.32 109.972 157.786C109.835 161.149 109.672 164.51 109.677 167.875C110.318 171.584 109.433 172.145 111.461 173.595C110.963 182.242 95.1227 181.646 89.9402 177.907C88.0053 176.511 87.9769 174.31 87.8276 172.194C90.4414 168.519 92.3009 167.824 96.288 166.12C96.4602 161.76 96.2948 157.841 96.1337 153.5C91.0962 156.389 80.5947 164.253 75.4437 159.842C73.2298 154.968 75.4412 146.669 76.4405 141.167L71.5597 134.586C48.6442 133.585 43.8412 129.024 62.4396 111.932C59.7418 107.319 58.4445 103.798 56.7682 98.8579C46.5815 94.73 45.9742 91.1904 46.3291 81.0216Z" fill="#38291E"/>
<path d="M98.5695 155.551C102.371 156.153 106.311 157.318 109.967 157.784C109.831 161.146 109.667 164.507 109.673 167.872C109.553 169.624 109.345 174.094 108.226 175.151C104.598 178.58 95.3175 178.397 91.6539 175.486C89.6814 171.144 94.9997 169.698 98.1727 168.42C98.5152 164.487 98.4843 159.564 98.5695 155.551Z" fill="#EBBD64"/>
<path d="M62.6406 114.699L63.3652 115.308C64.9217 121.386 67.4664 126.912 70.2727 132.484L62.4381 131.338C58.6307 130.729 55.659 131.075 53.6642 127.592C53.6284 123.441 59.6299 118.036 62.6406 114.699Z" fill="#EBBD64"/>
<path d="M78.24 143.457C82.5084 146.143 87.0824 149.89 92.0168 153.02L87.6687 155.339C84.2341 157.185 81.4895 159.724 77.7802 158.089C75.5836 154.686 77.5327 147.765 78.24 143.457Z" fill="#EBBD64"/>
<path d="M112.544 171.748C116.61 169.246 117.813 169.591 122.52 169.894C122.483 184.863 144.697 182.388 146.988 174.551L147.338 171.965C152.191 171.841 169.084 173.227 170.954 178.367C166.035 187.774 73.2919 187.604 64.3865 179.477C64.0779 173.766 83.3792 172.344 87.8229 172.191C87.9723 174.307 88.0007 176.508 89.9356 177.903C95.1181 181.643 110.958 182.239 111.456 173.592L112.544 171.748Z" fill="#ECD1B9"/>
<path d="M151.996 143.293C151.295 144.97 150.61 146.654 149.939 148.344L142.733 153.144L139.687 153.88L138.451 155.467L139.182 166.241C142.852 167.697 145.389 168.383 147.341 171.967L146.99 174.553C144.7 182.39 122.486 184.865 122.523 169.896C123.373 166.563 122.672 161.735 122.492 158.154C119.27 158.077 115.717 158.072 112.534 157.789L112.547 171.75L111.459 173.594C109.431 172.144 110.316 171.583 109.675 167.873C109.67 164.508 109.833 161.147 109.97 157.785C106.314 157.319 102.373 156.154 98.5721 155.552L97.7266 151.947C117.748 158.969 135.228 155.74 151.996 143.293Z" fill="#F6C758"/>
<path d="M151.996 143.293C151.295 144.97 150.61 146.654 149.939 148.344L142.733 153.144L139.687 153.88L138.451 155.467L137.32 155.119C137.162 155.48 136.517 157.037 136.342 157.248L135.201 156.015C131.537 156.032 128.742 157.153 125.199 157.74C125.406 161.952 124.508 172.96 127.294 175.425C131.05 178.749 141.309 177.974 145.109 174.361L146.99 174.553C144.7 182.39 122.486 184.865 122.523 169.896C123.373 166.563 122.672 161.735 122.492 158.154C119.27 158.077 115.717 158.072 112.534 157.789L112.547 171.75L111.459 173.594C109.431 172.144 110.316 171.583 109.675 167.873C109.67 164.508 109.833 161.147 109.97 157.785C106.314 157.319 102.373 156.154 98.5721 155.552L97.7266 151.947C117.748 158.969 135.228 155.74 151.996 143.293Z" fill="#45311F"/>
<path d="M136.342 157.246C136.517 157.035 137.162 155.478 137.32 155.117L138.451 155.465L139.182 166.238C142.851 167.695 145.389 168.381 147.341 171.965L146.99 174.55L145.108 174.359C143.259 170.423 140.875 170.023 136.81 168.353C136.334 164.373 135.78 161.254 136.342 157.246Z" fill="#3D291E"/>
<path d="M106.078 50.5473C115.124 25.0405 121.902 33.1661 129.531 52.4573C132.634 53.5524 135.731 54.6635 138.823 55.7907C159.062 44.8404 165.187 42.8217 159.494 69.9368C158.056 67.5694 158.177 66.075 158.024 63.3064L157.456 67.917L156.864 68.188C151.664 63.3607 147.841 60.6662 141.929 56.9623C141.536 58.4686 141.246 58.7223 141.586 60.1007C135.85 57.1593 131.594 56.0821 125.481 54.6209L126.795 52.9406L126.622 51.8455C123.721 51.8529 110.376 52.2647 108.53 51.7807L108.377 50.256L106.078 50.5473Z" fill="#16120E"/>
<path d="M108.375 50.2581C110.332 46.6704 113.848 38.527 117.569 37.2891C121.88 38.6454 124.851 47.721 126.62 51.8477C123.72 51.8551 110.375 52.2668 108.528 51.7829L108.375 50.2581Z" fill="#EBBD64"/>
<path d="M141.93 56.9614C145.095 54.3737 153.533 50.602 157.716 50.6489L158.575 51.2285C158.863 55.1175 158.356 59.3874 158.025 63.3054L157.456 67.916L156.864 68.187C151.664 63.3597 147.842 60.6652 141.93 56.9614Z" fill="#F6C758"/>
<path d="M75.4323 67.1173C75.3582 66.9111 75.2835 66.7055 75.2088 66.4993C70.4954 42.2005 78.9546 44.7753 95.6427 56.0818C99.9994 54.6743 103.937 54.2064 106.074 50.5495L108.373 50.2581L108.526 51.7829C110.372 52.2668 123.717 51.8551 126.618 51.8477L126.791 52.9428L125.477 54.6231C110.252 53.5601 96.4993 55.9015 84.5086 66.2697C83.0866 67.5154 81.6943 68.7951 80.3334 70.1069L78.23 68.5019L77.0981 66.3197L75.847 66.2524L75.4323 67.1173Z" fill="#3D291E"/>
<path d="M77.1026 66.3188C76.7835 61.7656 75.3517 54.3438 77.95 50.9498C81.123 50.0887 90.0432 55.3605 93.3692 57.0445C86.7135 60.8174 83.7584 62.9848 78.2345 68.501L77.1026 66.3188Z" fill="#EBBD64"/>
<path d="M70.1406 78.7422C71.1664 80.2743 71.2275 80.499 72.7106 81.5163C70.29 89.7191 70.8319 88.011 72.7655 96.689C73.1605 98.4631 72.9945 98.5224 72.1724 99.5786C64.9994 98.5076 69.5543 83.538 70.0795 79.2792L70.1406 78.7422Z" fill="#45311F"/>
<path d="M75.4358 67.1148L75.8505 66.25L77.1016 66.3173L78.2335 68.4994L80.3369 70.1044C77.9669 72.9558 76.7047 74.5805 74.7186 77.6911L72.4609 77.0441C73.7564 72.3798 76.4727 73.4039 75.4358 67.1148Z" fill="#38291E"/>
<path d="M64.4992 76.2078C67.5907 75.8244 69.7872 75.267 72.4597 77.0461L74.7173 77.693L72.7084 81.5184C71.2253 80.5011 71.1642 80.2764 70.1384 78.7443C67.8055 78.614 65.6737 78.7109 63.8906 80.4202C64.2338 79.206 64.3578 77.509 64.4992 76.2078Z" fill="#38291E"/>
<path d="M147.362 100.746C151.843 99.3575 156.616 101.783 158.137 106.221C159.658 110.66 157.376 115.504 152.986 117.156C150.027 118.27 146.697 117.686 144.294 115.631C141.89 113.578 140.794 110.379 141.433 107.282C142.071 104.186 144.343 101.682 147.362 100.746Z" fill="#EA9F58"/>
<path d="M83.011 100.171C87.698 99.425 92.1047 102.613 92.8638 107.299C93.623 111.985 90.4488 116.401 85.7662 117.175C81.0638 117.951 76.625 114.761 75.8622 110.055C75.0999 105.349 78.3038 100.919 83.011 100.171Z" fill="#EA9F58"/>
<path d="M106.531 108.466C108.299 108.342 108.791 108.933 110.394 109.415C119.254 112.077 118.691 111.361 126.21 108.808L126.965 109.539C127.024 111.489 126.061 112.767 125.109 114.541C117.694 122.08 107.725 118.259 106.531 108.466Z" fill="#38291E"/>
<path d="M110.051 112.328C113.801 112.963 119.473 112.495 122.178 113.308L122.277 114.726C116.894 117.537 113.745 116.768 110.051 112.328Z" fill="#DC846D"/>
<path d="M133.42 92.3984C141.613 92.9435 142.254 100.178 136.444 105.059C128.476 104.896 128.666 97.3041 133.42 92.3984Z" fill="#45311F"/>
<path d="M37.7979 72.6383C37.0345 73.6642 37.0178 73.5834 36.0612 74.4346L35.099 73.8161L34.9922 72.6654C36.3086 70.0579 39.078 65.4739 41.5868 64.0547L42.5392 64.3479L42.8268 65.8961C40.4654 66.4529 38.5058 69.1888 37.4072 71.316L37.7979 72.6383Z" fill="#16120E" fill-opacity="0.929412"/>
<path d="M37.7969 72.6406L37.4062 71.3184C38.5048 69.1911 40.4644 66.4552 42.8258 65.8984L42.511 68.8417C41.0835 71.0467 39.5855 73.0308 38.8141 75.5166L37.7969 72.6406Z" fill="#584D38" fill-opacity="0.0156863"/>
<path d="M42.5094 68.8391L44.2073 68.0273L44.8449 68.5484C42.9335 72.3435 42.2268 72.9127 40.1857 76.2165C39.0402 75.9523 39.4229 76.2745 38.8125 75.514C39.584 73.0281 41.0819 71.0441 42.5094 68.8391Z" fill="#16120E" fill-opacity="0.94902"/>
<path d="M97.1016 91.9805L107.791 96.3319L97.1025 100.063" stroke="#45311F" stroke-width="3" stroke-linecap="round" stroke-linejoin="round"/>
</svg>
