<svg width="220" height="220" viewBox="0 0 220 220" fill="none" xmlns="http://www.w3.org/2000/svg">
<path d="M92.5814 56.4062C93.4702 52.7697 98.2966 42.7657 101.685 40.8527C107.116 37.789 110.461 46.7671 112.146 50.5227C113.368 52.9796 114.239 54.7951 115.238 57.3501C118.442 58.3804 121.614 59.4866 124.762 60.6681C129.285 58.4359 134.791 55.4994 139.475 53.9309C141.722 53.0154 142.222 52.7024 144.604 52.916C148.671 55.7982 146.159 62.0737 146.431 66.6139C145.943 69.7245 145.4 72.8845 145.116 76.0148C146.493 78.2717 147.468 79.8866 149.073 81.999C153.652 82.1983 164.07 83.6657 167.347 86.8818C168.724 88.5602 168.397 87.7467 168.52 89.9751C166.008 95.8926 159.787 100.546 155.547 105.406C155.146 108.268 155.38 109.23 157.139 111.543C158.158 112.86 159.231 114.132 160.361 115.355C166.311 117.322 171.038 118.777 176.71 121.38L176.655 136.857C185.764 148.797 179.21 153.644 172.877 163.584C168.354 165.216 165.132 166.346 160.423 167.53L158.077 168.841C160.077 169.755 161.324 170.04 162.404 171.902C160.879 178.298 133.742 179.314 128.304 178.292L128.002 178.345C118.725 180.975 53.6245 180.433 50.9089 172.699C53.2295 169.229 66.425 168.032 70.5725 167.462L71.0045 167.299L71.8686 166.195C74.2941 163.035 75.2569 162.233 78.8675 160.901C80.6511 158.729 80.7314 155.612 80.5524 153.165C80.2067 148.396 74.6953 152.734 70.159 149.128C68.6345 147.052 68.9678 144.941 68.9369 142.245C66.5793 139.628 63.4625 136.661 60.9382 134.126C55.9452 133.982 44.0087 134.361 40.8425 130.612C39.1206 124.671 50.7485 116.133 52.5445 111.058C55.6428 102.308 34.4978 98.863 39.6761 87.6522C47.3662 83.4947 57.2165 83.9002 60.1358 80.818C60.2778 79.4211 61.1234 78.0686 61.7899 76.7877C60.7654 70.8085 57.0993 56.8019 62.9008 53.3024C65.3387 53.0253 66.3077 53.5895 68.616 54.4111C72.5166 55.7908 78.528 58.6353 82.1262 60.8101C84.2494 59.9125 91.668 57.4347 92.5814 56.4062Z" fill="#F6C758"/>
<path d="M124.781 118.052L141.254 113.352C147.698 115.209 166.065 120.631 171.49 123.115C175.496 124.81 173.909 132.082 173.342 135.868C173.175 136.99 168.114 138.488 167.299 139.586C161.115 147.998 158.449 158.639 171.422 161.449C167.17 162.936 163.417 164.206 159.072 165.457L160.424 167.528L158.079 168.84C160.078 169.753 161.325 170.039 162.405 171.9C160.881 178.297 133.743 179.313 128.305 178.291L128.003 178.344C118.727 180.974 53.6258 180.431 50.9102 172.697C53.2308 169.227 66.4262 168.03 70.5737 167.461L71.0057 167.298L71.8698 166.194C74.2954 163.033 75.2582 162.231 78.8687 160.899L82.2015 161.894L82.2818 160.886C82.1151 157.183 81.9053 153.095 81.43 149.433C85.7072 151.786 86.8736 152.63 91.8358 153.348C101.495 154.745 102.526 147.185 97.5942 140.894C96.903 140.009 97.0758 140.739 96.6623 139.439L98.2669 137.716L99.6741 136.852C98.0201 135.782 97.2918 135.275 95.8229 133.968C94.5638 131.849 95.0699 129.175 95.2427 126.656C98.2422 125.001 104.377 123.411 107.809 122.835C110.333 121.938 110.821 121.842 113.437 121.535L114.573 120.489L124.781 118.052Z" fill="#C39264"/>
<path d="M99.6741 136.852C109.876 156.795 95.1131 151.149 94.8292 158.54C97.5139 162.909 122.084 172.028 127.756 173.853C135.65 174.206 151.419 168.284 159.072 165.456L160.424 167.528L158.079 168.839C160.078 169.753 161.325 170.038 162.405 171.9C160.881 178.296 133.743 179.312 128.305 178.29L128.003 178.343C118.727 180.973 53.6258 180.431 50.9102 172.696C53.2308 169.227 66.4262 168.03 70.5737 167.46L71.0057 167.297L71.8698 166.193C74.2954 163.033 75.2582 162.231 78.8687 160.899L82.2015 161.894L82.2818 160.885C82.1151 157.182 81.9053 153.094 81.43 149.433C85.7072 151.785 86.8736 152.629 91.8358 153.348C101.495 154.744 102.526 147.184 97.5942 140.893C96.903 140.008 97.0758 140.739 96.6623 139.438L98.2669 137.716L99.6741 136.852Z" fill="#362B23"/>
<path d="M95.8599 163.898C103.964 167.408 121.307 174.38 128.003 178.344C118.727 180.974 53.6258 180.432 50.9102 172.697C53.2308 169.228 66.4262 168.031 70.5737 167.461C71.0737 169.908 71.3884 172.093 73.7276 173.571C79.9118 177.485 89.8053 177.903 94.5946 171.561C96.0635 169.619 95.8414 166.271 95.8599 163.898Z" fill="#ECD1B9"/>
<path d="M82.8018 153.336C84.4435 154.164 91.8251 156.605 91.7758 157.705C91.5844 162.003 94.8185 166.708 92.1708 170.49C89.2083 174.719 76.1177 173.92 74.0625 169.291C75.445 165.008 80.5306 164.323 82.2032 161.894L82.2834 160.885C82.8265 157.766 82.8142 156.514 82.8018 153.336Z" fill="#EBBD64"/>
<path d="M158.078 168.84C160.077 169.753 161.324 170.039 162.404 171.9C160.88 178.297 133.742 179.313 128.305 178.291C138.13 175.371 148.271 171.954 158.078 168.84Z" fill="#ECD1B9"/>
<path d="M95.2417 126.656C102.315 128.352 123.429 135.529 128.051 136.181C129.829 138.796 129.014 153.886 129.064 157.934C128.792 160.701 128.317 172.447 127.755 173.853C122.083 172.029 97.5129 162.91 94.8281 158.541C95.112 151.15 109.875 156.795 99.6731 136.852C98.019 135.782 97.2908 135.275 95.8219 133.968C94.5628 131.849 95.0689 129.175 95.2417 126.656Z" fill="#D7AC7E"/>
<path d="M124.781 118.052L141.254 113.352C147.697 115.209 166.065 120.631 171.49 123.115C166.83 125.184 160.516 126.456 157.233 127.99L155.548 129.045L153.505 128.686L153.764 127.663C150.216 125.659 129.54 119.522 124.781 118.052Z" fill="#D7AC7E"/>
<path d="M95.2422 126.658C98.2417 125.002 104.377 123.412 107.808 122.836C112.604 123.053 127.213 126.726 130.737 128.876L130.842 129.36C123.966 128.992 125.984 133.103 121.979 132.612L122.195 133.204C123.775 133.726 126.793 134.654 128.077 135.565L128.052 136.182C123.429 135.53 102.315 128.353 95.2422 126.658Z" fill="#C69B6E"/>
<path d="M114.57 120.488L124.779 118.051C129.537 119.521 150.213 125.658 153.762 127.662L153.502 128.685L153.336 129.18C150.213 128.941 146.547 130.68 143.732 132.017C139.202 128.193 120.946 123.943 114.57 120.488Z" fill="#ECD1B9"/>
<path d="M153.504 128.688L155.547 129.047C155.936 132.491 156.306 136.89 157.078 140.19C153.764 141.672 148.221 143.327 144.629 144.516C144.666 140.946 144.432 137.826 144.185 134.284L143.734 132.02C146.549 130.683 150.215 128.943 153.338 129.183L153.504 128.688Z" fill="#ECD1B9"/>
<path d="M143.734 132.02C146.549 130.683 150.215 128.943 153.338 129.182C150.659 130.248 146.524 131.447 144.543 133.126L144.185 134.284L143.734 132.02Z" fill="#C39264"/>
<path d="M113.437 121.535C119.764 123.822 136.347 128.971 141.248 131.738C139.044 132.658 132.262 134.742 131.311 135.483L128.077 135.564C126.793 134.652 123.775 133.725 122.195 133.202L121.979 132.611C125.985 133.102 123.967 128.991 130.842 129.359L130.737 128.874C127.213 126.724 112.604 123.052 107.809 122.835C110.333 121.938 110.82 121.842 113.437 121.535Z" fill="#D7AC7E"/>
<path d="M113.438 121.534L114.573 120.488C120.949 123.943 139.205 128.193 143.735 132.017L144.186 134.281C144.433 137.823 144.667 140.944 144.63 144.513C148.222 143.324 153.765 141.669 157.079 140.188L158.258 140.329L158.264 141.238C156.474 142.476 146.087 145.677 143.346 146.577C142.495 141.657 142.593 136.51 141.248 131.737C136.348 128.97 119.764 123.82 113.438 121.534Z" fill="#45311F"/>
<path d="M131.31 135.484C128.285 139.584 132.069 156.414 129.063 157.936C129.014 153.887 129.828 138.797 128.051 136.182L128.075 135.565L131.31 135.484Z" fill="#795A3C"/>
<path d="M157.232 127.988C156.664 130.856 157.676 137.394 158.256 140.328L157.078 140.187C156.306 136.886 155.936 132.487 155.547 129.043L157.232 127.988Z" fill="#795A3C"/>
<path d="M92.5812 56.4062C93.4699 52.7697 98.2963 42.7657 101.685 40.8527C107.116 37.789 110.461 46.7671 112.146 50.5227C113.368 52.9796 114.238 54.7951 115.238 57.3501C118.441 58.3804 121.614 59.4866 124.761 60.6681C129.285 58.4359 134.791 55.4994 139.475 53.9309C141.722 53.0154 142.221 52.7024 144.604 52.916C148.671 55.7982 146.159 62.0737 146.431 66.6139C145.943 69.7245 145.4 72.8845 145.116 76.0148C146.492 78.2717 147.468 79.8866 149.072 81.999C153.652 82.1984 164.07 83.6657 167.347 86.8818C168.724 88.5603 168.396 87.7467 168.52 89.9751C166.008 95.8926 159.787 100.546 155.547 105.406C155.145 108.268 155.38 109.23 157.139 111.543C158.157 112.86 159.231 114.132 160.361 115.355C166.31 117.322 171.038 118.777 176.71 121.38L176.654 136.857C185.764 148.797 179.21 153.644 172.877 163.584C168.353 165.216 165.131 166.346 160.422 167.53L159.071 165.458C163.416 164.207 167.168 162.938 171.421 161.45C158.447 158.64 161.114 147.999 167.298 139.587C168.113 138.49 173.173 136.991 173.34 135.87C173.908 132.083 175.494 124.811 171.489 123.116C166.063 120.632 147.696 115.21 141.253 113.353L124.78 118.053L114.572 120.491L113.436 121.537C110.819 121.843 110.331 121.939 107.807 122.836C104.376 123.413 98.2407 125.002 95.2412 126.658C95.0684 129.177 94.5623 131.85 95.8214 133.969C97.2903 135.276 98.0186 135.783 99.6726 136.854L98.2654 137.718C90.2605 134.868 85.0329 141.38 80.0399 136.206L80.1263 134.969L81.194 134.524L82.8048 135.885C83.959 136.167 90.3963 134.445 92.7663 134.104L92.7972 123.845C103.944 120.351 117.176 117.271 128.619 114.461C133.47 113.44 138.278 111.475 143.388 110.644C145.894 112.276 148.751 112.807 151.627 113.479C156.287 57.5384 84.8354 37.9218 59.2098 87.5961C58.105 85.9867 58.8148 86.517 57.0867 85.8503C51.4641 86.409 45.7428 87.5003 40.8855 90.5646C40.6448 89.793 40.0152 88.4485 39.6758 87.6522C47.3659 83.4947 57.2163 83.9002 60.1356 80.818C60.2775 79.4211 61.1231 78.0686 61.7897 76.7877C60.7651 70.8085 57.099 56.8019 62.9005 53.3024C65.3384 53.0253 66.3074 53.5895 68.6157 54.4111C72.5163 55.7908 78.5278 58.6353 82.126 60.8101C84.2491 59.9125 91.6677 57.4347 92.5812 56.4062Z" fill="#3D291E"/>
<path d="M139.474 53.9308C141.72 53.0153 142.22 52.7023 144.603 52.9159C148.67 55.7981 146.158 62.0736 146.43 66.6139L143.621 68.7689C143.381 70.2349 143.115 71.5899 142.813 73.0449L142.029 73.2418C136.709 68.0139 133.574 65.9817 127.414 62.1551C133.246 59.4636 137.845 57.5185 143.862 55.2746C142.011 55.6037 141.424 55.8388 139.696 55.061L139.054 55.7277L138.807 55.6746C139.684 54.7407 139.437 55.2913 139.474 53.9308Z" fill="#EBBD64"/>
<path d="M139.475 53.9308C141.722 53.0153 142.222 52.7023 144.604 52.9159C148.671 55.7981 146.159 62.0736 146.431 66.6139L143.623 68.7689C143.962 65.3447 144.913 58.2692 143.863 55.2746C142.012 55.6037 141.426 55.8388 139.697 55.061L139.055 55.7277L138.809 55.6746C139.685 54.7407 139.438 55.2913 139.475 53.9308Z" fill="#16120E"/>
<path d="M150.047 84.9766C155.213 85.9562 161.508 87.0797 166.23 89.1847C166.828 90.1946 166.396 89.9205 167.39 90.2267L166.643 87.7094L167.347 86.8785C168.723 88.5569 168.396 87.7433 168.519 89.9718C166.007 95.8893 159.786 100.543 155.546 105.402L155.157 102.296C154.262 100.931 151.516 88.6254 150.047 84.9766Z" fill="#EBBD64"/>
<path d="M167.346 86.8789C168.722 88.5574 168.395 87.7438 168.518 89.9722C166.006 95.8897 159.785 100.544 155.545 105.403L155.156 102.296C159.186 98.1354 163.457 94.2279 166.229 89.1852C166.827 90.1951 166.395 89.921 167.389 90.2272L166.642 87.7098L167.346 86.8789Z" fill="#281E18"/>
<path d="M62.0312 57.7809L62.8212 56.4654C66.7403 56.0808 75.4489 60.4205 79.2014 62.2798C72.2148 66.462 69.4683 68.7164 63.7779 74.6912C63.1483 69.059 62.5682 63.4224 62.0312 57.7809Z" fill="#EBBD64"/>
<path d="M103.761 41.8281C106.73 46.3178 110.075 51.8827 112.285 56.7921C109.174 56.6471 96.1266 56.7607 94.8984 56.5687L97.8856 50.4691C99.8174 47.5709 101.774 44.6906 103.761 41.8281Z" fill="#EBBD64"/>
<path d="M61.7891 76.7871C60.7646 70.8079 57.0984 56.8013 62.9 53.3018C65.3379 53.0246 66.3069 53.5889 68.6151 54.4105C66.06 54.8531 64.2455 54.1179 62.0174 55.0506L61.4434 56.1315L62.0298 57.7834C62.5668 63.425 63.1469 69.0615 63.7764 74.6938C62.721 77.2908 62.5852 78.9717 60.6967 80.8866L60.135 80.8174C60.2769 79.4205 61.1225 78.068 61.7891 76.7871Z" fill="#281E18"/>
<path d="M92.582 56.4062C93.4708 52.7697 98.2972 42.7657 101.686 40.8527C107.117 37.789 110.462 46.7671 112.147 50.5227C107.666 47.2202 108.882 43.0626 103.765 41.3194C101.044 42.0182 97.538 47.6702 97.8837 50.469L94.8965 56.5686L92.582 56.4062Z" fill="#281E18"/>
<path d="M170.563 139.242C180.895 139.614 180.056 152.599 172.31 158.236C161.571 156.543 170.1 156.32 165.478 150.736C164.959 147.581 168.767 142.312 170.563 139.242Z" fill="#EBBD64"/>
<path d="M57.087 85.8477C58.8151 86.5143 58.1053 85.9841 59.2101 87.5934C54.1121 100.852 53.8591 111.503 59.3274 125.172C60.9876 129.307 65.5301 136.491 69.6591 139.106C70.4491 139.605 71.1403 137.11 72.6153 139.352C75.6457 143.951 76.6086 146.311 81.4288 149.432C81.904 153.093 82.1139 157.182 82.2805 160.884L82.2003 161.893L78.8675 160.898C80.6511 158.726 80.7314 155.61 80.5524 153.162C80.2067 148.393 74.6953 152.731 70.159 149.125C68.6345 147.049 68.9678 144.938 68.9369 142.242C66.5793 139.625 63.4625 136.658 60.9382 134.124C55.9452 133.979 44.0087 134.358 40.8425 130.609C39.1206 124.669 50.7485 116.13 52.5445 111.055C55.6428 102.305 34.4978 98.8604 39.6761 87.6496C40.0155 88.4459 40.6451 89.7903 40.8858 90.562C45.7431 87.4977 51.4644 86.4063 57.087 85.8477Z" fill="#281E18"/>
<path d="M40.8867 90.562C45.744 87.4977 51.4653 86.4063 57.0879 85.8477C54.0143 92.9793 53.7612 96.9924 52.7552 104.439C49.1138 100.978 42.4667 95.2041 40.8867 90.562Z" fill="#EBBD64"/>
<path d="M52.8358 115.781C52.5519 115.493 59.1434 130.51 60.3531 132.65L52.3667 131.892C48.9228 131.492 45.6641 130.857 42.2695 130.225C45.2197 125.019 48.7685 120.172 52.8358 115.781Z" fill="#EBBD64"/>
<path d="M128.62 114.459C128.472 113.652 128.342 112.842 128.231 112.03C127.842 109.166 127.62 107.381 129.552 105.05C131.033 103.254 133.231 102.195 135.557 102.153C140.655 102.084 143.42 105.804 143.389 110.642C138.279 111.472 133.471 113.438 128.62 114.459Z" fill="#EA9F58"/>
<path d="M71.6891 102.597C75.9601 101.986 79.9472 104.875 80.694 109.126C81.4469 113.377 78.6819 117.456 74.4603 118.341C71.6027 118.94 68.6464 117.935 66.7516 115.719C64.8507 113.503 64.3076 110.429 65.3383 107.697C66.3629 104.966 68.8007 103.011 71.6891 102.597Z" fill="#EA9F58"/>
<path d="M93.7344 108.773C97.0487 108.945 99.3199 111.833 102.77 111.767C105.918 111.707 108.874 109.955 112.46 109.551C113.046 111.286 112.645 111.082 111.657 113.354C110.59 114.871 109.288 116.54 107.547 117.311C105.381 118.255 102.912 118.227 100.758 117.235C96.9623 115.505 95.2095 112.416 93.7344 108.773Z" fill="#38231E"/>
<path d="M107.839 113.243C108.326 113.107 107.999 113.153 108.826 113.403L107.974 114.643C105.358 116.205 104.858 116.117 101.87 115.963C100.735 115.212 100.494 114.957 99.5312 114.046C100.655 113.286 105.802 113.383 107.839 113.243Z" fill="#D7AC7E"/>
<path d="M84.5938 93.5625C92 94.6354 92.0309 101.158 87.1304 105.728C79.323 105.374 79.1193 98.2293 84.5938 93.5625Z" fill="#45311F"/>
<path d="M120.539 93.5586C128.173 93.9672 128.537 101.013 123.526 105.68C122.125 105.506 120.292 105.061 119.224 104.096C118.058 103.049 117.391 101.556 117.391 99.9872C117.366 96.9433 118.625 95.5525 120.539 93.5586Z" fill="#3D291E"/>
</svg>
