<svg width="220" height="220" viewBox="0 0 220 220" fill="none" xmlns="http://www.w3.org/2000/svg">
<path d="M97.8033 57.2886C99.8604 52.5045 103.17 43.7833 107.444 41.0758C112.818 37.6701 116.7 48.4235 118.395 51.9477L120.893 57.4658C123.807 58.4399 127.692 59.6121 130.408 60.8739C133.437 59.035 136.181 57.2645 139.468 55.8904C145.707 53.0434 152.026 49.6551 151.334 59.9597C151.312 65.6703 150.288 70.3835 149.871 75.8947C151.196 77.8929 152.623 80.1418 153.999 82.0727C159.136 82.94 170.368 84.2196 173.563 88.2253C174.442 94.1372 164.624 102.156 160.271 106.168C159.83 108.201 159.342 108.759 160.527 110.659C163.067 114.729 167.542 118.692 169.906 122.699L169.254 123.596L169.516 124.979L168.779 125.767C166.773 123.298 161.426 116.308 159.046 114.871C158.409 114.47 157.371 113.596 156.738 113.099C154.659 124.429 151.702 130.273 144.16 139.24C144.634 139.275 141.064 137.824 140.993 137.8L141.072 139.193L141.411 141.799C139.116 147.496 136.626 150.863 130.1 151.652L124.512 151.084C123.371 152.094 122.524 152.727 121.669 154.007C119.757 154.637 119.149 154.924 117.171 155.054L116.655 154.465L116.598 153.995C115.48 152.955 113.48 153.163 111.601 152.996C110.125 152.894 106.405 153.036 104.778 153.054L106.169 154.009L105.645 154.979L103.264 155.396L101.411 154.845L92.3498 154.837L90.2872 154.32C84.2671 150.354 78.4964 156.166 74.7908 153.75C72.9504 150.015 72.9788 143.881 72.6936 139.532C72.7035 140.125 67.7845 133.489 67.3673 132.867C61.8854 132.588 49.8534 132.867 47.4846 127.426C47.9537 123.542 53.6022 118.087 56.1314 115.21C66.7415 103.91 46.5977 99.9862 44.9733 89.9346C44.0506 84.2264 61.2535 82.732 64.7338 82.7332C66.1984 80.3788 67.9802 78.0343 69.6243 75.7817C67.8067 71.2989 65.7632 57.2417 69.4201 53.4206C71.6802 52.9613 72.0086 53.2619 74.281 54.1033C79.4833 55.9991 83.5561 57.9855 88.4097 60.6628C91.5123 59.5566 94.734 58.4578 97.8033 57.2886Z" fill="#F6C758"/>
<path d="M97.8033 57.2886C99.8604 52.5045 103.17 43.7833 107.444 41.0758C112.818 37.6701 116.7 48.4235 118.395 51.9477L120.893 57.4658C123.807 58.4399 127.692 59.6121 130.408 60.8739C133.437 59.035 136.181 57.2645 139.468 55.8904C145.707 53.0434 152.026 49.6551 151.334 59.9597C151.312 65.6703 150.288 70.3835 149.871 75.8947C151.196 77.8929 152.623 80.1418 153.999 82.0727C159.136 82.94 170.368 84.2196 173.563 88.2253C174.442 94.1372 164.624 102.156 160.271 106.168C159.83 108.201 159.342 108.759 160.527 110.659C163.067 114.729 167.542 118.692 169.906 122.699L169.254 123.596L169.516 124.979L168.779 125.767C166.773 123.298 161.426 116.308 159.046 114.871C158.409 114.47 157.371 113.596 156.738 113.099C157.664 98.8584 155.741 87.7309 145.99 76.5034C137.23 66.4481 124.818 60.3097 111.512 59.4516C99.1691 58.7689 86.2063 63.219 77.0979 71.6267C67.8697 80.1387 62.4224 91.9835 61.9651 104.531C61.6737 114.22 64.2678 124.967 70.2749 132.709C71.653 134.486 75.616 140.168 77.5565 140.324L78.0039 139.795C79.4055 138.153 79.6784 137.59 81.7675 137.166L83.5938 137.03L92.0196 134.984C92.1048 131.451 91.3876 123.723 95.6845 123.247C96.6609 122.441 97.8341 120.985 98.7025 119.979C101.122 117.889 103.317 118.698 106.237 119.221L110.102 122.234L109.362 126.456C109.076 127.728 108.821 129.153 108.356 130.345L108.447 130.862C110.19 131.136 110.266 131.175 111.916 130.666C111.628 135.917 112.455 138.102 114.072 143.099C117.957 147.939 118.813 148.673 124.512 151.084C123.371 152.094 122.524 152.727 121.669 154.007C119.757 154.637 119.149 154.924 117.171 155.054L116.655 154.465L116.598 153.995C115.48 152.955 113.48 153.163 111.601 152.996C110.125 152.894 106.405 153.036 104.778 153.054L106.169 154.009L105.645 154.979L103.264 155.396L101.411 154.845L92.3498 154.837L90.2872 154.32C84.2671 150.354 78.4964 156.166 74.7908 153.75C72.9504 150.015 72.9788 143.881 72.6936 139.532C72.7035 140.125 67.7845 133.489 67.3673 132.867C61.8854 132.588 49.8534 132.867 47.4846 127.426C47.9537 123.542 53.6022 118.087 56.1314 115.21C66.7415 103.91 46.5977 99.9862 44.9733 89.9346C44.0506 84.2264 61.2535 82.732 64.7338 82.7332C66.1984 80.3788 67.9802 78.0343 69.6243 75.7817C67.8067 71.2989 65.7632 57.2417 69.4201 53.4206C71.6802 52.9613 72.0086 53.2619 74.281 54.1033C79.4833 55.9991 83.5561 57.9855 88.4097 60.6628C91.5123 59.5566 94.734 58.4578 97.8033 57.2886Z" fill="#38291E"/>
<path d="M98.7051 119.98C101.124 117.89 103.319 118.699 106.239 119.222L110.105 122.235L109.365 126.457C109.079 127.729 108.823 129.154 108.358 130.346L108.45 130.863C109.342 135.184 108.272 141.219 105.771 144.914C103.415 148.437 99.7197 150.842 95.5445 151.571C89.1609 152.67 81.3973 150.085 80.2974 142.88C80.0333 141.153 81.1535 138.771 81.7701 137.167L83.5963 137.032L92.0222 134.985C92.1073 131.452 91.3901 123.724 95.687 123.248C96.6634 122.442 97.8367 120.986 98.7051 119.98Z" fill="#F6C758"/>
<path d="M98.7016 119.98C101.121 117.89 103.316 118.699 106.236 119.222L110.101 122.235L109.361 126.457C109.075 127.729 108.82 129.154 108.355 130.346C105.576 115.482 101.053 124.545 97.1229 124.9L95.6836 123.248C96.66 122.442 97.8333 120.986 98.7016 119.98Z" fill="#38291E"/>
<path d="M69.6267 75.7828C67.8091 71.3 65.7656 57.2428 69.4224 53.4217C71.6825 52.9624 72.0109 53.263 74.2834 54.1044C75.261 55.7909 75.8751 55.9829 77.5977 56.8737C75.219 56.1175 75.3684 56.7039 72.8207 56.5983C76.7546 58.2971 81.6254 60.2478 85.3458 62.2207C79.1641 66.3795 76.8052 68.2517 71.2277 73.4871C70.737 74.1624 70.0137 75.0803 69.6267 75.7828Z" fill="#EBBD64"/>
<path d="M69.6267 75.7828C67.8091 71.3 65.7656 57.2428 69.4224 53.4217C71.6825 52.9624 72.0109 53.263 74.2834 54.1044C75.261 55.7909 75.8751 55.9829 77.5977 56.8737C75.219 56.1175 75.3684 56.7039 72.8207 56.5983L70.874 56.4138C69.0138 58.7854 70.0846 64.2485 70.4512 67.2776L71.2277 73.4871C70.737 74.1624 70.0137 75.0803 69.6267 75.7828Z" fill="#281E18"/>
<path d="M155.137 85.0859C158.934 85.9551 168.727 87.9922 171.637 90.0663L171.869 88.8928L173.562 88.2255C174.441 94.1374 164.623 102.156 160.27 106.168L159.958 103.317C158.356 96.2424 157.525 91.9898 155.137 85.0859Z" fill="#EBBD64"/>
<path d="M171.64 90.0674L171.873 88.8939L173.566 88.2266C174.444 94.1385 164.627 102.157 160.273 106.169L159.961 103.318C164.516 98.9615 168.102 95.286 171.64 90.0674Z" fill="#281E18"/>
<path d="M142.955 57.2834C145.286 56.6883 146.489 55.916 148.383 56.6315C149.059 58.468 148.905 59.0402 148.836 61.0538C148.157 62.7113 147.69 71.8677 147.519 74.2536C142.59 68.7109 139.156 66.0435 132.727 62.4909C135.7 60.7594 139.807 58.8556 142.955 57.2834Z" fill="#F6C758"/>
<path d="M103.615 152.819L102.805 152.311C103.979 150.148 105.178 150.267 106.345 148.632C107.674 146.772 109.048 143.001 109.886 140.797L110.328 140.879L111.339 143.75L114.071 143.101C117.956 147.942 118.812 148.675 124.511 151.086C123.37 152.096 122.523 152.729 121.668 154.009C119.756 154.639 119.148 154.926 117.17 155.057L116.654 154.467L116.597 153.997C115.479 152.957 113.479 153.165 111.6 152.998C110.125 152.896 106.404 153.038 104.777 153.056L103.615 152.819Z" fill="#EBBD64"/>
<path d="M114.072 143.098C117.957 147.939 118.813 148.672 124.512 151.083C123.371 152.093 122.524 152.726 121.669 154.006C119.756 154.636 119.149 154.923 117.17 155.054L116.655 154.464L116.598 153.994C115.48 152.954 113.48 153.162 111.6 152.995C113.806 152.822 115.939 152.957 117.602 151.682C117.104 149.556 113.912 147.558 111.723 144.322L111.34 143.747L114.072 143.098Z" fill="#38291E"/>
<path d="M109.239 41.7969C112.234 46.681 115.656 52.1546 118.11 57.3245C111.315 56.48 107.231 57.2041 100.738 57.0165L103.137 51.6984C105.002 48.6354 107.251 44.6914 109.239 41.7969Z" fill="#F6C758"/>
<path d="M97.8047 57.2886C99.8618 52.5045 103.172 43.7833 107.445 41.0758C112.82 37.6701 116.701 48.4235 118.396 51.9477L117.514 52.4162C115.485 49.5804 114.811 46.0525 112.251 43.3129C107.943 38.6998 107.212 42.2592 105.134 45.8858C104.017 47.8371 102.767 48.4649 102.326 50.902L103.139 51.6983L100.74 57.0164L97.8047 57.2886Z" fill="#281E18"/>
<path d="M139.469 55.8928C145.707 53.0458 152.027 49.6574 151.334 59.962L150.417 60.2558C150.292 59.5639 150.078 57.9206 149.781 57.4045C149.528 58.4181 149.154 60.1262 148.839 61.0552C148.908 59.0416 149.062 58.4694 148.386 56.6329C146.492 55.9174 145.289 56.6897 142.958 57.2848L139.469 55.8928Z" fill="#281E18"/>
<path d="M103.615 152.816L104.777 153.053L106.168 154.008L105.645 154.978L103.264 155.395L101.41 154.844L101.639 153.563L103.615 152.816Z" fill="#2F291C"/>
<path d="M61.2701 86.0078L62.4779 86.0498C62.7156 86.877 59.5309 101.038 59.1019 103.735L54.3471 98.5946C51.1692 95.1488 49.7941 93.6333 47.1797 89.6141C52.2147 87.4819 55.9999 86.8344 61.2701 86.0078Z" fill="#EBBD64"/>
<path d="M59.3747 115.359C59.9049 115.953 64.3801 128.302 66.1848 131.286L57.4892 130.075C54.9304 129.827 51.8876 128.97 49.3398 128.339C52.332 123.345 55.5988 119.711 59.3747 115.359Z" fill="#EBBD64"/>
<path d="M75.4062 142.973C76.1049 143.535 80.6283 150.169 81.538 151.429C79.3124 152.115 78.6088 152.639 76.569 151.526C75.2174 149.307 75.4711 145.722 75.4062 142.973Z" fill="#EBBD64"/>
<path d="M116.584 118.489C120.432 118.19 121.924 120.073 122.629 120.055C137.805 119.676 123.453 135.453 138.932 132.319C139.512 134.894 137.567 135.189 138.408 137.546C139.618 137.976 139.771 138.177 140.993 137.802L141.072 139.195L141.41 141.8C139.115 147.497 136.626 150.865 130.1 151.654L124.512 151.086C118.812 148.675 117.956 147.941 114.072 143.1C112.455 138.104 111.628 135.919 111.915 130.668C110.266 131.177 110.189 131.138 108.447 130.864L108.355 130.347C108.82 129.155 109.076 127.73 109.361 126.458L110.102 122.236L110.908 121.92C112.742 119.648 113.914 119.422 116.584 118.489Z" fill="#F6C758"/>
<path d="M116.584 118.489C120.432 118.19 121.924 120.073 122.629 120.055C137.805 119.676 123.453 135.453 138.932 132.319C139.512 134.894 137.567 135.189 138.408 137.546C139.618 137.976 139.771 138.177 140.993 137.802L141.072 139.195C139.512 139.429 130.045 134.828 129.577 133.916C128.207 131.25 129.912 124.267 125.22 122.87L123.778 125.381C120.792 125.212 120.541 120.293 116.035 121.434C113.156 123.782 112.681 126.949 112.041 130.402L111.915 130.668C110.266 131.177 110.189 131.138 108.447 130.864L108.355 130.347C108.82 129.155 109.076 127.73 109.361 126.458L110.102 122.236L110.908 121.92C112.742 119.648 113.914 119.422 116.584 118.489Z" fill="#45311F"/>
<path d="M110.224 126.495L111.635 127.396L112.041 130.401L111.915 130.667C110.266 131.176 110.189 131.137 108.447 130.863L108.355 130.346C108.82 129.154 109.076 127.729 109.361 126.457L110.224 126.495Z" fill="#38291E"/>
<path d="M110.099 122.235L110.906 121.918C110.831 123.839 110.938 124.751 110.222 126.495L109.359 126.456L110.099 122.235Z" fill="#C39264"/>
<path d="M106.728 118.794C104.221 117.086 100.502 113.441 100.555 110.243L101.479 109.461C103.874 109.398 105.965 110.928 108.173 112.146C112.163 111.363 116.177 109.981 120.067 108.75C118.793 111.485 117.712 113.603 116.246 116.239L116.585 118.487C113.915 119.419 112.743 119.646 110.909 121.917L110.103 122.234L106.237 119.22L106.728 118.794Z" fill="#38231E"/>
<path d="M116.243 116.238L116.582 118.486C113.913 119.419 112.74 119.645 110.906 121.916L110.1 122.233L106.234 119.219L106.726 118.793C111.491 118.954 112.502 119.096 116.243 116.238Z" fill="#EBBD64"/>
<path d="M113.318 113.26L114.545 112.934L114.962 113.501C112.959 116.357 110.953 116.705 107.748 116.982C106.195 115.995 105.732 115.886 104.977 114.306C106.023 113.508 111.214 113.508 113.318 113.26Z" fill="#D7AC7E"/>
<path d="M83.5938 137.03C82.3939 135.442 80.8929 133.886 82.3415 132.079C96.6183 137.335 83.653 118.91 98.7025 119.978C97.8341 120.984 96.6608 122.44 95.6844 123.246C91.3876 123.722 92.1048 131.45 92.0196 134.983L83.5938 137.03Z" fill="#45311F"/>
<path d="M76.2917 103.384C80.3583 101.835 84.9125 103.86 86.487 107.918C88.0608 111.976 86.0642 116.544 82.0173 118.143C77.934 119.757 73.3175 117.739 71.7294 113.645C70.1414 109.551 72.1886 104.947 76.2917 103.384Z" fill="#EA9F58"/>
<path d="M137.87 102.714C141.945 101.4 146.322 103.581 147.727 107.626C149.132 111.67 147.051 116.096 143.04 117.593C140.364 118.592 137.357 118.063 135.182 116.211C133.006 114.359 132.004 111.474 132.562 108.672C133.12 105.87 135.151 103.59 137.87 102.714Z" fill="#EA9F58"/>
<path d="M126.137 93.5938C133.881 94.2691 133.119 101.228 129.229 106.105C121.218 105.345 121.372 98.5803 126.137 93.5938Z" fill="#45311F"/>
<path d="M90.8831 93.6484C97.9592 95.7034 97.5815 101.489 92.8408 105.972C85.1951 104.983 85.6099 97.993 90.8831 93.6484Z" fill="#45311F"/>
<path d="M124.512 151.086L130.1 151.654C130.929 152.755 130.418 152.359 131.685 152.888L130.966 152.94C130.644 153.307 130.389 153.647 130.016 153.948L130.432 160.387C134.447 162.526 136.644 164.159 139.685 167.61L140.106 167.639C144.701 167.946 162.687 168.775 164.034 172.827C163.897 173.029 163.772 173.238 163.624 173.432C160.773 177.164 140.42 178.42 135.67 178.821C122.763 179.91 64.9487 180.857 57.0567 173.87C56.6438 173.505 56.7661 173.226 56.7266 172.703C60.9469 168.893 75.8791 168.014 82.1466 167.077C87.2378 159.297 88.4481 166.228 90.2873 154.322L92.35 154.839L101.411 154.847L103.264 155.398L105.645 154.981L106.169 154.011L104.778 153.056C106.405 153.038 110.126 152.896 111.601 152.998C113.48 153.165 115.48 152.957 116.598 153.997L116.655 154.467L117.171 155.056C119.149 154.926 119.757 154.639 121.669 154.009C122.524 152.729 123.371 152.096 124.512 151.086ZM106.442 166.529C108.304 165.464 109.467 164.459 111.5 164.723C112.573 165.372 113.521 165.923 114.535 166.676C114.366 163.021 114.471 158.629 114.46 154.913C111.686 154.99 108.914 155.111 106.144 155.276C106.355 159.023 106.454 162.776 106.442 166.529Z" fill="#ECD1B9"/>
<path d="M124.512 151.086L130.1 151.654C130.929 152.755 130.418 152.359 131.685 152.888L130.966 152.94C130.644 153.307 130.389 153.647 130.016 153.948L130.432 160.387C134.446 162.526 136.643 164.159 139.684 167.61L140.106 167.639L139.213 168.182C138.158 174.053 136.432 176.048 130.423 176.345C123.144 176.703 114.573 175.7 114.534 166.676C114.366 163.021 114.47 158.629 114.459 154.913C111.686 154.99 108.914 155.111 106.144 155.276L105.645 154.981L106.168 154.011L104.777 153.056C106.405 153.038 110.125 152.896 111.6 152.998C113.48 153.165 115.48 152.957 116.598 153.997L116.655 154.467L117.17 155.056C119.149 154.926 119.756 154.639 121.669 154.009C122.524 152.729 123.371 152.096 124.512 151.086Z" fill="#EBBD64"/>
<path d="M124.512 151.086L130.1 151.654C130.929 152.755 130.418 152.359 131.685 152.888L130.966 152.94C130.644 153.307 130.389 153.647 130.016 153.948L130.432 160.387C134.446 162.526 136.643 164.159 139.684 167.61L140.106 167.639L139.213 168.182C138.158 174.053 136.432 176.048 130.423 176.345C123.144 176.703 114.573 175.7 114.534 166.676C114.366 163.021 114.47 158.629 114.459 154.913C111.686 154.99 108.914 155.111 106.144 155.276L105.645 154.981L106.168 154.011L104.777 153.056C106.405 153.038 110.125 152.896 111.6 152.998C113.48 153.165 115.48 152.957 116.598 153.997L116.655 154.467L117.17 155.056C115.995 158.949 115.834 168.823 119.518 171.477C123.659 174.458 131.461 174.979 134.865 170.811C136.161 166.01 131.873 165.269 128.114 163.969C127.634 160.828 128.122 157.543 126.718 155.039C124.537 153.666 124.589 154.105 121.669 154.009C122.524 152.729 123.371 152.096 124.512 151.086Z" fill="#38291E"/>
<path d="M104.777 153.055C106.405 153.037 110.125 152.895 111.6 152.998C113.48 153.164 115.48 152.956 116.598 153.997L116.655 154.466C115.395 158.744 116.4 164.475 115.318 166.36L114.534 166.675C114.366 163.02 114.47 158.629 114.459 154.912C111.686 154.99 108.914 155.111 106.144 155.275L105.645 154.98L106.168 154.01L104.777 153.055Z" fill="#281E18"/>
<path d="M90.2869 154.32L92.3496 154.838L101.41 154.846L103.264 155.396L105.645 154.979L106.144 155.274C106.355 159.022 106.454 162.774 106.442 166.527C105.925 169.612 105.764 172.22 102.836 173.993C96.4785 177.841 79.109 178.927 82.1462 167.076C87.2374 159.295 88.4477 166.226 90.2869 154.32Z" fill="#EBBD64"/>
<path d="M90.2869 154.32L92.3496 154.838L92.1193 164.095C88.7717 165.294 84.2274 166.45 85.1896 170.855C88.7581 174.536 98.7621 174.485 102.244 171.073C104.283 169.074 103.363 158.387 103.264 155.396L105.645 154.979L106.144 155.274C106.355 159.022 106.454 162.774 106.442 166.527C105.925 169.612 105.764 172.22 102.836 173.993C96.4785 177.841 79.109 178.927 82.1462 167.076C87.2374 159.295 88.4477 166.226 90.2869 154.32Z" fill="#38291E"/>
<path d="M156.737 113.098C157.371 113.595 158.408 114.469 159.046 114.869C161.426 116.306 166.773 123.297 168.779 125.766L169.516 124.978L169.253 123.594L169.905 122.697C171.285 124.653 171.655 124.891 171.804 127.166C169.105 132.706 158.331 132.335 152.689 132.635C150.722 135.416 149.409 137.364 147.052 139.81C147.087 143.944 147.834 152.033 145.455 155.038C141.31 157.27 136.581 153.074 130.016 153.945C130.388 153.644 130.643 153.304 130.965 152.936L131.684 152.885C130.417 152.356 130.928 152.752 130.1 151.651C136.626 150.862 139.115 147.494 141.41 141.797L141.072 139.192L140.993 137.799C141.063 137.823 144.633 139.274 144.16 139.239C151.701 130.272 154.658 124.428 156.737 113.098Z" fill="#281E18"/>
<path d="M159.049 114.871C161.429 116.308 166.776 123.298 168.782 125.768C169.299 129.692 157.142 130.636 153.953 131.184C156.016 125.326 157.493 120.866 159.049 114.871Z" fill="#EBBD64"/>
<path d="M143.089 143.438L144.697 143.371C144.603 146.125 144.762 151.835 143.131 153.918L142.103 154.165C141.65 152.311 141.59 150.195 141.453 148.27C142.168 146.832 142.628 145.001 143.089 143.438Z" fill="#EBBD64"/>
<path d="M140.992 137.801C141.063 137.825 144.632 139.276 144.159 139.241C144.066 140.888 144.215 140.996 145.017 142.513L144.695 143.371L143.087 143.438L141.409 141.799L141.071 139.194L140.992 137.801Z" fill="#38231E"/>
<path d="M141.451 148.27C141.588 150.195 141.648 152.31 142.101 154.164C140.276 153.665 139.38 153.554 137.836 152.516C137.965 150.673 139.652 149.868 141.451 148.27Z" fill="#D7AC7E"/>
<path d="M32.101 102.82C33.5668 103.028 37.0132 104.855 37.7513 106.073C40.4892 110.594 35.9559 112.787 33.1884 114.439C29.1428 116.651 22.5833 108.091 32.101 102.82Z" fill="#DC846D"/>
<path d="M187.897 120.902C189.413 121.922 191.549 124.731 192.812 126.238C190.32 130.169 189.303 132.447 185.021 134.224C178.333 127.465 180.055 125.031 187.897 120.902Z" fill="#DC846D"/>
<path d="M32.6162 52.3984C38.6011 54.2102 44.5267 57.3412 38.8616 63.7241C31.8972 65.8173 29.929 58.0875 32.6162 52.3984Z" fill="#7895B1"/>
<path d="M172.086 47.2539C179.029 52.0738 173.712 56.711 169.109 60.1586C160.774 58.2956 168.449 49.9645 172.086 47.2539Z" fill="#D7AC7E"/>
<path d="M167.43 147.609C169.919 148.44 172.703 151.438 173.233 154.066C173.767 156.713 172.643 157.479 171.222 159.486L169.906 159.642C165.128 157.708 165.984 151.502 167.43 147.609Z" fill="#7AA18C"/>
<path d="M182.107 69.6437C184.269 69.5518 185.323 69.4209 186.801 70.566C186.531 72.908 185.967 72.9864 184.421 75.0476C182.052 75.3211 181.086 75.5964 179.695 73.5482C180.304 70.9462 179.916 71.9061 182.107 69.6437Z" fill="#79B071" fill-opacity="0.976471"/>
</svg>
