<svg width="220" height="220" viewBox="0 0 220 220" fill="none" xmlns="http://www.w3.org/2000/svg">
<path d="M92.536 59.683C94.474 55.7934 98.3375 45.6616 104.009 48.9882C106.886 50.6772 110.243 58.3749 111.379 61.672C113.835 66.8894 120.106 68.7925 125.204 66.3968C129.808 63.9078 135.35 60.1602 140.442 60.3552C145.892 63.13 142.615 74.4939 141.843 79.8064C141.38 83.2652 144.485 87.5591 147.811 88.2542C152.088 88.7079 162.618 89.5999 165.105 92.9772C166.728 98.273 157.217 107.866 153.175 111.125C152.49 113.664 152.564 114.718 152.545 117.277L157.804 123.952C160.334 127.08 167.87 134.829 161.482 138.191C157.995 140.028 149.749 140.261 145.546 140.402C144.411 142.142 142.207 145.974 140.491 146.85L141.491 151.609C142.787 162.293 132.252 168.568 123.747 161.951L122.556 161.072C121.494 162.544 121.927 166.19 122.038 168.199C125.5 170.191 128.154 171.383 130.789 174.407C137.041 175.596 150.737 176.372 154.89 180.587L154.841 181.617C145.083 188.635 61.2322 189.173 49.5489 182.048L48.9255 180.865C52.0238 176.745 68.1448 175.291 73.6377 175.002C76.5262 171.736 78.137 171.036 81.9821 168.948C83.3708 154.754 78.242 158.715 68.7126 162.559C58.4549 166.697 61.5223 152.424 62.2753 147.071C60.5163 145.047 58.461 143.085 57.7081 140.567L51.061 139.922C35.5449 140.224 33.7736 133.249 44.8397 123.034C46.2963 120.855 48.2281 118.95 50.0241 117.031C50.1969 114.624 50.1907 114.294 49.5242 111.98C45.21 107.839 34.1501 98.3218 36.9089 92.1469C44.4571 89.6123 48.8329 88.9956 56.6465 88.3184C57.56 86.4387 58.6462 85.1825 59.9115 83.5312C59.2264 77.8329 58.1895 71.313 58.4364 65.6208C58.5783 62.4386 59.1894 62.0596 61.2199 60.2756C66.5277 60.754 69.842 62.7374 74.4647 65.2622C76.3286 66.0554 77.5199 67.0783 79.1431 68.282C82.6734 67.2363 86.3888 65.906 89.8944 64.7202C90.6165 63.0491 91.6473 61.2917 92.536 59.683ZM106.059 170.06C106.194 168.065 106.454 166.801 105.793 164.916C104.392 163.532 104.263 163.549 102.318 162.976C100.442 163.241 100.393 163.326 98.8869 164.57C97.85 166.474 98.3253 168.007 98.5845 170.246C101.232 170.031 103.411 169.76 106.059 170.06Z" fill="#F6C758"/>
<path d="M112.422 150.972C101.757 136.854 112.385 139.776 111.805 125.623C111.681 122.574 121.661 123.316 123.951 124.434C131.259 128.002 132.536 134.176 135.073 141.295C136.344 144.854 138.035 144.918 140.924 143.688C141.06 145.159 141.041 145.054 140.319 146.36L140.492 146.848L141.492 151.607C142.788 162.291 132.252 168.566 123.747 161.949L122.556 161.07C121.495 162.542 121.927 166.188 122.038 168.197C125.5 170.189 128.154 171.381 130.79 174.405C137.042 175.594 150.737 176.37 154.891 180.585L154.841 181.615C145.084 188.633 61.2325 189.171 49.5491 182.046L48.9258 180.863C52.0241 176.743 68.145 175.289 73.638 175C76.5264 171.734 78.1373 171.034 81.9824 168.946L84.0623 168.252L83.7475 166.433C83.5994 163.574 83.5809 160.988 83.5871 158.125C89.1479 160.185 120.137 163.978 118.717 154.623C117.224 152.671 114.786 151.98 112.422 150.972ZM106.059 170.058C106.195 168.063 106.454 166.799 105.793 164.914C104.392 163.53 104.263 163.547 102.319 162.974C100.442 163.239 100.393 163.324 98.8872 164.568C97.8503 166.472 98.3255 168.005 98.5847 170.244C101.232 170.029 103.411 169.758 106.059 170.058Z" fill="#38291E"/>
<path d="M98.5847 170.245C101.232 170.03 103.411 169.759 106.059 170.059C106.077 173.935 105.54 177.671 108.54 180.747C113.545 185.875 124.235 185.551 129.302 180.663C130.876 179.149 130.79 176.488 130.79 174.406C137.042 175.595 150.737 176.371 154.891 180.586L154.841 181.617C145.084 188.634 61.2325 189.172 49.5491 182.047L48.9258 180.864C52.0241 176.744 68.145 175.29 73.638 175.001C73.6442 179.617 73.7368 181.56 78.6743 183.245C83.4451 184.805 88.9566 184.643 93.5238 182.523C99.5598 179.72 96.8381 174.821 98.5847 170.245Z" fill="#ECD1B9"/>
<path d="M120.797 150.848C107.687 147.212 108.792 141.92 114.964 132.001C114.748 130.353 114.489 129.856 113.878 128.287C117.427 120.757 128.369 129.498 130.172 134.408C131.165 137.132 131.418 139.759 131.77 142.562C136.516 147.156 138.139 149.076 139.331 155.355C139.417 154.338 139.399 153.518 139.824 152.592L139.849 155.869L140.355 156.06C140.281 153.814 140.195 153.401 141.491 151.609C142.787 162.294 132.251 168.568 123.747 161.951L127.197 161.616C123.006 157.977 122.704 155.977 120.797 150.848Z" fill="#F6C758"/>
<path d="M139.33 155.355C139.416 154.338 139.398 153.517 139.824 152.592L139.849 155.869L140.355 156.06C140.281 153.814 140.194 153.401 141.49 151.609C142.786 162.294 132.251 168.568 123.746 161.951L127.196 161.616C133.467 164.262 136.479 160.384 139.33 155.355Z" fill="#16120E"/>
<path d="M83.7487 166.433L84.2795 163.261C87.6863 161.094 91.5561 163.301 95.5987 163.657C95.5925 167.615 96.2776 176.312 93.994 179.092C90.0687 181.191 78.5149 182.722 76.4844 177.841C78.0644 172.768 81.8169 174.823 83.761 171.114L84.0635 168.252L83.7487 166.433Z" fill="#F6C758"/>
<path d="M118.15 160.98C119.088 162.106 119.403 169.805 119.712 172.259C123.403 173.289 127.087 173.912 127.766 178.259L126.698 179.645C124.495 180.86 122.921 180.679 120.44 180.715L119.286 180.724C106.035 180.767 108.726 174.254 108.855 163.31C111.96 162.549 115.058 161.773 118.15 160.98Z" fill="#F6C758"/>
<path d="M92.5379 59.683C94.4759 55.7934 98.3394 45.6616 104.011 48.9882C106.887 50.6772 110.245 58.3749 111.381 61.672C113.837 66.8894 120.108 68.7925 125.206 66.3968C129.81 63.9078 135.352 60.1602 140.444 60.3552C145.894 63.13 142.617 74.4939 141.845 79.8064C141.382 83.2652 144.487 87.5591 147.813 88.2542C152.09 88.7079 162.62 89.5999 165.107 92.9772C166.73 98.273 157.219 107.866 153.177 111.125C152.491 113.664 152.566 114.718 152.547 117.277L157.805 123.952L154.973 125.179C153.646 123.722 152.967 122.681 151.127 122.026C150.51 121.194 150.029 118.973 149.436 117.696C149.529 116.649 149.578 115.599 149.591 114.548C149.708 101.583 144.906 90.082 135.716 80.9645C126.459 71.8926 113.991 66.84 101.03 66.9042C86.4092 67.0419 73.8618 72.9371 63.7214 83.2454C63.3943 83.6905 60.296 87.953 60.1294 88.1122L59.0864 87.3585C58.2902 87.7801 57.5125 88.0746 56.6484 88.3184C57.5619 86.4387 58.6481 85.1825 59.9134 83.5312C59.2283 77.8329 58.1914 71.313 58.4383 65.6208C58.5802 62.4386 59.1913 62.0596 61.2218 60.2756C66.5296 60.754 69.8439 62.7374 74.4666 65.2622C76.3305 66.0554 77.5218 67.0783 79.145 68.282C82.6753 67.2363 86.3907 65.906 89.8963 64.7202C90.6184 63.0491 91.6492 61.2917 92.5379 59.683Z" fill="#3D291E"/>
<path d="M61.2218 60.2734C66.5296 60.7518 69.8439 62.7352 74.4666 65.26C75.2258 66.4551 75.6763 67.1304 76.5589 68.2336L75.7072 69.133C75.0777 70.7089 65.3816 77.7468 62.0303 81.0457L62.1723 81.5932L61.8205 82.3722C62.4623 82.6513 63.0919 82.942 63.7214 83.2433C63.3943 83.6883 60.296 87.9508 60.1294 88.1101L59.0864 87.3563C58.2902 87.7779 57.5125 88.0724 56.6484 88.3163C57.5619 86.4366 58.6481 85.1804 59.9134 83.5291C59.2283 77.8308 58.1914 71.3108 58.4383 65.6187C58.5802 62.4365 59.1913 62.0574 61.2218 60.2734Z" fill="#EBBD64"/>
<path d="M61.2218 60.2734C60.2775 63.8982 59.7035 63.3291 60.4565 66.5039C60.833 69.0922 61.7094 79.8012 62.0303 81.0457L62.1723 81.5932L61.8205 82.3722C62.4623 82.6513 63.0919 82.942 63.7214 83.2433C63.3943 83.6883 60.296 87.9508 60.1294 88.1101L59.0864 87.3563C58.2902 87.7779 57.5125 88.0724 56.6484 88.3163C57.5619 86.4366 58.6481 85.1804 59.9134 83.5291C59.2283 77.8308 58.1914 71.3108 58.4383 65.6187C58.5802 62.4365 59.1913 62.0574 61.2218 60.2734Z" fill="#281E18"/>
<path d="M61.2212 60.2734C66.5291 60.7518 69.8433 62.7352 74.4661 65.26C75.2252 66.4551 75.6758 67.1304 76.5583 68.2336L75.7066 69.133C71.6949 67.678 64.9861 62.563 61.0917 64.2754L60.4559 66.5039C59.703 63.3291 60.2769 63.8982 61.2212 60.2734Z" fill="#281E18"/>
<path d="M147.812 88.2539C152.089 88.7076 162.618 89.5996 165.105 92.9769C166.729 98.2727 157.218 107.866 153.175 111.125C153.151 109.361 154.107 109.916 153.305 108.248C151.169 105.812 149.719 96.7208 146.898 91.3805C147.022 89.186 146.664 89.6502 147.812 88.2539Z" fill="#F6C758"/>
<path d="M147.812 88.2539C152.089 88.7076 162.618 89.5996 165.105 92.9769L163.414 93.6121L163.451 94.8349C159.792 92.3552 151.453 91.8664 146.898 91.3805C147.022 89.186 146.664 89.6502 147.812 88.2539Z" fill="#38291E"/>
<path d="M163.449 94.8346L163.411 93.6118L165.103 92.9766C166.726 98.2724 157.215 107.865 153.172 111.125C153.148 109.361 154.104 109.915 153.302 108.248C156.598 104.027 161.165 99.3934 163.449 94.8346Z" fill="#16120E"/>
<path d="M125.203 66.3965C129.808 63.9076 135.35 60.1599 140.442 60.355C145.892 63.1297 142.614 74.4937 141.843 79.8062L139.528 77.6493L139.164 79.2197C138.59 79.2833 126.956 70.8312 124.617 69.6392C126.734 68.6447 129.252 67.1885 131.338 66.0459C128.981 65.9638 127.839 66.6292 125.203 66.3965Z" fill="#F6C758"/>
<path d="M125.203 66.3965C129.807 63.9076 135.35 60.1599 140.442 60.355C145.891 63.1297 142.614 74.4937 141.843 79.8062L139.528 77.6493C140.546 71.8905 140.769 68.3268 140.985 62.5921C137.806 63.289 134.387 64.8113 131.338 66.0459C128.98 65.9638 127.839 66.6292 125.203 66.3965Z" fill="#16120E"/>
<path d="M92.5352 59.683C94.4731 55.7934 98.3367 45.6616 104.009 48.9882C106.885 50.6772 110.242 58.3749 111.378 61.672L110.014 63.6467L109.619 64.3177C107.792 64.5659 95.905 64.427 92.5969 64.5788L95.8309 58.4836L92.5352 59.683Z" fill="#F6C758"/>
<path d="M92.5352 59.683C94.4731 55.7934 98.3367 45.6616 104.009 48.9882C106.885 50.6772 110.242 58.3749 111.378 61.672L110.014 63.6467C107.243 59.3916 105.039 54.3106 101.589 49.1049C99.0095 52.7303 97.8553 54.5341 95.8309 58.4836L92.5352 59.683Z" fill="#020202"/>
<path d="M56.6465 88.3193C57.5106 88.0755 58.2883 87.781 59.0845 87.3594L60.1275 88.1131C53.4619 99.4283 51.6597 106.745 52.4929 120.241L51.5794 117.634L50.0241 117.032C50.1969 114.624 50.1907 114.295 49.5242 111.981C45.21 107.84 34.1501 98.3227 36.9089 92.1478C44.4571 89.6132 48.8329 88.9965 56.6465 88.3193Z" fill="#EBBD64"/>
<path d="M56.6439 88.3193C57.508 88.0755 58.2857 87.781 59.0818 87.3594L60.1248 88.1131C53.4592 99.4283 51.657 106.745 52.4902 120.241L51.5768 117.634L50.0215 117.032C50.1943 114.624 50.1881 114.295 49.5215 111.981L49.3055 109.061C51.1571 102.673 52.1384 97.4584 54.854 91.3188C49.7622 92.0928 42.8498 93.0194 38.0975 94.7306L36.9062 92.1478C44.4545 89.6132 48.8303 88.9965 56.6439 88.3193Z" fill="#38291E"/>
<path d="M36.9089 92.1445L38.1001 94.7273C41.723 100.909 45.5804 103.863 49.3082 109.057L49.5242 111.978C45.21 107.836 34.1501 98.3194 36.9089 92.1445Z" fill="#281E18"/>
<path d="M50.0256 117.031L51.5809 117.633L52.4943 120.241C53.92 126.904 55.1235 131.453 58.3946 137.374L57.7095 140.567L51.0625 139.923C35.5464 140.224 33.775 133.25 44.8412 123.034C46.2978 120.855 48.2296 118.95 50.0256 117.031Z" fill="#EBBD64"/>
<path d="M50.0242 117.031L51.5796 117.633L52.493 120.241C53.9187 126.904 55.1222 131.453 58.3933 137.374L57.7082 140.567L51.0611 139.923L51.703 138.545L55.0173 138.455L55.3876 137.708C54.1902 134.866 49.4009 122.253 49.191 122.117L47.0679 124.026L44.8398 123.034C46.2964 120.855 48.2282 118.95 50.0242 117.031Z" fill="#382519"/>
<path d="M51.0625 139.923C35.5464 140.225 33.775 133.25 44.8412 123.035L47.0692 124.027C43.792 127.954 41.638 130.474 39.0212 134.965C43.8476 137.066 46.594 137.483 51.7043 138.546L51.0625 139.923Z" fill="#281E18"/>
<path d="M149.436 117.695C150.029 118.972 150.51 121.193 151.127 122.024C152.966 122.679 153.645 123.721 154.972 125.178L157.805 123.95C160.336 127.079 167.872 134.828 161.484 138.19C157.997 140.027 149.751 140.26 145.548 140.401C144.412 142.141 142.209 145.973 140.493 146.849L140.32 146.361C141.042 145.055 141.061 145.16 140.925 143.689C141.073 143.047 141.024 143.043 141.283 142.549C146.221 133.246 148.294 128.152 149.436 117.695Z" fill="#38291E"/>
<path d="M151.123 122.023C152.963 122.678 153.642 123.72 154.969 125.177C157.369 128.028 161.122 131.58 161.029 135.128C158.474 137.964 150.957 137.881 146.68 138.31C149.118 132.496 150.685 128.388 151.123 122.023Z" fill="#F6C758"/>
<path d="M58.3921 137.375C64.8355 147.817 72.0011 153.795 83.5857 158.128C83.5796 160.991 83.5981 163.577 83.7462 166.436L84.061 168.255L81.9811 168.949C83.3697 154.755 78.2409 158.716 68.7115 162.56C58.4539 166.698 61.5213 152.425 62.2742 147.072C60.5152 145.048 58.46 143.086 57.707 140.568L58.3921 137.375Z" fill="#281E18"/>
<path d="M64.0276 149.926C66.342 151.559 73.3533 155.765 73.9026 157.835L72.2547 158.737L63.7313 161.588C63.5091 156.73 63.5215 154.809 64.0276 149.926Z" fill="#EBBD64"/>
<path d="M69.8346 110.852C74.1425 110.87 77.6667 114.274 77.8395 118.576C78.0123 122.878 74.7659 126.553 70.4765 126.914C67.5325 127.162 64.6811 125.772 63.0641 123.294C61.447 120.816 61.3236 117.65 62.7369 115.051C64.1503 112.452 66.8783 110.839 69.8346 110.852Z" fill="#EA9F58"/>
<path d="M94.3367 123.067C93.3245 121.359 92.553 120.468 92.5469 118.497C94.1763 117.254 98.657 119.933 101.021 119.773C103.292 119.618 107.032 117.809 109.155 118.026C109.581 120.144 109.069 120.337 108.168 122.593C103.786 127.792 98.9595 129.364 94.3367 123.067Z" fill="#38291E"/>
<path d="M94.3367 123.067C93.3245 121.359 92.553 120.468 92.5469 118.497C94.1763 117.254 98.657 119.933 101.021 119.773C103.292 119.618 107.032 117.809 109.155 118.026C109.581 120.144 109.069 120.337 108.168 122.593C107.267 121.76 107.014 121.541 105.995 120.865L105.125 121.715C102.44 122.171 98.9347 122.081 96.1389 122.102L94.3367 123.067Z" fill="#38231E"/>
<path d="M105.127 121.715C104.084 126.436 98.6341 123.823 96.1406 122.103C98.9365 122.081 102.442 122.171 105.127 121.715Z" fill="#F6C758"/>
<path d="M117.105 101.418C125.153 101.554 124.974 108.295 120.722 113.408C112.803 113.416 112.18 106.56 117.105 101.418Z" fill="#3D291E"/>
<path d="M80.9561 101.997C89.1832 101.453 88.5228 108.839 84.7395 113.973C77.0802 114.117 76.5926 107.086 80.9561 101.997Z" fill="#3D291E"/>
<path d="M163.635 33.7651C171.622 32.978 179.201 35.754 182.385 43.6512C184.002 47.697 183.897 52.2261 182.101 56.1947C179.62 61.6931 175.886 63.7116 170.566 65.6765C168.832 68.2161 166.999 72.0452 165.549 74.8564C162.611 77.554 159.907 79.3047 155.704 79.0201C148.897 75.0484 153.785 65.7722 153.007 60.6683C150.915 46.9241 148.181 40.6344 163.635 33.7651ZM163.086 75.2626C160.667 73.7002 157.883 72.7952 155.013 72.6372C157.383 75.733 159.216 75.8355 163.086 75.2626Z" fill="#16120E"/>
<path d="M165.011 36.1301C172.892 35.4338 181.101 41.3315 181.687 49.1483C182.44 59.2215 169.152 63.3019 163.64 69.8638C164.56 64.4291 164.356 58.6986 170.189 56.6918L170.806 56.485C171.756 54.7041 171.46 55.2812 170.88 52.7275C162.486 58.4696 164.646 51.817 162.554 49.1879L161.554 49.1212C160.345 52.2522 161.536 53.7855 161.073 56.3986C160.499 59.6184 158.536 64.4136 157.345 67.5767C154.438 55.1405 146.797 41.3012 165.011 36.1301Z" fill="#F6C758"/>
<path d="M163.53 54.7422C164.585 55.136 164.511 55.1514 165.295 55.9854C165.085 58.4349 162.888 64.0332 162.03 66.7876L160.789 66.6444C159.833 63.782 162.437 57.8262 163.53 54.7422Z" fill="#EBBD64"/>
<path d="M153.453 66.9366C156.113 66.8533 160.551 68.4959 162.841 69.8824C164.661 70.9855 164.279 70.9664 164.686 72.9677C161.507 72.3226 155.095 70.0102 153.453 66.9366Z" fill="#979596"/>
<path d="M155.016 72.6367C157.886 72.7947 160.669 73.6997 163.088 75.2621C159.219 75.835 157.386 75.7325 155.016 72.6367Z" fill="#979596" fill-opacity="0.0627451"/>
<path d="M146.023 32.8555C148.967 33.6722 149.652 34.4253 150.671 37.2883C147.326 36.1673 146.752 36.1963 146.023 32.8555Z" fill="#020202"/>
</svg>
