<svg width="220" height="220" viewBox="0 0 220 220" fill="none" xmlns="http://www.w3.org/2000/svg">
<path d="M90.8285 52.3508C99.9691 29.4822 105.524 28.1854 115.121 51.2989C117.158 53.423 123.373 54.9811 126.459 56.2534C128.329 55.3959 134.68 52.3211 136.278 51.8538C140.105 50.3686 142.839 48.6747 146.604 50.0927C150.64 53.4971 147.801 63.6764 147.067 68.5377C145.53 74.9218 149.239 79.6275 155.627 80.522C160.349 81.7356 166.65 82.6196 169.625 86.3234C171.094 92.1563 161.577 99.912 157.479 104.125L156.528 104.986C156.806 108.238 156.3 108.339 157.966 110.578L158.386 111.227C162.138 115.21 169.613 121.647 169.52 126.917C168.23 130.499 164.996 131.017 161.552 131.763C158.003 132.345 153.387 133.245 149.881 133.383C148.171 135.475 146.363 137.772 144.616 139.803C146.524 148.308 146.986 151.676 146.882 160.276C139.623 165.331 132.285 154.185 126.582 157.221L125.724 160.674L124.94 157.14L124.607 159.496L123.947 156.954C121.176 155.479 113.504 156.84 109.659 156.924C107.752 158.119 105.666 159.492 103.746 160.619C101.265 160.779 100.315 160.221 98.0743 159.296C96.2783 159.52 94.4514 159.424 92.6863 159.01C90.1064 160.527 89.8225 160.535 86.9218 159.89L86.4342 160.681C82.7557 161.237 76.6333 161.023 72.7388 161.006L74.9421 163.067C67.1285 163.02 63.5921 163.441 64.0858 154.51C63.2773 153.745 61.5738 153.529 60.4197 153.267C56.2784 151.685 55.6427 150.233 53.1739 146.608C52.9209 141.85 52.7357 139.241 54.5935 134.861C47.9772 134.093 30.2022 132.914 38.2442 122.916C41.2375 119.19 45.3047 114.549 48.9091 111.425L48.8536 104.081C30.5972 89.7346 30.8441 81.2022 55.1798 79.309C56.6302 76.9571 58.4508 74.402 60.0247 72.0915C58.9631 67.8648 57.019 55.1157 58.6484 51.2909C61.7158 44.1027 75.8371 53.3959 80.1142 55.8447C83.3853 54.4589 87.3784 53.3823 90.8285 52.3508Z" fill="#F6C758"/>
<path d="M90.8285 52.3508C99.9691 29.4822 105.524 28.1854 115.121 51.2989L112.56 51.6193C106.388 52.2656 99.9691 51.2723 93.2541 52.0187L93.1183 53.2193L95.1427 54.4212C90.452 55.3558 85.2244 56.3441 80.935 58.4732C79.5587 57.646 78.8797 57.3904 77.38 56.7886C74.2015 58.9609 63.0428 68.063 61.5368 68.1179L61.1418 67.8889L60.6913 70.4982L61.6417 71.8297L63.1353 70.6871L63.9439 71.0563C49.1129 90.8618 47.7612 108.828 57.63 131.459C58.8273 130.889 62.3021 129.685 62.4441 128.075C63.6661 114.073 79.2686 122.215 81.7867 120.95C89.0325 117.317 85.6689 115.246 99.3519 114.923C96.482 113.211 91.2297 111.102 92.4579 107.266C96.8153 108.437 96.9572 116.045 108.357 109.515C109.017 109.135 109.677 108.749 110.332 108.357L111.331 108.71L111.615 109.854C109.579 113.045 106.925 113.103 105.616 115.115L107.82 115.759C108.949 118.722 108.474 119.397 110.64 120.615C120.99 120.523 126.304 118.92 126.304 131.215L126.613 131.431C130.372 134.007 131.372 134.209 135.883 134.935L135.957 135.798C132.939 138.953 138.543 145.031 131.575 154.522C134.42 155.977 140.913 159.733 143.802 159.122L144.598 157.871L145.536 158.015L146.017 157.125C146.061 158.449 146.517 159.03 146.882 160.276C139.623 165.331 132.285 154.185 126.582 157.221L125.724 160.674L124.94 157.14L124.607 159.496L123.947 156.954C121.176 155.479 113.504 156.84 109.659 156.924C107.752 158.119 105.666 159.492 103.746 160.619C101.265 160.779 100.315 160.221 98.0743 159.296C96.2783 159.52 94.4514 159.424 92.6863 159.01C90.1064 160.527 89.8225 160.535 86.9218 159.89L86.4342 160.681C82.7557 161.237 76.6333 161.023 72.7388 161.006L74.9421 163.067C67.1285 163.02 63.5921 163.441 64.0858 154.51C63.2773 153.745 61.5738 153.529 60.4197 153.267C56.2784 151.685 55.6427 150.233 53.1739 146.608C52.9209 141.85 52.7357 139.241 54.5935 134.861C47.9772 134.093 30.2022 132.914 38.2442 122.916C41.2375 119.19 45.3047 114.549 48.9091 111.425L48.8536 104.081C30.5972 89.7346 30.8441 81.2022 55.1798 79.309C56.6302 76.9571 58.4508 74.402 60.0247 72.0915C58.9631 67.8648 57.019 55.1157 58.6484 51.2909C61.7158 44.1027 75.837 53.3959 80.1142 55.8447C83.3853 54.4589 87.3784 53.3823 90.8285 52.3508Z" fill="#281E18"/>
<path d="M92.6848 159.011C84.9453 157.201 79.872 149.78 80.9953 141.913C82.1124 134.045 89.0557 128.335 96.9927 128.756C104.924 129.177 111.225 135.589 111.503 143.531C111.787 151.473 105.96 158.315 98.0728 159.297C96.2768 159.521 94.4499 159.424 92.6848 159.011Z" fill="#6B6868"/>
<path d="M92.4529 133.438C96.335 132.092 100.643 132.939 103.729 135.655C106.815 138.372 108.204 142.538 107.358 146.562C106.519 150.586 103.575 153.847 99.6617 155.097C93.7058 156.999 87.3364 153.76 85.3614 147.83C83.3864 141.9 86.5464 135.485 92.4529 133.438Z" fill="#191617"/>
<path d="M90.6796 136.845C94.5061 133.858 99.9868 134.322 103.258 137.91C106.529 141.497 106.486 146.999 103.159 150.536C102.616 151.114 101.999 151.621 101.326 152.042C98.0118 154.122 93.7532 153.901 90.6672 151.49C87.5875 149.078 86.3469 144.993 87.5627 141.274C88.1367 139.521 89.223 137.98 90.6796 136.845Z" fill="#769EAB"/>
<path d="M90.6793 136.848C92.5741 139.232 94.5676 140.758 95.7773 143.504L95.5057 144.237C90.2164 144.285 91.494 142.778 87.5625 141.276C88.1365 139.524 89.2228 137.982 90.6793 136.848Z" fill="#BED0D9"/>
<path d="M101.328 152.044C100.198 151.72 100.698 152.001 99.9453 150.985L100.624 149.651L102.062 149.297L103.161 150.538C102.618 151.116 102.001 151.622 101.328 152.044Z" fill="#FDF7EE"/>
<path d="M72.0152 139.681C70.3673 137.332 69.7317 137.321 69.8119 134.917C72.6324 132.8 77.7798 133.846 81.6928 133.804C74.8852 145.345 79.1252 146.422 82.5074 156.597C83.8158 157.555 85.7415 158.871 86.9203 159.891L86.4327 160.681C82.7543 161.238 76.6318 161.024 72.7374 161.007L74.9407 163.068C67.1271 163.021 63.5906 163.442 64.0844 154.511L65.8495 154.372C66.4235 153.503 68.8799 151.676 69.8365 150.906C71.5585 146.485 71.7437 144.423 72.0152 139.681Z" fill="#564D4C"/>
<path d="M65.8495 154.371C66.2013 155.375 66.4174 155.73 66.4914 156.787C71.8301 156.662 77.1687 156.598 82.5074 156.596C83.8158 157.555 85.7415 158.87 86.9203 159.89L86.4327 160.681C82.7543 161.237 76.6318 161.023 72.7374 161.006L74.9407 163.067C67.1271 163.02 63.5906 163.441 64.0844 154.51L65.8495 154.371Z" fill="#BDBBBB"/>
<path d="M65.8495 154.371C66.2013 155.375 66.4174 155.73 66.4914 156.787C68.0899 161.028 68.3615 160.651 72.7374 161.006L74.9407 163.067C67.1271 163.02 63.5906 163.441 64.0844 154.51L65.8495 154.371Z" fill="#16120E"/>
<path d="M59.6996 150.55C48.8124 141.174 61.0141 127.079 67.2292 133.13C67.7353 136.398 68.8339 141.255 68.6426 144.422C68.5624 145.753 68.297 145.253 68.6981 146.916L69.0376 148.367L69.2289 149.169L69.8399 150.907C68.8833 151.677 66.4269 153.504 65.8529 154.373L64.0878 154.512C63.2792 153.747 61.5758 153.531 60.4216 153.269L59.6996 150.55Z" fill="#F6C758"/>
<path d="M69.2247 149.168L69.8357 150.906C68.879 151.676 66.4226 153.503 65.8487 154.372L64.0835 154.511C63.275 153.746 61.5715 153.53 60.4174 153.267L59.6953 150.549C64.3304 151.522 65.0463 151.351 69.2247 149.168Z" fill="#281E18"/>
<path d="M93.2539 52.0188C97.4508 44.9476 96.92 42.5436 103.561 36.0781C108.184 41.4883 109.788 45.2322 112.559 51.6194C106.388 52.2657 99.9689 51.2725 93.2539 52.0188Z" fill="#F6C758"/>
<path d="M60.3945 50.5391C66.9552 51.6817 71.3434 54.0348 77.3795 56.7892C74.201 58.9615 63.0423 68.0636 61.5363 68.1186L61.1413 67.8896C61.2401 63.8185 60.4995 55.3053 60.3945 50.5391Z" fill="#EBBD64"/>
<path d="M85.8012 122.508C86.5665 120.727 87.1344 118.836 89.0909 118.148C94.2753 116.325 99.4349 115.869 104.718 117.625C106.6 118.251 106.946 120.82 107.267 122.564C114.877 127.497 122.444 116.937 124.308 131.343C119.203 131.146 113.797 130.808 108.761 131.443C99.6695 124.375 91.9546 125.331 83.0918 132.186L70.9949 132.163C68.125 130.565 64.5576 129.061 64.6502 125.387C70.1123 119.967 81.9006 125.813 85.8012 122.508Z" fill="#BDBBBB"/>
<path d="M85.8047 122.508C86.57 120.727 87.1379 118.836 89.0943 118.148C94.2787 116.325 99.4384 115.869 104.721 117.625C106.604 118.251 106.95 120.82 107.27 122.564C98.8088 121.867 93.0813 122.931 85.8047 122.508Z" fill="#E0D2CB"/>
<path d="M72.1562 126.577C73.7609 126.565 75.3657 126.594 76.9703 126.664C78.717 128.077 78.1615 127.516 78.7478 130.253C76.5753 130.402 75.9519 130.488 73.835 130.06C72.2426 128.495 72.7426 129.061 72.1562 126.577Z" fill="#464445"/>
<path d="M123.262 134.495C131.871 132.866 137.284 145.925 128.668 153.03C123.996 153.921 120.021 152.78 118.38 148.019C115.72 140.314 121.318 138.918 123.262 134.495Z" fill="#F6C758"/>
<path d="M51.0189 82.0508L52.5865 82.1841C52.9692 83.478 49.4944 96.9315 49.0932 101.23L44.3224 96.179C41.65 92.9918 39.4219 90.0004 36.9531 86.6731C42.0634 84.5484 45.6987 83.4008 51.0189 82.0508Z" fill="#EBBD64"/>
<path d="M48.6208 115.105C49.1701 115.521 53.7188 129.581 55.1939 132.391C52.2129 132.083 48.8554 131.499 45.8558 131.047C42.6897 130.452 40.8134 130.752 39.3754 127.693C39.3198 123.61 45.5534 118.341 48.6208 115.105Z" fill="#EBBD64"/>
<path d="M108.766 131.442C113.802 130.807 119.208 131.145 124.313 131.342C115.351 138.994 109.907 146.565 122.393 155.346L109.556 156.088C115.931 146.75 116.264 140.144 108.766 131.442Z" fill="#564D4C"/>
<path d="M136.277 51.8532C140.104 50.368 142.838 48.6741 146.603 50.0921C150.639 53.4965 147.8 63.6758 147.066 68.5371C145.529 74.9212 149.238 79.6269 155.626 80.5214C160.347 81.735 166.649 82.6189 169.624 86.3228C171.093 92.1556 161.576 99.9114 157.478 104.124L156.527 104.985L155.589 105.089C154.472 102.063 155.138 99.9867 153.305 97.1984C150.676 76.1317 131.617 57.7614 110.954 54.6249C105.356 53.7755 100.696 54.007 95.1416 54.4206L93.1172 53.2187L93.253 52.018C99.968 51.2717 106.387 52.265 112.559 51.6187L115.12 51.2983C117.157 53.4224 123.372 54.9805 126.458 56.2527C128.328 55.3953 134.679 52.3205 136.277 51.8532Z" fill="#3D291E"/>
<path d="M155.628 80.5234C160.349 81.7371 166.651 82.621 169.626 86.3248C171.095 92.1577 161.577 99.9135 157.479 104.126C156.689 102.646 156.751 102.678 156.541 100.981C155.899 97.2215 155.251 93.4534 154.344 89.7435C153.702 87.0958 152.202 85.4618 152.141 82.8828L155.116 82.9056L155.628 80.5234Z" fill="#F6C758"/>
<path d="M155.626 80.5234C160.347 81.7371 166.649 82.621 169.623 86.3248C171.092 92.1577 161.575 99.9135 157.477 104.126C156.687 102.646 156.749 102.678 156.539 100.981C160.927 96.7492 164.865 92.0775 168.29 87.0384C164.309 85.8767 158.829 84.447 155.113 82.9056L155.626 80.5234Z" fill="#281E18"/>
<path d="M136.277 51.8532C140.103 50.368 142.838 48.6741 146.602 50.0921C150.639 53.4965 147.8 63.6758 147.065 68.5371L144.776 66.2333L144.226 69.2192L143.621 69.6149C138.665 64.7098 135.067 61.5418 129.074 57.9404C133.358 55.5811 137.079 53.9521 141.782 52.5619C139.678 52.6915 138.326 52.2835 136.277 51.8532Z" fill="#F6C758"/>
<path d="M136.277 51.8532C140.104 50.368 142.838 48.6741 146.603 50.0921C150.639 53.4965 147.8 63.6758 147.066 68.5371L144.776 66.2333C145.338 61.9338 146.973 56.3657 145.628 52.5156C143.955 51.6705 144.159 52.0545 141.783 52.5619C139.678 52.6915 138.326 52.2835 136.277 51.8532Z" fill="#16120E"/>
<path d="M158.388 111.227C162.14 115.209 169.615 121.647 169.522 126.916C168.232 130.499 164.998 131.016 161.554 131.762L163.19 128.712C158.968 129.847 154.975 130.202 150.648 130.708C153.784 123.498 153.944 119.993 156.141 113.055L158.388 111.227Z" fill="#EBBD64"/>
<path d="M158.387 111.227C162.14 115.209 169.614 121.647 169.521 126.916C168.231 130.499 164.997 131.016 161.553 131.762L163.189 128.712C165.269 127.739 165.726 127.976 166.596 126.244C165.997 121.738 159.535 116.419 156.141 113.055L158.387 111.227Z" fill="#281E18"/>
<path d="M153.272 114.147C154.982 111.997 155.611 111.775 157.963 110.578L158.382 111.228L156.136 113.056C153.939 119.994 153.778 123.499 150.643 130.709C154.969 130.203 158.963 129.848 163.184 128.713L161.549 131.763C158 132.345 153.383 133.245 149.878 133.383C148.168 135.475 146.36 137.773 144.613 139.804C146.52 148.308 146.983 151.676 146.878 160.276C146.514 159.03 146.057 158.449 146.014 157.126L145.533 158.015L144.595 157.871C144.243 155.046 143.157 144.943 142.058 142.901L140.336 140.143C140.472 139.122 140.682 138.344 140.916 137.349C147.773 133.744 151.871 121.34 153.272 114.147Z" fill="#38291E"/>
<path d="M77.3762 56.7891C78.876 57.3909 79.5549 57.6465 80.9312 58.4737C70.655 63.7973 71.6302 64.8202 63.9401 71.0568L63.1315 70.6876L61.6379 71.8302L60.6875 70.4987L61.138 67.8894L61.533 68.1184C63.039 68.0635 74.1977 58.9613 77.3762 56.7891Z" fill="#38291E"/>
<path d="M153.304 97.1992C155.137 99.9876 154.471 102.064 155.588 105.09L156.526 104.986C156.804 108.238 156.298 108.339 157.964 110.578C155.613 111.775 154.983 111.997 153.273 114.147C153.928 108.651 153.829 102.704 153.304 97.1992Z" fill="#45311F"/>
<path d="M140.341 140.145L142.063 142.902C141.112 143.38 140.279 143.723 139.298 144.136L138.859 143.565L140.341 140.145Z" fill="#45311F"/>
<path d="M133.235 100.591C136.259 99.7636 139.5 100.642 141.697 102.887C143.894 105.132 144.703 108.392 143.808 111.403C142.913 114.413 140.456 116.703 137.389 117.384C132.803 118.404 128.248 115.578 127.119 111.018C125.989 106.458 128.705 101.83 133.235 100.591Z" fill="#EA9F58"/>
<path d="M68.9049 100.512C70.5157 100.767 72.4537 101.019 73.8609 101.84C75.6569 102.886 76.9591 104.614 77.4591 106.631C78.8971 112.307 74.62 116.395 69.4542 117.665C65.7017 116.948 61.8998 115.542 60.5605 111.51C59.9494 109.614 60.1347 107.551 61.0851 105.8C62.8441 102.514 65.6461 101.532 68.9049 100.512Z" fill="#EA9F58"/>
<path d="M120.416 91.6094C128.433 93.5644 128.242 100.465 122.082 104.98C114.478 103.915 114.46 95.7465 120.416 91.6094Z" fill="#38291E"/>
<path d="M82.1228 91.75C90.1956 93.3451 89.5846 100.324 83.8694 104.93C75.8398 103.724 76.0188 95.8939 82.1228 91.75Z" fill="#38291E"/>
<path d="M124.608 159.496L124.942 157.141L125.725 160.675C128.046 168.979 129.138 165.425 135.847 171.479C141.408 171.888 155.758 172.783 158.924 177.305C158.628 178.663 158.572 178.811 157.362 179.547C144.253 187.567 73.141 186.435 56.2054 181.784C54.0638 181.196 51.7555 180.54 50.3359 178.74C51.0704 174.855 69.4009 171.734 72.8633 172.234C75.8628 169.289 76.5664 168.463 80.3929 166.953C81.3372 166.39 82.0162 165.616 82.8 164.839L82.7692 163.849C80.6337 162.83 77.449 163.082 74.9432 163.067L72.7399 161.006C76.6343 161.023 82.7568 161.237 86.4352 160.681L86.9228 159.891C89.8236 160.536 90.1075 160.527 92.6873 159.01C94.4525 159.424 96.2794 159.52 98.0754 159.296C100.316 160.221 101.266 160.779 103.747 160.62L104.488 161.112C109.888 160.885 120.522 161.622 124.608 159.496ZM97.9396 173.315C102.68 170.994 104.624 171.298 109.969 171.68C110.993 169.603 110.857 165.795 110.944 163.32L99.2172 163.43C98.2852 166.13 98.3655 170.319 97.9396 173.315Z" fill="#ECD1B9"/>
<path d="M92.6857 159.012C94.4509 159.425 96.2778 159.522 98.0738 159.298C100.314 160.222 101.265 160.78 103.746 160.621L104.486 161.114C102.277 161.843 101.141 162.078 99.2156 163.432C98.2836 166.131 98.3639 170.321 97.938 173.316C93.5251 182.603 75.6699 183.271 73.2073 174.249L72.8617 172.235C75.8612 169.29 76.5648 168.464 80.3913 166.955C81.3356 166.391 82.0146 165.617 82.7984 164.84L82.7676 163.85C80.6321 162.832 77.4474 163.083 74.9416 163.069L72.7383 161.007C76.6327 161.025 82.7552 161.238 86.4336 160.682L86.9212 159.892C89.822 160.537 90.1059 160.528 92.6857 159.012Z" fill="#F6C758"/>
<path d="M92.6857 159.012C94.4509 159.425 96.2778 159.522 98.0738 159.298C100.314 160.222 101.265 160.78 103.746 160.621L104.486 161.114C102.277 161.843 101.141 162.078 99.2156 163.432C98.2836 166.131 98.3639 170.321 97.938 173.316C93.5251 182.603 75.6699 183.271 73.2073 174.249C74.38 172.833 74.4911 172.521 76.1143 171.811C76.1945 174.658 75.818 173.729 77.1944 175.78C83.3909 179.184 91.8773 180.126 94.883 171.503C95.278 170.356 95.2286 165.266 95.2471 163.816C89.3962 163.411 85.8535 161.711 83.8599 167.928C82.749 167.429 81.5949 167.239 80.3913 166.955C81.3356 166.391 82.0146 165.617 82.7984 164.84L82.7676 163.85C80.6321 162.832 77.4474 163.083 74.9416 163.069L72.7383 161.007C76.6327 161.025 82.7552 161.238 86.4336 160.682L86.9212 159.892C89.822 160.537 90.1059 160.528 92.6857 159.012Z" fill="#38291E"/>
<path d="M80.389 166.953C81.5925 167.238 82.7467 167.428 83.8576 167.927C81.7283 169.716 78.735 170.734 76.112 171.809C74.4888 172.519 74.3777 172.832 73.205 174.248L72.8594 172.234C75.8589 169.289 76.5625 168.462 80.389 166.953Z" fill="#281E18"/>
<path d="M124.606 159.496L124.939 157.141L125.723 160.675C128.044 168.979 129.136 165.425 135.845 171.479C134.629 173.817 136.098 177.324 132.055 178.612C126.544 180.365 119.761 180.126 114.317 178.257C111.861 177.414 110.911 173.887 109.966 171.68C110.991 169.603 110.855 165.795 110.941 163.32L99.2148 163.43C101.14 162.077 102.276 161.841 104.486 161.112C109.886 160.885 120.52 161.622 124.606 159.496Z" fill="#332A1C"/>
<path d="M122.743 163.184C122.829 163.32 123.212 164.505 123.292 164.735L123.496 165.281C124.823 168.923 131.081 169.673 131.729 174.81L130.748 175.961C128.415 177.235 125.588 177.02 122.866 177.095C112.041 176.749 113.343 172.813 113.09 163.579L122.743 163.184Z" fill="#F6C758"/>
<path d="M176.066 62.6016C180.121 66.1677 179.004 65.9591 184.046 68.8875C181.109 71.2605 179.022 74.3593 176.764 77.3841C175.807 76.9137 171.166 70.7895 169.32 68.8962C172.826 66.4961 173.462 65.9603 176.066 62.6016Z" fill="#EBBD64"/>
</svg>
