<svg width="220" height="220" viewBox="0 0 220 220" fill="none" xmlns="http://www.w3.org/2000/svg">
<path d="M55.4882 115.511C58.5062 108.493 63.9251 105.06 66.974 99.8029C69.27 95.8485 56.8398 87.4816 55.0067 83.3698C48.4769 68.7311 79.7066 78.1653 75.7689 64.2389C70.8191 40.6254 77.5773 42.3931 94.9512 52.6472C97.5125 51.791 100.487 51.0188 103.117 50.275L104.382 49.8138L107.029 48.5397C108.542 49.1225 122.712 49.0644 123.916 48.5619C124.626 50.3589 124.823 50.8299 125.915 52.4121L129.865 53.4423C133.791 52.0034 135.192 54.5664 137.901 53.0485C143.734 50.6595 147.881 48.6249 154.072 47.2977C154.041 50.0675 154.084 53.3775 153.917 56.093L156.059 58.6258C155.849 62.2938 155.584 63.8229 154.794 67.4316L158.108 72.9787C163.613 73.7491 178.524 74.6917 177.136 82.3827C176.475 86.0525 167.773 94.0756 164.662 96.0714L164.23 93.6312L162.274 94.2028C161.743 95.5596 161.836 96.1325 161.836 97.5658L161.243 98.3844L160.793 104.812C166.138 103.266 163.416 104.317 168.298 105.782C170.76 108.001 173.025 111.317 174.247 114.398C177.414 114.651 180.543 114.824 183.653 115.486C195.787 120.02 201.354 128.397 198.355 141.45C204.798 145.655 209.76 150.969 207.551 159.382C204.675 174.509 187.289 175.534 175.031 173.746C164.126 184.336 150.905 186.851 136.926 180.529C121.083 188.572 103.32 190.603 87.5819 180.903C74.0779 187.737 63.9745 187.628 50.9025 180.171C38.3242 183.814 21.7157 184.211 14.3711 171.099C11.816 166.421 11.2235 160.916 12.7356 155.801C14.8155 148.819 19.5864 145.109 25.6657 141.809C27.4987 128.355 30.5353 122.196 43.6444 117.154C48.0326 116.014 50.3532 116.05 54.8648 116.152L55.4882 115.511Z" fill="#FDF7EE"/>
<path d="M55.4881 115.511C58.5061 108.493 63.925 105.06 66.9739 99.8029C69.2699 95.8485 56.8397 87.4816 55.0067 83.3698C48.4768 68.7311 79.7065 78.1653 75.7689 64.2389C70.819 40.6254 77.5773 42.3931 94.9511 52.6472C97.5124 51.791 100.487 51.0188 103.116 50.275L104.382 49.8138L107.029 48.5397C108.542 49.1225 122.712 49.0644 123.916 48.5619C124.625 50.3589 124.823 50.8299 125.915 52.4121L129.865 53.4423C133.791 52.0034 135.192 54.5664 137.901 53.0485C143.734 50.6595 147.881 48.6249 154.071 47.2977C154.041 50.0675 154.084 53.3775 153.917 56.093L156.059 58.6258C155.849 62.2938 155.584 63.8229 154.794 67.4316L158.108 72.9787C163.613 73.7491 178.524 74.6917 177.136 82.3827C176.475 86.0525 167.773 94.0756 164.662 96.0714L164.23 93.6312L162.274 94.2028C161.743 95.5596 161.836 96.1325 161.836 97.5658L161.243 98.3844L160.793 104.812C158.361 113.248 156.695 119.621 150.547 126.148L144.919 131.409C137.556 123.286 130.094 128.911 124.163 134.78C114.787 124.796 101.666 124.572 89.3841 128.028C88.5385 127.282 88.2978 127.351 87.1745 126.99C86.8535 127.164 86.224 127.237 85.8229 127.315C85.1933 126.554 84.5453 125.81 83.8787 125.084C80.7804 121.75 76.3799 117.909 71.6461 117.716C68.0787 117.984 67.3134 117.674 63.8572 116.558C62.0365 117.939 61.5859 118.737 59.5307 119.014L58.1852 118.334L57.6174 115.473L55.4881 115.511Z" fill="#F6C758"/>
<path d="M55.4881 115.511C58.5061 108.493 63.925 105.06 66.9739 99.803C69.2699 95.8485 56.8397 87.4816 55.0067 83.3698C48.4768 68.7311 79.7065 78.1653 75.7689 64.2389C70.819 40.6254 77.5773 42.3931 94.9511 52.6472C97.5124 51.791 100.487 51.0188 103.116 50.275C101.382 51.4799 98.7591 52.5744 97.858 54.2973C79.9658 63.2278 70.7141 75.5208 69.3625 95.6281C67.3504 99.4505 71.2017 99.0338 66.9369 103.407L66.7641 104.159C63.5486 107.98 60.6354 111.485 57.6174 115.473L55.4881 115.511Z" fill="#38291E"/>
<path d="M67.356 75.2637L70.9357 75.1094L71.5096 75.7557C69.3618 80.1879 67.8128 87.3962 66.5599 92.363C65.6341 92.3123 64.3627 90.5919 63.5295 89.711C60.2028 86.2992 57.7526 83.1473 55.4258 79.0058C60.3509 76.973 62.2457 76.486 67.356 75.2637Z" fill="#EBBD64"/>
<path d="M76.516 47.7734C83.2989 48.737 87.1069 50.9149 93.1862 53.8946C90.8224 55.228 88.4832 56.5959 86.1626 57.999C83.5519 60.1405 80.6697 62.9726 78.1639 65.3079C76.7629 58.4145 76.5037 54.5965 76.516 47.7734Z" fill="#EBBD64"/>
<path d="M137.903 53.0477C143.735 50.6587 147.883 48.6241 154.073 47.2969C154.042 50.0667 154.086 53.3767 153.919 56.0922L156.061 58.625C155.851 62.293 155.585 63.8221 154.795 67.4308L158.11 72.9779C163.615 73.7483 178.526 74.6909 177.138 82.3819C176.477 86.0517 167.775 94.0748 164.664 96.0705L164.232 93.6303L162.276 94.202C161.745 95.5588 161.838 96.1316 161.838 97.565L161.245 98.3836C159.313 74.844 152.388 62.6331 129.867 53.4415C133.793 52.0026 135.194 54.5656 137.903 53.0477Z" fill="#45311F"/>
<path d="M158.109 72.9805C163.615 73.7509 178.526 74.6935 177.137 82.3845C176.477 86.0543 167.775 94.0774 164.664 96.0731L164.232 93.6329L164.429 93.3119C163.17 88.5908 160.251 80.1313 159.498 75.7256C160.72 75.3589 161.195 75.1639 162.337 74.6688C160.615 74.2027 160.121 74.0033 158.517 73.1916L158.109 72.9805Z" fill="#EBBD64"/>
<path d="M158.109 72.9805C163.615 73.7509 178.526 74.6935 177.137 82.3845C176.477 86.0543 167.775 94.0774 164.664 96.0731L164.232 93.6329L164.429 93.3119C167.342 90.3174 174.78 84.0703 173.891 80.0474C170.731 77.1936 163.812 76.4874 159.498 75.7256C160.72 75.3589 161.195 75.1639 162.337 74.6688C160.615 74.2027 160.121 74.0033 158.517 73.1916L158.109 72.9805Z" fill="#281E18"/>
<path d="M137.898 53.0477C143.731 50.6587 147.878 48.6241 154.069 47.2969C154.038 50.0667 154.081 53.3767 153.914 56.0922L152.6 65.6246C146.496 58.5651 144.712 58.7608 138.293 53.3785L137.898 53.0477Z" fill="#F6C758"/>
<path d="M66.7639 104.159L66.9368 103.408C71.2015 99.0346 67.3503 99.4512 69.3623 95.6289C69.7943 102.628 69.9733 104.951 72.1705 111.781C83.786 110.865 91.7786 114.483 89.3839 128.029C88.5383 127.283 88.2976 127.352 87.1743 126.99C86.8534 127.165 86.2239 127.238 85.8227 127.316C85.1932 126.555 84.5451 125.811 83.8785 125.085C80.7803 121.751 76.3798 117.91 71.6459 117.717C68.0786 117.985 67.3133 117.675 63.857 116.559C62.0363 117.939 61.5858 118.738 59.5305 119.015L58.185 118.335L57.6172 115.474C60.6352 111.486 63.5484 107.981 66.7639 104.159Z" fill="#45311F"/>
<path d="M71.6479 117.715L68.8828 117.015C69.5 113.581 77.7703 113.968 80.4613 114.754C83.072 115.487 85.2753 117.239 86.5838 119.615C87.9663 122.172 87.5589 124.252 87.1763 126.988C86.8553 127.163 86.2258 127.236 85.8247 127.314C85.1951 126.553 84.5471 125.809 83.8805 125.083C80.7822 121.749 76.3817 117.908 71.6479 117.715Z" fill="#EBBD64"/>
<path d="M66.7639 104.16C67.6897 106.931 68.56 109.72 69.3746 112.526L63.857 116.56C62.0363 117.94 61.5858 118.738 59.5305 119.016L58.185 118.336L57.6172 115.475C60.6352 111.486 63.5484 107.982 66.7639 104.16Z" fill="#EBBD64"/>
<path d="M123.917 48.5613C124.627 50.3583 124.824 50.8293 125.917 52.4114C114.857 50.3447 108.598 51.3249 97.8594 54.2966C98.7605 52.5738 101.384 51.4793 103.118 50.2743L104.383 49.8132L107.031 48.5391C108.543 49.1218 122.713 49.0638 123.917 48.5613Z" fill="#3D291E"/>
<path d="M83.9932 92.4062C94.3126 93.239 98.2255 103.095 87.1594 108.006C75.6303 108.382 72.5135 96.9718 83.9932 92.4062Z" fill="#EA9F58"/>
<path d="M143.124 92.3973C146.753 92.2905 150.573 93.4572 152.548 96.7456C153.554 98.3802 153.801 100.37 153.221 102.201C152.227 105.403 150.086 106.56 147.37 107.959C143.753 108.255 140.081 107.374 137.995 104.125C136.884 102.397 136.563 100.275 137.118 98.2968C138.007 95.0467 140.414 93.8578 143.124 92.3973Z" fill="#EA9F58"/>
<path d="M96.1403 85.5113C103.911 85.1996 105.602 91.3776 100.849 96.8006C92.6347 98.8889 91.9804 90.9825 96.1403 85.5113Z" fill="#45311F"/>
<path d="M129.539 85.5241C131.119 85.4148 132.921 85.316 134.322 86.1685C135.637 86.9543 136.532 88.2883 136.754 89.8032C137.211 92.9249 135.909 94.7805 134.15 97.0244C126.28 98.2016 125.719 90.8742 129.539 85.5241Z" fill="#45311F"/>
<path d="M106.727 100.109C116.176 104.296 112.479 107.452 123.792 100.375L124.841 100.721L124.915 102.469C119.558 107.628 107.202 109.878 106.727 100.109Z" fill="#45311F"/>
<path d="M25.6657 141.811C27.4987 128.357 30.5353 122.198 43.6444 117.156L43.5826 119.882C29.0787 126.602 30.7204 131.233 28.4245 142.803C27.8197 145.84 17.8582 146.815 15.2784 156.452C14.976 167.766 25.7397 173.88 35.9603 174.16C41.5521 174.313 45.4959 172.832 50.6 170.828C64.3448 178.056 72.504 179.743 87.3412 172.867C105.986 181.422 117.812 182.733 136.198 172.391C150.936 178.092 163.922 176.74 173.612 163.059C175.469 163.567 174.71 163.101 176.013 164.429L175.513 171.755C187.4 172.705 198.336 173.109 204.823 161.108L205.656 161.883C206.175 160.441 206.31 160.29 207.551 159.385C204.675 174.512 187.289 175.536 175.031 173.748C164.126 184.338 150.905 186.853 136.926 180.531C121.083 188.574 103.32 190.605 87.5819 180.905C74.0779 187.739 63.9745 187.631 50.9025 180.174C38.3242 183.816 21.7157 184.213 14.3711 171.102C11.816 166.423 11.2235 160.918 12.7356 155.804C14.8155 148.821 19.5864 145.111 25.6657 141.811Z" fill="#F3DECF"/>
<path d="M25.6657 141.811C27.4987 128.357 30.5353 122.198 43.6444 117.156L43.5826 119.882C29.0787 126.602 30.7204 131.233 28.4245 142.803C27.8197 145.84 17.8582 146.815 15.2784 156.452C11.1309 178.391 35.3987 185.634 50.9025 176.805C57.4262 182.078 64.3016 184.225 72.7385 183.365C78.0587 182.845 83.1567 180.951 87.5202 177.869C101.376 187.388 122.496 187.522 136.08 177.45C138.426 178.49 140.901 179.643 143.413 180.277C153.726 182.882 168.551 180.955 173.217 169.907C174.149 167.697 173.686 165.369 173.612 163.059C175.469 163.567 174.71 163.101 176.013 164.429L175.513 171.755C187.4 172.705 198.336 173.109 204.823 161.108L205.656 161.883C206.175 160.441 206.31 160.29 207.551 159.385C204.675 174.512 187.289 175.536 175.031 173.748C164.126 184.338 150.905 186.853 136.926 180.531C121.083 188.574 103.32 190.605 87.5819 180.905C74.0779 187.739 63.9745 187.631 50.9025 180.174C38.3242 183.816 21.7157 184.213 14.3711 171.102C11.816 166.423 11.2235 160.918 12.7356 155.804C14.8155 148.821 19.5864 145.111 25.6657 141.811Z" fill="#281E18"/>
<path d="M63.8571 116.559C67.3133 117.675 68.0786 117.985 71.646 117.716C76.3798 117.909 80.7803 121.75 83.8786 125.084C84.5452 125.811 85.1932 126.555 85.8227 127.316C86.2239 127.237 86.8534 127.164 87.1743 126.99C88.2976 127.352 88.5384 127.282 89.3839 128.028C101.666 124.572 114.787 124.796 124.162 134.78C130.094 128.911 137.555 123.286 144.918 131.41C145.295 132.262 145.733 133.571 146.35 134.123C148.307 141.796 140.913 151.071 133.661 151.575C124.082 152.242 122.502 143.864 121.737 137.23C119.398 133.36 114.855 131.494 110.763 130.116C100.512 126.665 94.0684 129.369 84.9587 133.852L84.2057 133.587C83.607 129.736 83.5021 128.598 80.9717 125.84C70.6831 114.644 64.394 122.054 58.4134 121.746L56.5742 119.677L58.1851 118.335L59.5306 119.014C61.5858 118.737 62.0364 117.939 63.8571 116.559Z" fill="#38291E"/>
<path d="M134.629 130.059C148.497 129.208 146.201 143.949 134.264 149.096C128.451 148.737 126.63 145.133 123.062 140.966C126.334 135.889 129.463 133.016 134.629 130.059Z" fill="#F6C758"/>
<path d="M160.792 104.813C166.137 103.267 163.415 104.318 168.297 105.783C170.76 108.002 173.025 111.319 174.247 114.4L172.852 115.305C173.259 116.521 173.222 116.508 173.969 117.537C164.896 118.939 159.453 120.808 152.812 127.43C151.757 127.277 151.491 126.858 150.547 126.149C156.694 119.622 158.36 113.249 160.792 104.813Z" fill="#38291E"/>
<path d="M162.982 104.617C166.845 107.611 169.4 111.151 172.437 114.95L165.45 116.869L158.062 120.261C160.371 114.593 161.587 110.507 162.982 104.617Z" fill="#EBBD64"/>
<path d="M205.384 153.98C205.273 156.41 205.248 158.708 204.822 161.104C198.335 173.105 187.399 172.702 175.512 171.751L176.012 164.425C186.269 170.336 199.489 163.154 205.384 153.98Z" fill="#F3DECF"/>
<path d="M183.653 115.484C195.787 120.019 201.354 128.396 198.355 141.449C204.798 145.654 209.76 150.968 207.551 159.381C206.31 160.287 206.174 160.438 205.656 161.88L204.823 161.104C205.248 158.708 205.273 156.41 205.384 153.981C200.984 142.646 196.046 146.514 190.64 142.725L190.819 141.975C192.269 141.544 193.732 141.149 195.207 140.789C197.237 137.72 196.083 130.779 194.497 127.524C192.022 122.445 188.535 120.399 183.406 118.55L183.653 115.484Z" fill="#1E1B1B"/>
<path d="M150.547 126.148C151.491 126.857 151.756 127.276 152.812 127.429C159.434 127.645 166.884 129.413 170.963 135.257C172.117 136.912 173.451 138.725 173.339 140.784L172.537 141.208C167.865 136.665 163.02 130.198 155.929 129.879C152.769 129.737 148.356 131.623 146.35 134.123C145.733 133.571 145.294 132.262 144.918 131.41L150.547 126.148Z" fill="#29221F"/>
<path d="M55.4876 115.511L57.6169 115.473L58.1847 118.334L56.5739 119.676C51.1303 118.487 49.075 118.743 43.582 119.88L43.6438 117.154C48.032 116.013 50.3526 116.049 54.8642 116.152L55.4876 115.511Z" fill="#281E18"/>
<path d="M173.969 117.536C173.222 116.507 173.259 116.52 172.852 115.303L174.246 114.398C177.413 114.651 180.542 114.824 183.652 115.486L183.405 118.551C180.128 117.679 177.326 117.681 173.969 117.536Z" fill="#281E18"/>
<path d="M42.4977 145.61C43.047 147.198 44.6456 148.173 46.3058 147.932L45.6269 148.009C45.3677 149.14 44.8924 150.799 44.2876 151.764C43.5284 152.957 42.3126 153.787 40.9239 154.061C37.0357 154.872 34.1348 153.038 33.5547 149.093C35.7395 142.998 39.6834 147.033 42.4977 145.61Z" fill="#F3DECF"/>
<path d="M72.267 145.411C76.6367 145.145 80.1238 144.73 81.6976 149.921C80.8582 154.755 74.1 154.892 70.9647 150.861L70.582 147.683L70.2734 147.661C71.2486 147.256 71.9831 146.427 72.267 145.411Z" fill="#F3DECF"/>
<path d="M42.4965 145.612C42.0151 144.216 42.4595 142.669 43.6075 141.743C44.7555 140.817 46.3663 140.712 47.6254 141.48C48.8845 142.248 49.5263 143.724 49.2301 145.171C48.9338 146.617 47.7673 147.722 46.3046 147.933C44.6444 148.174 43.0458 147.199 42.4965 145.612Z" fill="#2D2D2E"/>
<path d="M70.276 147.659C68.7886 148.273 67.079 147.782 66.147 146.475C65.2213 145.166 65.3138 143.389 66.3816 142.189C67.4493 140.989 69.2021 140.684 70.6093 141.453C72.0165 142.224 72.7078 143.865 72.2696 145.41C71.9857 146.426 71.2512 147.255 70.276 147.659Z" fill="#2D2D2E"/>
<path d="M62.2402 148.508C63.166 149.411 62.9561 149.292 63.4252 150.6C61.6107 154.958 55.1364 153.762 51.6184 152.422L50.9766 150.429L51.6184 149.725C57.457 150.999 57.8644 152.767 62.2402 148.508Z" fill="#281E18"/>
<path d="M104.383 49.8143C111.604 27.9999 118.72 25.8821 126.478 49.4248L136.267 52.7989C141.463 48.9933 157.628 37.731 156.689 53.0471C156.578 54.8681 156.301 56.8102 156.06 58.6263L153.918 56.0935C154.085 53.378 154.042 50.068 154.073 47.2981C147.882 48.6253 143.735 50.66 137.902 53.0489C135.193 54.5669 133.792 52.0038 129.867 53.4428L125.916 52.4125C124.824 50.8304 124.627 50.3593 123.917 48.5624C122.713 49.0649 108.543 49.1229 107.031 48.5402L104.383 49.8143Z" fill="#281E18"/>
<path d="M107.031 48.5403C108.784 44.4311 110.963 37.7089 114.623 35.4727C119.4 35.6842 122.066 44.5867 123.917 48.5625C122.714 49.065 108.543 49.123 107.031 48.5403Z" fill="#EBBD64"/>
<path d="M161.244 98.386L161.836 97.5675C161.836 96.1341 161.743 95.5613 162.274 94.2044L164.231 93.6328L164.663 96.073C162.786 102.424 164.657 101.639 168.298 105.783C163.416 104.319 166.138 103.268 160.793 104.814L161.244 98.386Z" fill="#2F291C"/>
</svg>
