<svg width="220" height="220" viewBox="0 0 220 220" fill="none" xmlns="http://www.w3.org/2000/svg">
<path d="M86.629 52.5298C86.8351 51.7835 87.0666 51.0446 87.3246 50.3143C88.8694 45.9432 93.178 35.8933 97.4761 34.1654C98.7259 33.6494 100.137 33.6948 101.351 34.2903C106.485 36.77 110.131 47.4957 112.18 52.723C115.125 53.5021 118.096 54.3564 121.034 55.1731C143.616 42.7098 146.42 44.1827 141.594 70.6266L147.039 77.7787C152.442 78.5065 163.352 79.7516 167.182 83.3647C172.647 88.521 157.874 101.321 154.031 104.349L153.669 111.417C157.181 114.411 166.6 124.663 166.998 129.412C167.154 131.274 166.142 131.988 165.066 133.257C158.352 133.972 152.93 135.909 144.983 136.569C142.738 139.495 140.421 141.398 140.825 144.739C141.81 149.733 144.106 157.354 141.392 161.553C136.135 164.59 127.202 158.566 122.077 155.846L120.425 155.943C118.76 158.564 119.865 163.845 120.264 167.164C125.494 169.31 126.697 169.113 128.7 174.436C125.042 183.427 114.618 182.82 107.097 178.821C104.08 177.216 103.879 173.94 103.378 170.822C103.778 169.414 103.996 167.134 104.192 165.617C104.611 164.937 105.017 164.294 105.264 163.53L104.516 163.379L105.172 162.752L105.571 163.003L104.973 163.171C105.154 164.573 105.107 165.087 105.915 166.269C106.2 163.881 105.853 161.423 105.619 159.021C104.905 157.464 104.879 157.529 103.624 156.311C95.6634 156.397 90.8839 155.627 83.1474 153.943C83.1659 155.103 83.2493 155.594 83.0203 156.74C81.7372 161.54 83.3215 166.808 80.0535 170.278L78.8401 170.465C75.3382 170.566 75.0561 170.575 72.87 173.566L72.3979 174.2C72.2997 174.336 72.2022 174.472 72.1041 174.607L71.5752 174.495L71.2876 173.82C73.2533 169.643 75.7116 169.08 79.8726 166.997C80.3256 162.694 80.1806 158.45 80.13 154.127C62.1236 165.566 52.0776 170.034 59.4122 142.773C57.299 139.856 55.7857 138.247 53.2922 135.614C27.1044 132.729 25.0887 130.869 45.4206 111.436C45.399 109.323 45.2713 107.005 45.1929 104.876C41.2595 101.942 32.5928 93.4662 31.4333 88.8469C29.5299 81.264 47.0074 79.7158 51.9313 78.9034C53.2145 76.3941 55.4493 73.3675 57.1021 70.9841C51.5431 47.3982 54.9494 39.5677 77.1527 55.8268C80.1263 54.6614 83.5758 53.5724 86.629 52.5298Z" fill="#F6C758"/>
<path d="M86.629 52.5298C86.8351 51.7835 87.0666 51.0446 87.3246 50.3143C88.8694 45.9432 93.178 35.8933 97.4761 34.1654C98.7259 33.6494 100.137 33.6948 101.351 34.2903C106.485 36.77 110.131 47.4957 112.18 52.723C115.125 53.5021 118.096 54.3564 121.034 55.1731C143.616 42.7098 146.42 44.1827 141.594 70.6266L147.039 77.7787C152.442 78.5065 163.352 79.7516 167.182 83.3647C172.647 88.521 157.874 101.321 154.031 104.349L153.669 111.417C157.181 114.411 166.6 124.663 166.998 129.412C167.154 131.274 166.142 131.988 165.066 133.257L162.689 132.472L162.392 131.743C163.544 130.756 163.547 130.832 164.165 129.349C163.36 124.698 156.811 118.686 153.334 114.653C152.135 113.157 151.679 114.181 150.696 111.489C153.841 83.9573 137.93 63.5555 112.323 55.4564C112.115 53.2385 111.014 51.4779 108.751 50.9946C107.944 51.3841 91.5918 51.4526 89.3718 51.6008L87.8276 54.8243C73.049 59.3522 61.2416 66.7494 53.7335 80.8245C47.1055 93.2625 45.7545 107.843 49.9841 121.287C54.0298 133.929 62.9277 144.447 74.7222 150.532C77.4181 151.93 80.2386 153.072 83.1474 153.943C83.1659 155.103 83.2493 155.594 83.0203 156.74C81.7372 161.54 83.3215 166.808 80.0535 170.278L78.8401 170.465C75.3382 170.566 75.0561 170.575 72.87 173.566L72.3979 174.2C72.2997 174.336 72.2022 174.472 72.1041 174.607L71.5752 174.495L71.2876 173.82C73.2533 169.643 75.7116 169.08 79.8726 166.997C80.3256 162.694 80.1806 158.45 80.13 154.127C62.1236 165.566 52.0776 170.034 59.4122 142.773C57.299 139.856 55.7857 138.247 53.2922 135.614C27.1044 132.729 25.0887 130.869 45.4206 111.436C45.399 109.323 45.2713 107.005 45.1929 104.876C41.2595 101.942 32.5928 93.4662 31.4333 88.8469C29.5299 81.264 47.0074 79.7158 51.9313 78.9034C53.2145 76.3941 55.4493 73.3675 57.1021 70.9841C51.5431 47.3982 54.9494 39.5677 77.1527 55.8268C80.1263 54.6614 83.5758 53.5724 86.629 52.5298Z" fill="#38291E"/>
<path d="M89.375 51.6038C91.6308 46.9209 93.894 40.4477 97.7576 37.1864C103.316 35.6688 106.805 46.5987 108.755 50.9976C107.947 51.3871 91.595 51.4556 89.375 51.6038Z" fill="#F6C758"/>
<path d="M148.391 80.9258C155.193 81.5999 160.692 83.0512 166.961 85.6858C165.24 88.2914 162.738 91.2921 160.768 93.7928L153.927 101.591C152.513 93.4619 151.408 88.5791 148.391 80.9258Z" fill="#EBBD64"/>
<path d="M45.3222 115.156C46.0919 116.211 50.2931 129.46 52.4662 133.414C48.7785 132.933 44.9451 132.254 41.2605 131.66C38.3265 131.145 35.765 130.236 32.9375 129.32C36.7977 123.017 39.9669 119.883 45.3222 115.156Z" fill="#EBBD64"/>
<path d="M56.9883 49.5938C63.0071 50.4234 69.4524 53.8445 74.6843 56.8446C72.3266 58.1835 70.2362 59.5724 67.9748 61.0595C64.7704 63.2688 61.7172 66.3035 58.8473 68.9807C57.3907 62.8713 57.1531 55.8439 56.9883 49.5938Z" fill="#EBBD64"/>
<path d="M49.6206 81.457L50.0329 81.962C49.3941 84.3077 48.4097 86.0325 47.6734 88.3616C46.2791 92.7728 45.7644 97.3334 45.1843 101.909L40.0221 96.2828C36.839 92.474 35.0289 90.4289 32.5273 86.0998C37.3342 84.2423 44.5868 82.4447 49.6206 81.457Z" fill="#EBBD64"/>
<path d="M138.844 49.7461L139.896 50.0017C141.443 52.9024 140.029 65.0317 139.717 69.0386C137.89 66.7657 135.16 64.399 132.974 62.3823C129.24 59.5451 127.38 58.4704 123.344 56.2432C128.908 53.5944 132.967 51.561 138.844 49.7461Z" fill="#F6C758"/>
<path d="M61.2297 144.449C66.8356 149.065 69.5223 151.117 75.9947 154.068L69.118 157.587C65.842 159.428 62.9406 160.446 59.4603 161.763C59.4109 155.056 59.5788 151.06 61.2297 144.449Z" fill="#EBBD64"/>
<path d="M150.697 111.492C151.68 114.184 152.136 113.16 153.335 114.656C156.813 118.689 163.361 124.701 164.166 129.353C163.549 130.835 163.545 130.759 162.394 131.746L162.69 132.475L165.067 133.261C158.354 133.975 152.931 135.913 144.985 136.572C142.739 139.499 140.422 141.402 140.826 144.743C141.812 149.737 144.108 157.358 141.393 161.556C136.137 164.593 127.204 158.569 122.078 155.849L120.426 155.947C118.762 158.567 119.866 163.849 120.266 167.167C125.495 169.313 126.699 169.117 128.701 174.439C125.043 183.43 114.619 182.823 107.098 178.824C104.081 177.219 103.88 173.943 103.379 170.825C103.779 169.417 103.997 167.137 104.193 165.62C104.613 164.941 105.019 164.297 105.265 163.533L104.517 163.382L105.174 162.755L105.572 163.006L104.974 163.174C105.155 164.576 105.108 165.091 105.917 166.272C106.201 163.884 105.854 161.426 105.62 159.024C104.906 157.467 104.881 157.532 103.625 156.314C105.131 155.848 109.443 155.573 111.327 155.222C134.556 150.898 147.475 133.766 150.697 111.492Z" fill="#45311F"/>
<path d="M105.617 159.024C109.323 158.253 113.31 157.642 116.937 156.828C117.173 161.576 117.393 164.873 118.074 169.605C121.209 170.766 125.957 171.813 124.711 176.011C120.925 179.349 110.666 179.544 107.311 175.702C106.165 172.915 106.128 169.336 105.914 166.272C106.199 163.883 105.851 161.426 105.617 159.024Z" fill="#F6C758"/>
<path d="M138.153 145.048L140.826 144.742C141.812 149.736 144.108 157.357 141.394 161.556C136.137 164.593 127.204 158.569 122.078 155.849C123.315 155.599 123.79 155.222 124.857 154.589C125.4 153.84 136.621 146.035 138.153 145.048Z" fill="#EBBD64"/>
<path d="M138.153 145.048L140.826 144.742C141.812 149.736 144.108 157.357 141.394 161.556C136.137 164.593 127.204 158.569 122.078 155.849C123.315 155.599 123.79 155.222 124.857 154.589C130.136 156.741 133.707 159.276 140.05 161.579C140.045 155.083 139.65 151.352 138.153 145.048Z" fill="#281E18"/>
<path d="M153.334 114.656C156.811 118.689 163.359 124.701 164.165 129.352C163.547 130.835 163.543 130.759 162.392 131.746C161.102 131.52 149.288 133.722 146.453 134.041C150.202 126.3 151.263 122.76 153.334 114.656Z" fill="#F6C758"/>
<path d="M108.752 50.9961C111.015 51.4794 112.116 53.24 112.324 55.458C101.764 53.0801 98.5289 53.1134 87.8281 54.8258L89.3723 51.6023C91.5924 51.4541 107.945 51.3856 108.752 50.9961Z" fill="#45311F"/>
<path d="M130.579 100.993C142.952 100.717 146.239 112.072 135.013 117.584C122.514 117.823 118.943 106.52 130.579 100.993Z" fill="#EA9F58"/>
<path d="M63.3792 101.172C67.9038 99.7084 72.7611 102.173 74.2516 106.69C75.7421 111.207 73.3067 116.079 68.8006 117.598C64.255 119.129 59.3323 116.668 57.8289 112.112C56.3254 107.557 58.8158 102.648 63.3792 101.172Z" fill="#EA9F58"/>
<path d="M78.9048 92.8171C87.2393 92.7331 87.6195 100.505 82.5814 105.544C74.1586 105.588 74.242 98.1191 78.9048 92.8171Z" fill="#45311F"/>
<path d="M115.705 92.8047C124.161 92.9522 125.065 100.122 119.411 105.199C111.676 105.271 111.538 97.8215 115.705 92.8047Z" fill="#45311F"/>
<path d="M88.375 108.184C91.9053 108.656 93.1175 113.302 98.7623 113.704C104.635 114.121 106.114 109.223 109.345 109.321L110.002 110.768C103.539 118.409 90.3235 119.025 88.375 108.184Z" fill="#38291E"/>
<path d="M96.3822 172.539C100.056 171.37 97.1617 168.925 103.378 170.825C103.879 173.943 104.08 177.219 107.097 178.824C114.618 182.823 125.042 183.43 128.701 174.439C133.344 172.466 151.848 174.024 152.691 179.731C145.866 188.922 54.5338 188.579 45.2148 180.111C46.1332 174.521 66.6979 173.544 71.2879 173.824L71.5755 174.498C72.2927 182.613 83.1953 181.884 89.0018 180.461C94.2553 179.173 93.8893 176.942 96.0322 173.15L96.3822 172.539Z" fill="#ECD1B9"/>
<path d="M83.1504 153.945C90.8868 155.63 95.6663 156.4 103.627 156.313C104.882 157.531 104.908 157.466 105.622 159.024C105.855 161.426 106.203 163.883 105.918 166.272C105.11 165.09 105.157 164.575 104.976 163.173L105.574 163.005L105.175 162.755L104.519 163.381L105.267 163.533C105.02 164.296 104.614 164.94 104.195 165.62C103.717 163.01 103.787 161.621 103.807 158.982L96.0718 158.908C96.0749 163.117 95.9231 168.443 96.3847 172.538L96.0348 173.15C93.8919 176.941 94.2579 179.173 89.0044 180.46C83.1979 181.883 72.2953 182.613 71.5781 174.498L72.1071 174.61C72.2052 174.474 72.3027 174.339 72.4008 174.203L72.873 173.569C75.0591 170.577 75.3411 170.569 78.843 170.467L80.0564 170.281C83.3244 166.811 81.7401 161.543 83.0233 156.743C83.2522 155.597 83.1689 155.106 83.1504 153.945Z" fill="#F6C758"/>
<path d="M83.1504 153.945C90.8868 155.63 95.6663 156.4 103.627 156.313C104.882 157.531 104.908 157.466 105.622 159.024C105.855 161.426 106.203 163.883 105.918 166.272C105.11 165.09 105.157 164.575 104.976 163.173L105.574 163.005L105.175 162.755L104.519 163.381L105.267 163.533C105.02 164.296 104.614 164.94 104.195 165.62C103.717 163.01 103.787 161.621 103.807 158.982L96.0718 158.908C96.0749 163.117 95.9231 168.443 96.3847 172.538L96.0348 173.15C93.8919 176.941 94.2579 179.173 89.0044 180.46C83.1979 181.883 72.2953 182.613 71.5781 174.498L72.1071 174.61C72.2052 174.474 72.3027 174.339 72.4008 174.203L72.873 173.569C75.0591 170.577 75.3411 170.569 78.843 170.467C76.3805 171.391 74.2265 172.868 74.5659 175.689C77.8994 179.723 87.7682 179.37 91.7688 176.205C94.0974 172.764 93.4167 163.274 93.4142 158.658C89.637 158.317 86.6918 157.581 83.0233 156.743C83.2522 155.597 83.1689 155.106 83.1504 153.945Z" fill="#3D291E"/>
</svg>
