<svg width="220" height="220" viewBox="0 0 220 220" fill="none" xmlns="http://www.w3.org/2000/svg">
<path d="M100.385 52.3403C109.97 31.5125 114.19 26.8077 124.109 50.2557C127.137 56.241 129.7 53.0489 132.787 56.4855C139.444 57.3269 149.553 46.2747 156.22 50.5353C160.513 57.2836 153.314 69.9278 156.185 75.0317L159.527 80.3362C166.037 80.543 168.446 82.3455 173.552 83.1708C175.826 84.082 177.716 84.5906 179.17 86.5796C181.624 92.5365 171.814 100.706 167.541 104.114L166.107 102.701C163.967 103.857 163.453 103.871 162.658 106.62C162.579 106.894 162.505 107.17 162.436 107.447L162.071 112.125C159.48 124.971 157.1 131.696 147.901 141.232L149.241 143.813C143.824 148.228 141.652 149.414 136.04 153.262C136.23 154.069 136.011 153.846 136.394 154.131L133.451 154.774L132.559 156.736C133.038 159.58 133.168 163.714 134.46 165.87L136.118 166.969C139.931 167.818 140.541 168.963 142.115 172.408C142.027 173.23 141.553 175.945 141.057 176.395C133.611 183.164 119.171 181.891 117.175 170.778C117.708 167.559 117.549 161.483 117.56 158.019C113.271 158.134 110.984 158.158 106.724 157.714C107.453 161.346 107.403 170.37 107.192 174.294C106.695 174.656 106.168 175.724 105.672 176.199C101.11 180.558 90.7966 182.093 85.4616 178.32C83.1126 176.659 82.8108 174.659 82.288 172.164C85.4215 168.561 86.7349 167.682 91.0336 165.701C91.4971 161.666 91.3872 157.273 91.3928 153.186C86.4929 155.435 76.7235 161.584 71.9514 158.888C69.2401 155.022 71.2546 146.138 71.9798 141.343C69.5413 138.81 68.0329 136.545 66.0344 133.698C44.315 132.311 36.9396 126.944 57.2531 111.267C54.8954 106.486 53.5308 102.944 52.0644 97.8459C41.1013 94.4304 38.6813 89.9334 41.5419 78.9077C45.1346 75.5866 51.5601 64.8771 57.034 71.9785L59.4058 75.0996C63.0849 75.2089 63.7206 75.2231 67.1737 76.4169C68.2773 74.4656 69.5431 72.4199 70.6979 70.4822C69.6746 65.974 68.2933 54.4113 70.0684 50.2939C73.0531 43.3705 86.9682 53.2051 90.9774 55.8237C93.4795 54.9768 96.3717 53.7953 98.9638 53.694L100.385 52.3403Z" fill="#F6C758"/>
<path d="M70.6979 70.4806C69.6746 65.9724 68.2933 54.4097 70.0684 50.2923C73.0531 43.3689 86.9682 53.2035 90.9774 55.8221C93.4795 54.9752 96.3717 53.7937 98.9638 53.6924C100.503 54.8851 100.708 54.9919 102.636 55.2351C88.587 58.4204 77.3604 64.878 69.4771 77.3438C68.8284 78.3796 68.2199 79.4401 67.6533 80.5235L67.5194 78.5006C65.9097 76.2215 62.2973 75.9622 59.828 77.1579L59.6459 78.6586C58.7559 80.7908 59.1367 80.8871 57.5592 81.8735C55.7601 78.8129 56.4316 73.9406 53.3845 72.2701C44.9525 73.2084 35.0244 95.0344 53.7987 95.1313C54.9016 99.603 55.6688 101.297 57.3759 105.398C66.5782 127.506 68.0847 142.064 92.5784 152.279C92.3025 153.167 93.2184 160.742 93.3456 162.679C93.4894 161.026 93.5301 157.277 94.467 156.224C98.4929 156.039 100.251 156.772 103.83 158.658C104.889 160.285 104.578 160.832 104.69 162.962C104.905 161.26 105.104 159.965 105.458 158.287L106.724 157.713C107.453 161.344 107.403 170.368 107.192 174.292C106.695 174.654 106.168 175.723 105.672 176.197C101.11 180.556 90.7966 182.092 85.4616 178.318C83.1126 176.657 82.8108 174.657 82.288 172.162C85.4215 168.559 86.7349 167.68 91.0336 165.699C91.4971 161.664 91.3872 157.271 91.3928 153.184C86.4929 155.434 76.7235 161.583 71.9514 158.886C69.2401 155.021 71.2546 146.137 71.9798 141.341C69.5413 138.809 68.0329 136.543 66.0344 133.696C44.315 132.309 36.9396 126.943 57.2531 111.265C54.8954 106.484 53.5308 102.943 52.0644 97.8444C41.1013 94.4288 38.6813 89.9318 41.5419 78.9061C45.1346 75.5851 51.5601 64.8755 57.034 71.9769L59.4058 75.098C63.0849 75.2073 63.7206 75.2215 67.1737 76.4153C68.2773 74.464 69.5431 72.4183 70.6979 70.4806Z" fill="#38291E"/>
<path d="M93.3458 162.682C93.4896 161.029 93.5303 157.28 94.4672 156.227C98.4931 156.042 100.251 156.775 103.83 158.66C104.889 160.288 104.579 160.835 104.69 162.964C103.873 166.579 105.282 171.466 103.563 174.788C100.185 177.795 90.2913 178.765 86.3037 175.703C85.6371 175.191 85.8957 174.013 85.9031 173.093C88.4459 167.754 93.2933 171.25 93.3458 162.682Z" fill="#F6C758"/>
<path d="M57.9827 113.836C58.1926 114.09 63.7781 128.846 65.1717 131.558C61.6062 131.184 58.042 130.394 54.5221 129.686C51.3307 128.87 49.347 128.001 46.2969 126.724C49.6599 121.757 53.6531 117.9 57.9827 113.836Z" fill="#EBBD64"/>
<path d="M71.7423 49.8867C78.2129 51.0534 82.9245 54.03 88.6057 57.1956C86.2215 58.3783 83.8336 59.8086 81.5148 61.142C77.7327 63.7933 75.6583 65.902 72.3841 69.0811C71.9953 62.413 71.6799 56.5523 71.7423 49.8867Z" fill="#EBBD64"/>
<path d="M73.9914 143.891C78.1488 147.431 81.8118 149.945 86.2876 153.058L81.9926 154.832C78.8481 156.111 75.2875 158.632 72.5984 156.19C71.9318 153.624 73.468 146.858 73.9914 143.891Z" fill="#EBBD64"/>
<path d="M147.902 141.23L149.242 143.811C143.825 148.226 141.653 149.412 136.041 153.26C136.23 154.067 136.011 153.844 136.394 154.129L133.451 154.772L132.56 156.734C133.038 159.579 133.168 163.712 134.46 165.868L136.118 166.967C139.932 167.816 140.541 168.961 142.116 172.406C142.028 173.228 141.553 175.943 141.058 176.393C133.612 183.163 119.171 181.889 117.175 170.776C117.709 167.557 117.549 161.481 117.561 158.017C113.271 158.132 110.984 158.156 106.724 157.712L105.458 158.287C105.104 159.964 104.906 161.259 104.691 162.961C104.579 160.832 104.889 160.285 103.83 158.658C100.251 156.772 98.4934 156.039 94.4675 156.224C93.5306 157.277 93.4898 161.026 93.346 162.679C93.2189 160.742 92.303 153.167 92.5789 152.278C113.474 158.712 131.585 155.955 147.902 141.23Z" fill="#45311F"/>
<path d="M130.052 155.695C130.246 158.123 130.52 160.315 130.834 162.724C130.907 166.281 130.661 167.24 133.993 169.153C136.092 169.654 138.035 170.815 139.071 172.728C138.536 178.476 124.912 178.547 122.084 175.478C119.299 172.457 119.931 161.944 119.902 157.823L130.052 155.695Z" fill="#F6C758"/>
<path d="M130.832 162.724C132.581 160.317 131.858 160.15 132.56 156.734C133.038 159.579 133.169 163.712 134.46 165.868L136.119 166.967L133.991 169.153C130.659 167.24 130.905 166.281 130.832 162.724Z" fill="#3D291E"/>
<path d="M156.187 75.0312L159.528 80.3357C166.038 80.5425 168.448 82.345 173.554 83.1704C175.827 84.0815 177.717 84.5902 179.172 86.5791C181.626 92.5361 171.816 100.705 167.543 104.114L166.108 102.701C163.969 103.856 163.455 103.87 162.66 106.62C162.58 106.894 162.506 107.17 162.437 107.447C162.663 95.2775 160.872 90.2527 155.789 79.211C155.972 78.3011 156.1 76.0412 156.187 75.0312Z" fill="#F6C758"/>
<path d="M156.187 75.0312L159.528 80.3357C166.038 80.5425 168.448 82.345 173.554 83.1704L173.681 86.0914C169.358 84.9334 165.243 83.6908 160.789 83.2025C162.302 87.3804 165.067 101.178 166.089 102.281L166.108 102.701C163.969 103.856 163.455 103.87 162.66 106.62C162.58 106.894 162.506 107.17 162.437 107.447C162.663 95.2775 160.872 90.2527 155.789 79.211C155.972 78.3011 156.1 76.0412 156.187 75.0312Z" fill="#45311F"/>
<path d="M173.551 83.168C175.825 84.0791 177.714 84.5878 179.169 86.5767C181.623 92.5337 171.813 100.703 167.54 104.111L166.106 102.698L166.086 102.278C169.498 99.0351 176.569 93.372 177.195 88.9681C176.158 86.8909 176.016 87.3076 173.679 86.089L173.551 83.168Z" fill="#281E18"/>
<path d="M132.788 56.4856C139.445 57.327 149.554 46.2748 156.222 50.5354C160.514 57.2838 153.315 69.928 156.186 75.0318C156.1 76.0417 155.972 78.3017 155.789 79.2116C148.493 69.1563 143.971 64.363 132.703 58.6795C132.792 58.306 132.644 57.2696 132.788 56.4856Z" fill="#38291E"/>
<path d="M152.032 52.1164C153.752 52.1478 153.076 51.8349 154.22 52.8349C155.294 57.3696 153.648 65.9365 152.914 70.736C151.06 68.557 148.621 66.3686 146.515 64.3803C143.444 61.8345 141.072 60.1283 137.773 57.8715C142.983 55.4831 146.566 53.7818 152.032 52.1164Z" fill="#F6C758"/>
<path d="M100.383 52.3403C109.967 31.5125 114.188 26.8077 124.107 50.2557L121.535 51.2983L121.436 52.2088C115.485 51.7316 109.349 52.0452 103.327 51.9582L100.383 52.3403Z" fill="#EBBD64"/>
<path d="M100.383 52.3403C109.967 31.5125 114.188 26.8077 124.107 50.2557L121.535 51.2983C119.905 46.9049 117.588 36.8253 112.1 37.8088C108.214 40.5631 105.48 47.5222 103.327 51.9582L100.383 52.3403Z" fill="#020202"/>
<path d="M59.6484 78.6595L59.8305 77.1589C62.2999 75.9632 65.9123 76.2224 67.5219 78.5015L67.6558 80.5244C63.0152 93.1365 67.8558 90.3111 66.9566 99.0083L66.074 99.4923C64.3181 98.1367 62.7066 90.9883 61.8685 88.2049C63.0491 85.2634 65.6605 80.6349 63.5398 78.0867C61.6142 77.9503 61.5154 78.0268 59.6484 78.6595Z" fill="#3D291E"/>
<path d="M100.386 52.3376L103.33 51.9555C109.352 52.0425 115.488 51.7289 121.44 52.2061L121.482 55.1815C115.464 53.9969 108.688 54.4494 102.637 55.234C100.709 54.9907 100.504 54.884 98.9648 53.6913L100.386 52.3376Z" fill="#3D291E"/>
<path d="M124.108 50.2539C127.135 56.2393 129.699 53.0472 132.786 56.4837C132.642 57.2677 132.789 58.3041 132.701 58.6776C128.309 57.0399 126.051 56.3269 121.479 55.1824L121.438 52.207L121.536 51.2965L124.108 50.2539Z" fill="#3D291E"/>
<path d="M141.193 100.032C144.155 98.8539 147.522 99.3731 149.992 101.389C152.462 103.405 153.645 106.6 153.084 109.739C152.523 112.877 150.306 115.465 147.291 116.5C142.782 118.048 137.861 115.715 136.205 111.243C134.549 106.772 136.764 101.795 141.193 100.032Z" fill="#EA9F58"/>
<path d="M77 99.8887C80.0748 99.022 83.3761 99.9338 85.5708 102.255C87.7662 104.577 88.4914 107.925 87.4551 110.946C86.4183 113.969 83.7909 116.166 80.6333 116.651C76.1458 117.34 71.8964 114.417 70.9349 109.979C69.9727 105.541 72.6297 101.12 77 99.8887Z" fill="#EA9F58"/>
<path d="M120.389 107.418L121.785 108.463C123.084 115.392 113.288 121.826 104.998 116.234C103.514 114.2 102.245 112.901 101.914 110.45C104.879 106.253 112.214 113.709 120.389 107.418Z" fill="#38231E"/>
<path d="M105.094 111.57C108.53 112.217 115.212 112.204 117.42 113.07L117.057 114.603C111.406 117.893 108.252 117.216 105.094 111.57Z" fill="#DC846D"/>
<path d="M128.422 91.9414C136.233 92.8087 136.81 99.6892 131.708 104.807C123.282 104.615 123.216 97.1521 128.422 91.9414Z" fill="#45311F"/>
<path d="M92.0852 91.8945C99.9833 93.2421 99.3846 100.074 94.5595 104.949C86.2213 104.328 86.7971 96.6916 92.0852 91.8945Z" fill="#45311F"/>
<path d="M107.193 174.294C111.188 169.691 111.288 169.093 117.175 170.779C119.171 181.891 133.612 183.165 141.058 176.395C141.554 175.945 142.028 173.23 142.116 172.408C147.188 171.125 163.661 173.398 165.946 178.335C165.678 178.788 165.47 179.136 165.045 179.462C153.733 188.112 81.2605 185.677 66.0178 182.397C63.3787 181.829 59.359 181.076 57.8203 178.661L58.1974 177.488C63.6644 172.784 75.2836 172.442 82.2887 172.164C82.8114 174.659 83.1133 176.659 85.4623 178.32C90.7973 182.094 101.111 180.558 105.673 176.199C106.169 175.724 106.696 174.656 107.193 174.294Z" fill="#ECD1B9"/>
<path d="M147.903 141.233C157.102 131.697 159.482 124.972 162.073 112.125L163.427 113.495C164.617 113.04 164.462 113.183 165.488 112.474C182.807 130.965 181.962 133.698 156.619 135.915C154.806 137.947 152.986 139.891 151.411 142.114C153.482 148.784 156.798 167.566 142.888 160.157C140.182 158.716 135.763 156.609 133.453 154.774L136.396 154.131C136.013 153.846 136.232 154.069 136.042 153.262C141.654 149.414 143.826 148.228 149.243 143.813L147.903 141.233Z" fill="#38291E"/>
<path d="M149.24 143.812C149.957 149.277 150.656 154.762 150.657 160.286C144.633 158.249 141.844 156.48 136.393 154.131C136.009 153.846 136.229 154.069 136.039 153.262C141.651 149.414 143.823 148.227 149.24 143.812Z" fill="#EBBD64"/>
<path d="M163.878 115.078C169.011 120.68 171.842 123.913 175.614 130.337C173.67 131.051 171.55 131.575 169.543 132.123C165.493 132.851 161.593 133.068 157.5 133.369C161.554 125.848 162.145 123.245 163.878 115.078Z" fill="#EBBD64"/>
<path d="M166.106 102.699L167.54 104.112C165.006 106.93 165.24 107.603 165.444 111.707L165.485 112.472C164.459 113.181 164.614 113.038 163.424 113.493L162.07 112.123L162.435 107.446C162.504 107.168 162.578 106.893 162.657 106.618C163.452 103.869 163.966 103.855 166.106 102.699Z" fill="#3D291E"/>
</svg>
