<svg width="220" height="220" viewBox="0 0 220 220" fill="none" xmlns="http://www.w3.org/2000/svg">
<path d="M102.251 51.8865C103.838 47.3222 108.127 36.9801 112.213 34.6716C119.236 30.7028 124.803 47.2697 126.599 51.4334L128.155 52.5847C131.87 53.5507 133.413 54.0921 136.943 55.6162C142.578 52.9347 151.904 47.3333 157.712 49.3722C162.1 52.7705 159.532 64.3881 157.86 68.9537C157.243 72.6414 157.132 72.6173 159.736 76.2533C160.304 77.0397 160.878 77.8212 161.458 78.5972C163.384 78.8404 166.408 79.0157 168 79.8768C172.21 80.7676 174.518 81.3213 178.554 82.7571C180.863 84.1362 180.424 83.4454 181.523 85.556C181.591 90.5 171.586 101.324 167.803 103.476C167.432 106.526 167.315 108.375 167.278 111.448C168.673 113.029 170.494 114.926 171.574 116.683C186.121 130.783 178.252 134.574 161.662 135.674C161.162 138.217 161.526 139.826 161.267 141.254C161.532 152.355 158.107 149.708 151.176 154.769C149.355 156.098 151.361 160.587 146.226 161.726C143.942 161.067 142.146 160.37 140.338 158.732C139.233 158.413 138.369 158.669 137.153 158.805C136.592 161.318 137.092 163.898 137.394 166.479C142.399 168.336 144.053 168.425 145.566 173.798C145.93 173.663 146.3 173.537 146.67 173.42C151.663 171.881 167.618 172.659 169.253 178.614C168.821 179.393 168.482 179.864 167.698 180.326C154.033 188.382 85.9884 186.389 69.059 182.792C66.6519 182.28 63.7327 181.709 62.3132 179.526C63.6648 174.715 82.0755 171.717 86.5316 172.262C89.3213 169.012 90.8765 168.174 94.7463 166.742C95.0734 162.601 95.7523 158.924 93.7588 155.255L90.5679 155.171C72.6448 167.995 68.7936 161.161 74.447 142.369C72.4226 140.377 71.0154 138.514 69.2688 136.293C47.945 134.802 40.6251 130.215 60.7269 113.374L60.3196 103.69C56.8572 101.053 48.7659 92.7124 47.55 88.7228C45.2109 81.0799 62.3625 79.2854 67.2074 78.4953L71.7623 71.271C66.6149 46.9536 69.8737 41.9011 91.6357 55.7459C94.6476 54.3526 99.0234 52.9933 102.251 51.8865ZM111.528 173.378C115.978 173.908 115.169 170.766 120.594 173.789C121.106 164.321 123.094 158.343 111.157 159.946C112.157 163.959 111.941 169.258 111.528 173.378Z" fill="#F6C758"/>
<path d="M75.9029 140.023C77.9643 142.124 80.4701 142.857 80.538 142.927C83.4635 145.951 86.3457 152.547 91.6474 151.611C99.5782 150.208 104.874 154.401 110.361 147.921L111.749 149.599C114.551 154.324 122.803 159.397 127.605 162.139C129.728 160.956 132.314 159.644 134.184 158.166L137.153 158.808C136.591 161.321 137.091 163.901 137.393 166.482C142.399 168.339 144.053 168.428 145.565 173.801C145.929 173.666 146.299 173.54 146.67 173.423C151.663 171.884 167.617 172.661 169.253 178.617C168.82 179.396 168.481 179.867 167.697 180.329C154.033 188.385 85.9878 186.392 69.0583 182.794C66.6513 182.283 63.732 181.712 62.3125 179.529C63.6641 174.718 82.0748 171.719 86.5309 172.265C89.3206 169.015 90.8759 168.177 94.7457 166.745C95.0728 162.604 95.7517 158.926 93.7582 155.258L90.5673 155.174C89.4131 155.084 89.1046 154.933 88.006 154.623C84.7966 152.398 76.9398 145.212 75.508 144.73C75.0019 143.801 75.6869 141.36 75.9029 140.023ZM111.527 173.381C115.977 173.911 115.168 170.769 120.593 173.792C121.106 164.324 123.093 158.346 111.157 159.949C112.156 163.962 111.941 169.261 111.527 173.381Z" fill="#ECD1B9"/>
<path d="M75.9054 140.023C77.9668 142.124 80.4726 142.857 80.5405 142.927C83.466 145.951 86.3483 152.547 91.6499 151.611C99.5808 150.208 104.876 154.401 110.363 147.921L111.752 149.599C114.554 154.324 122.806 159.397 127.607 162.139C129.73 160.956 132.316 159.644 134.186 158.166L137.155 158.808C136.594 161.321 137.093 163.901 137.396 166.482C142.401 168.339 144.055 168.428 145.567 173.801C144.888 175.397 143.907 178.015 142.265 178.698C134.205 182.047 125.083 182.215 120.596 173.792C121.108 164.324 123.096 158.346 111.159 159.949L111.079 160.031L110.591 160.004L109.308 157.736C103.95 157.336 101.111 157.234 96.2233 155.012C95.458 154.645 94.8223 155.016 93.7607 155.258L90.5698 155.174C89.4157 155.084 89.1071 154.933 88.0085 154.623C84.7992 152.398 76.9424 145.212 75.5105 144.73C75.0044 143.801 75.6894 141.36 75.9054 140.023Z" fill="#38291E"/>
<path d="M96.2227 155.012C99.1666 152.854 109.862 153.023 113.177 155.41L113.856 156.66L113.134 157.546C111.819 157.639 110.634 157.729 109.307 157.736C103.95 157.336 101.111 157.234 96.2227 155.012Z" fill="#EBBD64"/>
<path d="M133.976 162.227C134.075 164.145 134.247 165.472 134.537 167.373C136.784 170.988 141.777 169.337 142.617 174.08C141.16 178.946 135.716 177.704 131.322 177.672C128.995 177.542 125.187 177.591 124.237 174.819C123.249 171.961 122.323 168.809 123.502 165.89C125.878 163.644 129.285 164.862 133.334 162.591L133.976 162.227Z" fill="#F6C758"/>
<path d="M93.7585 155.256C94.8201 155.014 95.4558 154.643 96.2211 155.01C101.109 157.232 103.948 157.334 109.305 157.734L110.589 160.002L111.077 160.029L111.157 159.947C112.157 163.96 111.941 169.259 111.527 173.378C109.238 178.505 105.899 180.088 100.548 180.637C92.9561 181.416 87.6298 180.49 86.5312 172.262C89.3209 169.013 90.8762 168.175 94.746 166.743C95.0731 162.602 95.752 158.924 93.7585 155.256Z" fill="#38291E"/>
<path d="M97.5427 158.344C101.758 159.709 104.646 159.808 108.998 160.154C109.146 169.075 111.485 176.694 100.517 177.809C96.7341 178.046 93.0249 178.388 90.2476 175.573C89.0687 171.166 93.4322 170.024 96.7897 168.641C97.5057 164.649 97.4933 162.338 97.5427 158.344Z" fill="#F6C758"/>
<path d="M111.748 149.598C122.123 133.507 95.615 135.473 103.138 123.23C109.31 113.19 120.593 113.361 128.141 122.502C131.733 119.486 135.695 115.633 140.849 115.916C146.502 116.227 159.272 124.617 155.39 131.121C152.526 131.615 149.588 131.719 147.699 133.999C143.731 138.781 139.454 144.836 144.132 150.615L144.472 151.084C144.885 152.146 145.009 152.707 145.823 153.527C144.009 155.001 142.706 155.631 142.509 158.127L140.336 158.734C139.232 158.415 138.368 158.671 137.152 158.807L134.183 158.165C132.313 159.643 129.727 160.955 127.604 162.137C122.802 159.395 114.55 154.323 111.748 149.598Z" fill="#E47166"/>
<path d="M144.137 150.613L144.476 151.082C144.89 152.144 145.013 152.705 145.828 153.525C144.013 155 142.711 155.629 142.513 158.125L140.341 158.732C139.236 158.413 138.372 158.669 137.156 158.805L134.188 158.163C138.409 155.829 141.248 154.578 144.137 150.613Z" fill="#45311F"/>
<path d="M102.251 51.8865C103.838 47.3222 108.127 36.9801 112.213 34.6716C119.236 30.7028 124.803 47.2697 126.599 51.4334L124.773 50.1062L123.674 50.6223C120.452 51.1044 109.053 50.9075 105.158 50.9099C104.8 52.1297 104.449 53.1625 104.282 54.431C64.8375 63.3251 49.3522 110.16 75.9036 140.021C75.6875 141.357 75.0025 143.798 75.5086 144.727C76.9405 145.21 84.7973 152.396 88.0067 154.62C89.1053 154.93 89.4138 155.081 90.5679 155.171C72.6448 167.995 68.7936 161.161 74.447 142.369C72.4226 140.377 71.0154 138.514 69.2688 136.293C47.945 134.802 40.6251 130.215 60.7269 113.374L60.3196 103.69C56.8572 101.053 48.7659 92.7124 47.55 88.7228C45.2109 81.0799 62.3625 79.2854 67.2074 78.4953L71.7623 71.271C66.6149 46.9536 69.8737 41.9011 91.6357 55.7459C94.6476 54.3526 99.0234 52.9933 102.251 51.8865Z" fill="#38231E"/>
<path d="M105.16 50.9107C108.339 44.0991 109.505 40.6877 114.56 35.0898C120.491 42.1992 120.065 44.8291 123.676 50.6231C120.454 51.1052 109.055 50.9083 105.16 50.9107Z" fill="#F6C758"/>
<path d="M75.5115 144.727C76.9434 145.209 84.8002 152.395 88.0096 154.62C83.2017 156.118 78.8875 158.237 74.3203 160.338C74.3203 155.988 75.0733 149.142 75.5115 144.727Z" fill="#EBBD64"/>
<path d="M62.8319 81.9495C64.0971 81.705 64.0168 81.7519 65.2574 82.1655C62.7948 89.3694 61.5666 92.9436 60.2458 100.42L56.0798 95.9616C53.1728 92.8683 50.8091 89.496 48.5625 85.907C53.6852 83.8242 57.5302 82.9927 62.8319 81.9495Z" fill="#EBBD64"/>
<path d="M72.4921 50.1602C79.2317 51.6756 82.8978 53.7769 88.829 57.0369C86.5948 58.3758 84.2741 59.9419 82.0831 61.3691C78.7071 63.9204 76.7629 66.1433 73.9054 69.2021C72.5969 62.2796 72.3069 57.1178 72.4921 50.1602Z" fill="#EBBD64"/>
<path d="M60.5693 116.898C61.1185 117.473 66.6054 131.404 68.0311 134.13L58.7239 132.9C56.1934 132.521 55.3355 132.447 52.8977 131.418C49.1266 127.069 57.2735 120.526 60.5693 116.898Z" fill="#EBBD64"/>
<path d="M110.748 113.828C108.223 112.781 104.489 111.696 103.958 108.694C108.594 109.736 115 112.364 119.345 109.135C120.258 108.455 120.481 108.25 121.622 108.043L122.9 108.968C122.678 110.489 121.338 111.05 119.82 112.27C121.462 115.278 123.671 114.146 128.152 118.43C132.158 115.524 133.997 114.559 138.755 113.326C144.131 113.209 145.822 113.738 150.655 116.156C155.901 119.861 157.166 123.451 159.024 129.355C161.363 124.147 162.795 119.177 164.134 113.667L166.856 114.691L168.788 117.017L169.356 116.102C170.078 116.452 170.787 116.567 171.577 116.683C186.125 130.783 178.255 134.573 161.665 135.673C161.166 138.217 161.53 139.825 161.27 141.253C161.536 152.354 158.111 149.708 151.179 154.768C149.359 156.097 151.365 160.586 146.23 161.725C143.946 161.067 142.15 160.369 140.342 158.731L142.514 158.125C142.712 155.628 144.014 154.999 145.828 153.525C145.014 152.705 144.89 152.144 144.477 151.082L144.137 150.613C139.459 144.834 143.736 138.778 147.705 133.997C149.593 131.717 152.531 131.613 155.395 131.118C159.277 124.615 146.507 116.225 140.854 115.914C135.7 115.631 131.738 119.483 128.146 122.5C120.598 113.359 109.316 113.188 103.144 123.227C95.6202 135.47 122.128 133.505 111.754 149.595L110.365 147.917C110.865 146.639 111.309 145.284 111.76 143.98C111.173 140.811 109.137 140.733 108.229 139.169C107.464 137.842 109.359 137.591 106.563 134.987C100.008 132.946 93.1577 144.472 86.7266 138.233C87.3808 135.101 94.102 139 96.3115 135.493C96.2745 135.543 99.8171 132.65 100.083 132.429C97.7742 122.262 101.786 117.793 110.748 113.828Z" fill="#3D291E"/>
<path d="M166.855 114.691L168.786 117.017L169.354 116.102C170.076 116.452 170.786 116.567 171.576 116.683C186.123 130.783 178.254 134.573 161.664 135.674L162.016 133.931L160.991 133.359C160.584 131.708 165.818 117.929 166.855 114.691Z" fill="#EBBD64"/>
<path d="M168.786 117.02L169.354 116.105C170.076 116.455 170.786 116.571 171.576 116.686C186.123 130.786 178.254 134.577 161.664 135.677L162.016 133.934C165.663 132.758 174.304 132.042 176.088 129.005C176.254 125.484 171.101 119.937 168.786 117.02Z" fill="#16120E"/>
<path d="M146.809 150.525C141.119 141.067 146.957 143.996 149.476 135.756C149.871 134.455 153.666 133.171 155.289 133.427C159.597 136.111 159.301 144.958 156.752 148.869C156.499 149.255 156.246 149.636 155.981 150.011C152.21 152.155 150.537 152.968 146.809 150.525Z" fill="#F6C758"/>
<path d="M155.979 150.009L156.232 150.289L157.103 150.194C159.497 148.059 160.392 144.313 161.269 141.254C161.534 152.355 158.109 149.708 151.178 154.769C149.357 156.098 151.363 160.587 146.228 161.726C143.944 161.067 142.148 160.37 140.34 158.732L142.512 158.125C142.71 155.629 144.012 155 145.827 153.525C145.012 152.705 144.889 152.144 144.475 151.083L146.808 150.523C150.536 152.966 152.208 152.152 155.979 150.009Z" fill="#38231E"/>
<path d="M145.826 153.527C147.134 154.679 147.141 154.778 147.838 156.42C147.295 158.236 147.764 157.598 145.838 158.678L142.512 158.127C142.709 155.631 144.011 155.002 145.826 153.527Z" fill="#EBBD64"/>
<path d="M136.947 55.619C142.582 52.9374 151.908 47.336 157.715 49.375C162.104 52.7732 159.536 64.3908 157.864 68.9564L155.889 67.1619C155.703 67.9163 155.426 68.5984 155.166 69.3305L154.272 69.0904C150.741 64.9248 140.823 57.7203 140.231 56.5986C138.231 57.1141 138.175 57.2221 136.62 58.6654C132.781 56.8554 130.226 56.0807 126.227 54.8264C128.14 54.1504 128.708 54.4288 130.695 54.8899L131.343 55.0455C130.214 54.0566 129.387 53.4609 128.158 52.5874C131.874 53.5535 133.417 54.0949 136.947 55.619Z" fill="#F6C758"/>
<path d="M136.947 55.619C142.582 52.9374 151.908 47.336 157.715 49.375C162.104 52.7732 159.536 64.3908 157.864 68.9564L155.889 67.1619C156.981 60.5796 157.228 56.8128 156.963 50.3306C150.822 51.8084 146.007 54.0782 140.231 56.5986C138.231 57.1141 138.175 57.2221 136.62 58.6654C132.781 56.8554 130.226 56.0807 126.227 54.8264C128.14 54.1504 128.708 54.4288 130.695 54.8899L131.343 55.0455C130.214 54.0566 129.387 53.4609 128.158 52.5874C131.874 53.5535 133.417 54.0949 136.947 55.619Z" fill="#281E18"/>
<path d="M168.001 79.8789C172.21 80.7697 174.519 81.3234 178.555 82.7592C180.863 84.1383 180.425 83.4475 181.524 85.5581C181.591 90.5021 171.587 101.326 167.803 103.478L167.729 102.768L168.97 101.37L168.371 100.313L167.822 100.15C166.452 98.5134 166.421 94.059 165.903 91.6157C165.285 88.7002 161.909 84.1364 163.847 81.9549L166.717 82.1901C167.822 81.9265 167.97 82 168.902 81.3209L169.846 81.6203C168.303 80.8851 168.921 81.4209 168.001 79.8789Z" fill="#EBBD64"/>
<path d="M178.556 82.7578C180.864 84.1369 180.426 83.4461 181.525 85.5567C181.592 90.5006 171.588 101.325 167.805 103.476L167.73 102.766L168.971 101.369L168.372 100.311C171.304 95.6335 177.889 92.0501 178.334 86.6647C177.124 84.6678 176.723 85.0208 174.186 84.0251C175.26 83.2257 177.173 83.027 178.556 82.7578Z" fill="#281E18"/>
<path d="M168.003 79.8789C172.212 80.7697 174.52 81.3234 178.556 82.7592C177.174 83.0284 175.261 83.2272 174.187 84.0266L166.719 82.1901C167.824 81.9265 167.972 82 168.904 81.3209L169.848 81.6203C168.305 80.8851 168.922 81.4209 168.003 79.8789Z" fill="#38291E"/>
<path d="M136.617 58.6644C138.172 57.2211 138.228 57.1131 140.228 56.5977C140.82 57.7193 150.738 64.9238 154.269 69.0894L155.164 69.3295C155.423 68.5974 155.701 67.9153 155.886 67.1609L157.861 68.9554C157.244 72.6432 157.133 72.6191 159.737 76.255C160.305 77.0415 160.879 77.823 161.459 78.5989C163.385 78.8421 166.409 79.0174 168.001 79.8786C168.921 81.4206 168.304 80.8848 169.847 81.62L168.902 81.3206C167.97 81.9996 167.822 81.9262 166.717 82.1898L163.848 81.9546C161.91 84.1361 165.286 88.6998 165.903 91.6153C166.421 94.0586 166.452 98.5131 167.822 100.15L168.372 100.313L168.97 101.37L167.73 102.768L167.804 103.477C167.433 106.528 167.316 108.377 167.279 111.449C168.674 113.031 170.495 114.928 171.575 116.685C170.785 116.57 170.075 116.454 169.353 116.104L168.785 117.019L166.853 114.694L164.131 113.67C166.131 89.0832 158.694 71.1185 136.617 58.6644Z" fill="#3D291E"/>
<path d="M138.753 113.327C131.242 92.4294 167.526 99.9475 150.652 116.156C145.82 113.739 144.129 113.209 138.753 113.327Z" fill="#EA9F58"/>
<path d="M123.673 50.6215L124.772 50.1055L126.599 51.4327L128.154 52.5839C129.382 53.4574 130.209 54.0531 131.339 55.042L130.691 54.8865C128.703 54.4254 128.136 54.1469 126.222 54.8229C117.501 53.0117 112.965 52.7876 104.281 54.4303C104.448 53.1617 104.8 52.129 105.158 50.9092C109.052 50.9067 120.452 51.1036 123.673 50.6215Z" fill="#45311F"/>
<path d="M78.5259 101C90.0241 100.256 95.4554 110.33 84.2288 117.579C72.1319 118.221 66.9906 107.65 78.5259 101Z" fill="#EA9F58"/>
<path d="M129.949 92.1914C131.227 92.3365 133.153 92.8223 134.152 93.6414C135.572 94.8125 136.405 96.5576 136.411 98.4027C136.448 101.398 135.319 102.789 133.455 104.798C124.827 104.681 124.827 97.5866 129.949 92.1914Z" fill="#3D291E"/>
<path d="M93.6057 92.207C101.259 92.4268 101.734 99.4344 97.5927 104.61C88.9645 104.946 88.9892 97.6955 93.6057 92.207Z" fill="#38291E"/>
<path d="M52.3456 38.7061C54.7094 38.1619 55.7031 38.2532 57.8385 39.2452C63.7574 45.0019 55.8265 56.0571 47.8895 56.8072C43.2112 54.0188 36.5394 47.5865 39.0081 41.6383C43.0384 36.905 46.402 41.204 52.3456 38.7061Z" fill="#DC846D"/>
</svg>
