<svg width="220" height="220" viewBox="0 0 220 220" fill="none" xmlns="http://www.w3.org/2000/svg">
<path d="M86.2737 58.2609C87.5204 54.6886 93.0381 43.3981 96.4388 41.7425C104.629 41.4487 106.931 56.6244 110.628 58.6597C113.251 59.6233 119.034 62.2511 121.429 61.4209C123.083 60.3745 126.483 58.7813 128.335 57.8485C129.909 57.1034 132.297 56.2614 133.976 55.6071L136.778 57.6664L138.136 57.7319L140.049 56.08C141.617 62.0011 139.728 71.7218 139.284 78.4263C140.895 80.7399 141.234 81.8406 143.962 82.7974C168.298 86.5487 163.533 85.3203 158.843 106.031C162.293 107.478 163.805 108.349 165.909 111.721C168.002 117.266 169.563 125.445 166.218 130.757C164.515 131.148 165.126 130.853 163.86 132.501L162.632 132.168C157.108 139.148 152.288 139.347 143.938 138.059L143.894 138.928C147.4 140.053 153.072 139.477 154.201 139.903H153.547C150.807 139.921 150.332 140.067 147.9 141.342C146.345 141.037 144.709 140.503 143.302 141.055C138.173 142.193 132.631 142.896 127.576 141.271C132.001 145.525 135.871 142.217 136.433 144.112L135.976 144.539C135.501 155.929 130.174 156.55 121.571 150.357C120.071 152.522 120.515 152.019 120.312 154.943C119.67 153.272 120.065 153.561 118.818 152.725L117.639 154.114C115.393 152.085 108.332 153.93 106.499 156.013C105.962 155.238 106.16 154.261 106.135 153.104L105.203 152.256C95.3341 152.664 89.6868 152.423 80.1513 149.446L78.8305 150.313C79.1576 153.093 79.7686 153.286 78.7009 155.366C76.9419 143.548 66.2954 157.697 60.105 155.172C52.2914 151.986 60.9752 141.705 56.2969 134.44L55.9205 133.866C55.0009 132.922 54.0689 132.622 52.8715 132.075C46.3602 132.277 43.6508 132.054 37.4234 130.174C35.6397 129.478 35.7076 129.556 34.467 128.117C33.0166 121.624 46.2121 113.004 46.7367 109.269C47.7859 101.727 31.1342 97.1188 33.7572 86.9111C37.3122 84.8468 41.2684 84.0339 45.2493 83.274C48.2612 82.574 49.7794 82.6135 52.7913 82.9332C54.4947 80.9616 55.9266 78.3534 57.2783 76.1034C56.1241 71.6242 53.8714 61.1813 55.5316 56.7479C57.2289 52.2039 62.8638 55.1373 65.9127 56.509C68.7086 57.9041 73.4857 60.1072 75.8557 61.8684C79.7316 60.3233 82.2496 59.385 86.2737 58.2609Z" fill="#F6C758"/>
<path d="M143.963 82.7969C168.299 86.5482 163.534 85.3198 158.843 106.031C162.293 107.478 163.805 108.348 165.91 111.721C168.002 117.265 169.564 125.444 166.219 130.757C164.515 131.147 165.126 130.852 163.861 132.5L162.633 132.167C157.109 139.148 152.289 139.346 143.938 138.058L143.895 138.928C147.401 140.052 153.073 139.476 154.202 139.902H153.548C150.807 139.92 150.332 140.066 147.901 141.342C146.345 141.037 144.71 140.503 143.302 141.055C138.396 136.054 133.211 139.926 135.569 129.437C132.582 127.863 130.008 128.949 127.262 130.482L126.879 130.7L126.034 130.275L125.91 129.02C127.336 126.861 129.768 126.194 132.335 125.022L132.415 121.405C134.02 118.411 129.866 110.243 139.501 107.48C141.007 102.844 139.649 100.219 143.056 92.4274C142.006 89.5971 140.525 86.5433 139.254 83.7722C140.001 83.7204 142.161 83.8642 143.019 83.9019L143.963 82.7969Z" fill="#F6C758"/>
<path d="M143.963 82.7969C168.299 86.5482 163.534 85.3198 158.843 106.031C162.293 107.478 163.805 108.348 165.91 111.721L164.404 114.181L163.676 114.33C160.047 109.764 158.43 108.462 152.486 108.54L151.425 107.833L151.363 106.211C152.647 105.316 153.64 105.478 155.227 105.436C157.8 102.26 158.732 93.1886 155.85 89.7403C154.4 89.0131 153.511 88.3884 151.826 89.0008C143.673 91.9583 143.241 101.017 143.031 107.871C138.538 110.449 136.742 111.823 135.464 116.951C134.335 121.464 134.366 124.732 137.847 128.017C139.47 134.228 133.427 133.285 143.938 138.058L143.895 138.928C147.401 140.052 153.073 139.476 154.202 139.902H153.548C150.807 139.92 150.332 140.066 147.901 141.342C146.345 141.037 144.71 140.503 143.302 141.055C138.396 136.054 133.211 139.926 135.569 129.437C132.582 127.863 130.008 128.949 127.262 130.482L126.879 130.7L126.034 130.275L125.91 129.02C127.336 126.861 129.768 126.194 132.335 125.022L132.415 121.405C134.02 118.411 129.866 110.243 139.501 107.48C141.007 102.844 139.649 100.219 143.056 92.4274C142.006 89.5971 140.525 86.5433 139.254 83.7722C140.001 83.7204 142.161 83.8642 143.019 83.9019L143.963 82.7969Z" fill="#3D291E"/>
<path d="M163.676 114.328L164.404 114.179L165.91 111.719C168.002 117.263 169.564 125.443 166.219 130.755C164.515 131.145 165.126 130.85 163.861 132.498L162.633 132.166C165.706 125.328 165.78 121.391 163.676 114.328Z" fill="#38291E"/>
<path d="M45.2493 83.2723C48.2612 82.5722 49.7794 82.6118 52.7913 82.9315C54.1491 83.0735 54.7416 83.1686 56.1427 83.0476C46.2306 101.435 47.8415 116.434 58.5373 133.869L55.9205 133.864C55.0009 132.92 54.0689 132.62 52.8715 132.073C46.3602 132.275 43.6508 132.052 37.4234 130.172C35.6397 129.476 35.7076 129.554 34.467 128.116C33.0166 121.623 46.2121 113.003 46.7367 109.267C47.7859 101.725 31.1342 97.1171 33.7572 86.9094C37.3122 84.8451 41.2684 84.0322 45.2493 83.2723Z" fill="#2A1E17"/>
<path d="M46.8188 113.996C48.6642 120.063 50.1331 124.461 52.9721 130.237L52.8734 132.074C46.362 132.276 43.6526 132.053 37.4252 130.174L37.8757 128.684C37.203 127.866 36.6228 127.531 36.8327 126.702C37.8016 122.907 44.2328 116.715 46.8188 113.996Z" fill="#EBBD64"/>
<path d="M37.8724 128.684L52.9688 130.237L52.87 132.074C46.3587 132.276 43.6493 132.053 37.4219 130.174L37.8724 128.684Z" fill="#38291E"/>
<path d="M47.174 85.7852L50.8895 85.8994C51.1364 87.2142 47.0814 100.237 46.4704 102.584C42.7982 98.7411 37.9533 93.9329 35.25 89.4556C38.626 87.2938 43.2425 86.579 47.174 85.7852Z" fill="#EBBD64"/>
<path d="M33.7578 86.9106C37.3128 84.8463 41.269 84.0333 45.2498 83.2734C43.6637 84.3432 42.9601 84.7636 41.2319 85.5766C42.9107 85.6136 45.5831 85.5883 47.1755 85.7846C43.244 86.5785 38.6274 87.2933 35.2514 89.4551C35.1403 89.152 33.9985 87.3143 33.7578 86.9106Z" fill="#281E18"/>
<path d="M128.332 57.8469C129.906 57.1018 132.294 56.2598 133.973 55.6055L136.775 57.6648L138.133 57.7302L140.046 56.0783C141.614 61.9995 139.725 71.7201 139.281 78.4246C140.892 80.7383 141.231 81.8389 143.959 82.7958L143.015 83.9007C142.157 83.8631 139.997 83.7192 139.25 83.7711C133.449 74.7554 126.684 69.6812 117.612 64.6162L118.105 64.4761C117.914 63.5773 113.168 61.968 112.279 61.3124C112.279 61.3124 110.73 58.8222 110.625 58.658C113.248 59.6216 119.031 62.2495 121.426 61.4192C123.08 60.3729 126.481 58.7796 128.332 57.8469Z" fill="#F6C758"/>
<path d="M138.133 57.73L140.046 56.0781C141.614 61.9993 139.725 71.7199 139.281 78.4244C140.892 80.7381 141.231 81.8387 143.959 82.7956L143.015 83.9006C142.157 83.8629 139.997 83.7191 139.25 83.7709C133.449 74.7552 126.684 69.681 117.612 64.616L118.105 64.4759C117.914 63.5771 113.168 61.9678 112.279 61.3122C112.279 61.3122 110.73 58.822 110.625 58.6578C113.248 59.6214 119.031 62.2493 121.426 61.419L124.222 61.3227L124.012 62.7956C123.419 63.3487 123.592 63.2333 123.222 64.0061C128.684 68.3772 131.887 70.6094 136.812 75.683C137.466 70.4205 138.318 62.9123 138.133 57.73Z" fill="#38271C"/>
<path d="M128.336 57.8469C129.91 57.1018 132.298 56.2598 133.977 55.6055L136.779 57.6648L132.811 59.058L124.016 62.7958L124.226 61.3229L121.43 61.4192C123.084 60.3729 126.484 58.7796 128.336 57.8469Z" fill="#38291E"/>
<path d="M128.336 57.8469C129.91 57.1018 132.298 56.2598 133.977 55.6055L136.779 57.6648L132.811 59.058C131.848 58.9488 129.398 58.1555 128.336 57.8469Z" fill="#281E18"/>
<path d="M86.2734 58.2609C87.5202 54.6886 93.0379 43.3981 96.4386 41.7425C104.629 41.4487 106.931 56.6244 110.628 58.6597C110.733 58.8239 112.282 61.3141 112.282 61.3141C113.17 61.9696 117.917 63.5789 118.108 64.4777L117.614 64.6179C112.992 62.9394 110.01 61.9252 105.203 60.7208C99.5739 60.2356 93.9142 60.3523 88.3102 61.069C88.8286 59.3838 89.0693 58.4276 89.8717 56.8713L90.242 55.9059L89.1619 55.4528C88.3287 56.4405 87.3967 57.793 86.2734 58.2609Z" fill="#F6C758"/>
<path d="M86.2734 58.2609C87.5202 54.6886 93.0379 43.3981 96.4386 41.7425C104.629 41.4487 106.931 56.6244 110.628 58.6597C110.733 58.8239 112.282 61.3141 112.282 61.3141C113.17 61.9696 117.917 63.5789 118.108 64.4777L117.614 64.6179C112.992 62.9394 110.01 61.9252 105.203 60.7208C106.172 60.1745 106.375 60.0035 107.239 59.2942L106.665 57.4448C98.8024 43.2216 98.395 40.2881 90.242 55.9059L89.1619 55.4528C88.3287 56.4405 87.3967 57.793 86.2734 58.2609Z" fill="#281E18"/>
<path d="M88.3125 61.0687C88.8309 59.3835 89.0717 58.4273 89.874 56.8711C91.5281 57.9489 105.223 58.1458 106.668 57.4446L107.242 59.294C106.378 60.0033 106.174 60.1743 105.205 60.7206C99.5762 60.2354 93.9166 60.3521 88.3125 61.0687Z" fill="#3D291E"/>
<path d="M58.5387 133.869C65.5068 141.47 70.4505 145.486 80.1527 149.443L78.8319 150.311C79.159 153.091 79.77 153.284 78.7023 155.364C76.9433 143.546 66.2968 157.695 60.1064 155.169C52.2928 151.984 60.9766 141.703 56.2984 134.437L55.9219 133.863L58.5387 133.869Z" fill="#281E18"/>
<path d="M60.4928 140.742C62.9924 143.018 70.9232 147.291 70.8615 149.597L68.1768 150.803C64.9365 152.003 62.8751 152.349 59.4683 153.007C59.351 148.954 59.4127 144.667 60.4928 140.742Z" fill="#EBBD64"/>
<path d="M57.2779 76.1023C56.1238 71.6232 53.8711 61.1803 55.5313 56.7468C57.2286 52.2029 62.8634 55.1363 65.9124 56.5079C68.7082 57.903 73.4853 60.1062 75.8553 61.8673C74.7629 63.2038 75.1949 62.7785 73.3371 63.3945C70.7696 64.8427 59.4381 73.2862 58.8579 73.4362C57.3643 74.7066 57.8272 74.0745 57.2779 76.1023Z" fill="#F6C758"/>
<path d="M57.2779 76.1023C56.1238 71.6232 53.8711 61.1803 55.5313 56.7468C57.2286 52.2029 62.8634 55.1363 65.9124 56.5079C64.9927 57.4715 64.536 57.6901 64.1348 58.8703L57.1421 56.4042C57.5186 62.4495 58.0679 67.4224 58.8579 73.4362C57.3643 74.7066 57.8272 74.0745 57.2779 76.1023Z" fill="#281E18"/>
<path d="M65.9103 56.5078C68.7062 57.9029 73.4833 60.1061 75.8533 61.8672C74.7609 63.2037 75.1928 62.7784 73.3351 63.3944L64.1328 58.8702C64.534 57.6899 64.9907 57.4714 65.9103 56.5078Z" fill="#38291E"/>
<path d="M132.412 121.404L132.252 120.247C131.734 119.926 131.246 119.649 130.604 119.594C121.717 118.836 117.958 104.483 128.364 102.66C130.388 102.305 132.851 102.365 134.56 103.751C136.177 105.06 137.745 106.283 139.498 107.479C129.864 110.241 134.017 118.41 132.412 121.404Z" fill="#EA9F58"/>
<path d="M86.2715 58.2573C87.3948 57.7894 88.3268 56.4369 89.16 55.4492L90.24 55.9023L89.8697 56.8678C89.0674 58.424 88.8267 59.3802 88.3082 61.0654C73.8414 64.781 64.6946 70.3527 56.1404 83.0457C54.7394 83.1667 54.1469 83.0716 52.7891 82.9297C54.4925 80.958 55.9244 78.3499 57.276 76.0998C57.8253 74.072 57.3625 74.7041 58.8561 73.4337C59.4362 73.2837 70.7678 64.8402 73.3353 63.392C75.193 62.776 74.761 63.2013 75.8534 61.8648C79.7294 60.3197 82.2474 59.3814 86.2715 58.2573Z" fill="#3A2B25"/>
<path d="M126.039 142.488C126.082 141.449 126.236 141.333 126.674 140.371L127.576 141.269C132.001 145.524 135.871 142.216 136.432 144.11L135.975 144.538C135.5 155.927 130.174 156.549 121.57 150.355L124.187 149.857C124.662 148.233 127.415 146.343 128.872 145.14C128.582 145.002 127.347 143.415 126.039 142.488Z" fill="#281E18"/>
<path d="M128.872 145.141C132.254 145.268 131.335 144.748 133.106 146.562C133.581 148.573 133.655 147.722 132.661 149.699C130.452 151.011 130.205 151.46 127.341 150.736C126.286 150.461 125.231 150.168 124.188 149.857C124.663 148.234 127.415 146.344 128.872 145.141Z" fill="#EBBD64"/>
<path d="M126.039 142.488C127.348 143.415 128.582 145.003 128.872 145.14C127.416 146.344 124.663 148.234 124.188 149.857L121.571 150.356C120.071 152.521 120.516 152.018 120.312 154.942C119.67 153.271 120.065 153.56 118.818 152.724L117.639 154.113C115.393 152.084 108.332 153.929 106.499 156.012C105.962 155.237 106.16 154.26 106.135 153.103L105.203 152.255C109.141 150.587 126.249 148.846 126.039 142.488Z" fill="#3D291E"/>
<path d="M98.4912 111.458C101.775 111.169 109.162 110.063 109.051 114.67C108.909 120.753 101.682 124.059 96.9976 124.633C89.4926 122.086 88.4126 118.551 86.9375 111.356C90.7023 111.544 94.7079 111.465 98.4912 111.458Z" fill="#38231E"/>
<path d="M90.8984 114.477C95.0336 114.337 102.31 112.867 105.162 115.071C105.371 117.358 104.902 117.385 103.767 119.652C97.7862 123.953 92.1698 121.721 90.8984 114.477Z" fill="#E47166"/>
<path d="M64.2691 103.317C67.1391 102.644 70.1509 103.575 72.1383 105.753C74.1256 107.93 74.7799 111.012 73.8479 113.81C72.9221 116.607 70.5521 118.683 67.6513 119.235C63.3063 120.065 59.0909 117.264 58.1713 112.932C57.2517 108.601 59.9612 104.328 64.2691 103.317Z" fill="#EA9F58"/>
<path d="M78.9484 94.9648C86.6324 96.7877 86.3733 103.48 80.2446 107.681C73.221 105.717 73.0481 98.9508 78.9484 94.9648Z" fill="#3D291E"/>
<path d="M115.36 94.8047C123.649 95.4936 123.143 102.404 118.063 107.296C110.318 106.203 110.54 99.6215 115.36 94.8047Z" fill="#3D291E"/>
<path d="M80.1509 149.445C89.6864 152.423 95.3337 152.664 105.202 152.256L106.134 153.104C106.159 154.26 105.962 155.237 106.499 156.012C108.332 153.93 115.392 152.084 117.639 154.113L118.818 152.724C120.064 153.56 119.669 153.271 120.311 154.942C121.206 163.396 124.681 159.241 128.649 165.462C134.729 167.044 149.072 167.022 153.596 170.639L154.102 171.882C153.016 173.721 151.862 174.329 149.794 174.876C135.5 178.665 59.1726 180.497 47.551 173.723C46.6499 173.199 46.6561 172.959 46.2734 171.999C49.0323 168.063 64.7952 166.817 69.8623 166.351C74.3431 163.607 77.966 160.541 78.7005 155.366C79.7682 153.286 79.1572 153.093 78.8301 150.313L80.1509 149.445ZM94.7165 161.855C98.648 160.197 99.7589 159.405 103.771 161.009C104.067 158.848 104.474 157.705 103.505 155.796C101.431 154.426 97.5247 155.043 94.735 155.137L94.7165 161.855Z" fill="#38291E"/>
<path d="M94.7165 161.853C98.648 160.195 99.7589 159.403 103.771 161.008C103.894 171.676 108.221 175.275 119.256 175.546C124.243 175.669 129.149 172.794 128.791 167.155C128.754 166.589 128.705 166.024 128.649 165.46C134.729 167.042 149.072 167.021 153.596 170.638L154.102 171.88C153.016 173.719 151.862 174.327 149.794 174.874C135.5 178.664 59.1726 180.495 47.551 173.722C46.6499 173.198 46.6561 172.957 46.2734 171.998C49.0323 168.062 64.7952 166.816 69.8623 166.35C70.1647 167.934 70.1278 171.065 71.1338 172.022C75.7627 176.425 87.267 176.292 92.1675 172.568C94.7597 170.602 94.5745 164.841 94.7165 161.853Z" fill="#ECD1B9"/>
<path d="M106.5 156.012C108.333 153.93 115.394 152.084 117.64 154.113L118.177 162.513C121.522 163.936 124.238 164.706 125.664 168.187C125.417 169.264 125.25 170.394 124.158 170.711C104.439 176.435 107.636 164.967 106.5 156.012Z" fill="#F6C758"/>
<path d="M80.7494 152.777C84.3106 153.617 87.989 154.216 91.5996 154.855C92.0192 163.488 94.6979 170.88 84.4896 172.02C80.626 171.978 77.4413 172.402 74.3615 170.102C72.4976 166.112 77.2623 164.643 80.2865 163.197C80.7371 159.92 80.6939 156.123 80.7494 152.777Z" fill="#F6C758"/>
<path d="M162.634 132.164L163.863 132.497C165.128 130.849 164.517 131.144 166.22 130.754C164.109 135.562 162.363 138.299 157.061 140.236C152.29 141.981 140.73 144.545 135.978 144.536L136.435 144.108C135.873 142.214 132.003 145.522 127.578 141.267C132.633 142.893 138.175 142.189 143.304 141.052C144.711 140.5 146.347 141.034 147.902 141.339C150.334 140.063 150.809 139.917 153.549 139.899H154.204C153.074 139.473 147.402 140.049 143.897 138.925L143.94 138.055C152.29 139.343 157.111 139.145 162.634 132.164Z" fill="#38291E"/>
<path d="M178.278 61.9336C179.55 62.1422 179.105 62.0392 180.272 62.7213L180.395 64.1602C178.612 67.685 175.402 69.6647 172.113 71.6481C170.952 71.3425 171.502 71.582 170.582 70.64C170.971 67.6547 175.877 64.0009 178.278 61.9336Z" fill="#EBBD64"/>
<path d="M161.655 56.3438C163.031 56.8685 162.994 56.9925 163.877 58.116C164.667 61.4217 164.661 65.7446 163.253 68.862L161.846 68.5071C159.384 65.8366 160.365 59.463 161.655 56.3438Z" fill="#EBBD64"/>
<path d="M184.677 77.9883C184.967 77.9846 185.813 78.2445 186.14 78.3315C186.652 80.0797 186.695 79.2383 185.985 80.9396C183.986 82.3717 180.449 82.4798 177.888 82.7619C175.962 81.4668 176.042 81.9853 175.629 80.2958C176.968 78.7556 182.461 78.3044 184.677 77.9883Z" fill="#EBBD64"/>
<path d="M133.977 55.6058C136.044 54.9496 136.84 54.47 138.92 55.0601L140.05 56.0787L138.136 57.7306L136.779 57.6652L133.977 55.6058Z" fill="#281E18"/>
</svg>
